<svg width="864" height="432" style="border: 1px solid rgb(211, 211, 211);"><circle r="4" class="point" cy="278.98971574417163" cx="258.6963885320018"></circle><circle r="4" class="point" cy="151.10672266774867" cx="456.6153919513124"></circle><circle r="4" class="point" cy="94.58352140454429" cx="561.2740429790389"></circle><circle r="4" class="point" cy="98.92397096562159" cx="511.7994529771267"></circle><circle r="4" class="point" cy="233.09504343997827" cx="257.42083074453916"></circle><circle r="4" class="point" cy="70.00884081466974" cx="522.9153733481816"></circle><circle r="4" class="point" cy="162.8231453589814" cx="291.5269711120888"></circle><circle r="4" class="point" cy="143.17982944246629" cx="553.46895890695"></circle><circle r="4" class="point" cy="97.80636637868419" cx="313.73666555662777"></circle><circle r="4" class="point" cy="148.00276115294471" cx="287.2877720837186"></circle><circle r="4" class="point" cy="269.4657512829635" cx="251.77116733512855"></circle><circle r="4" class="point" cy="146.53058684901848" cx="487.9754621431253"></circle><circle r="4" class="point" cy="263.6206049503704" cx="261.5630483985101"></circle><circle r="4" class="point" cy="159.92142483381645" cx="562.2752202725707"></circle><circle r="4" class="point" cy="152.70235829439125" cx="539.6375662935142"></circle><circle r="4" class="point" cy="274.2077791202902" cx="268.5084138222693"></circle><circle r="4" class="point" cy="130.02177588648232" cx="528.9465857704814"></circle><circle r="4" class="point" cy="185.42585374202875" cx="521.4947864098123"></circle><circle r="4" class="point" cy="127.44933957933941" cx="296.45044339353706"></circle><circle r="4" class="point" cy="138.96683500481674" cx="327.595927355255"></circle><circle r="4" class="point" cy="95.7420672371161" cx="482.5473475392356"></circle><circle r="4" class="point" cy="129.22136465660597" cx="471.22671092121374"></circle><circle r="4" class="point" cy="152.57335910322735" cx="297.26885457132903"></circle><circle r="4" class="point" cy="64.9224921680138" cx="559.391487652832"></circle><circle r="4" class="point" cy="136.39469717969453" cx="316.7637892016158"></circle><circle r="4" class="point" cy="138.5219104345434" cx="293.90725550758833"></circle><circle r="4" class="point" cy="175.12530178140818" cx="320.788579939037"></circle><circle r="4" class="point" cy="63.24504804918135" cx="494.40157366649896"></circle><circle r="4" class="point" cy="171.494727161016" cx="298.99195852707135"></circle><circle r="4" class="point" cy="114.60739503167585" cx="510.617779779141"></circle><circle r="4" class="point" cy="123.33222000045234" cx="315.3743350393534"></circle><circle r="4" class="point" cy="108.46835447589379" cx="533.159845821561"></circle><circle r="4" class="point" cy="201.7544213452664" cx="605.3357073730434"></circle><circle r="4" class="point" cy="93.33622039518525" cx="323.1879619875347"></circle><circle r="4" class="point" cy="262.88709296897025" cx="575.7232458738771"></circle><circle r="4" class="point" cy="94.87302708867091" cx="542.8205381105043"></circle><circle r="4" class="point" cy="106.30353809688269" cx="544.7745407779399"></circle><circle r="4" class="point" cy="156.7585559532262" cx="331.16909937885515"></circle><circle r="4" class="point" cy="167.2443395454918" cx="552.3041364136234"></circle><circle r="4" class="point" cy="91.12373850166294" cx="307.18338440109153"></circle><circle r="4" class="point" cy="165.41273765608085" cx="455.3721368167895"></circle><circle r="4" class="point" cy="127.82424805537697" cx="328.09657077286363"></circle><circle r="4" class="point" cy="149.80239414973542" cx="317.0610718155091"></circle><circle r="4" class="point" cy="118.23191904356536" cx="571.6552174750499"></circle><circle r="4" class="point" cy="68.35493507528277" cx="549.4145184272335"></circle><circle r="4" class="point" cy="143.86849188276784" cx="512.7956190053711"></circle><circle r="4" class="point" cy="130.531936424647" cx="306.55244562178757"></circle><circle r="4" class="point" cy="163.4581330169862" cx="538.9003209879862"></circle><circle r="4" class="point" cy="143.93158851468334" cx="306.04470510394407"></circle><circle r="4" class="point" cy="69.14649203590209" cx="503.28568108027673"></circle><circle r="4" class="point" cy="136.60567711304387" cx="583.1463260480169"></circle><circle r="4" class="point" cy="159.02993147728287" cx="305.7859156063623"></circle><circle r="4" class="point" cy="175.20521259310863" cx="487.0117688203217"></circle><circle r="4" class="point" cy="140.99532164349392" cx="542.1534527216565"></circle><circle r="4" class="point" cy="69.62067459574271" cx="538.2240534459746"></circle><circle r="4" class="point" cy="146.4227136942521" cx="333.9226771980286"></circle><circle r="4" class="point" cy="174.8450945338498" cx="516.5856290215419"></circle><circle r="4" class="point" cy="156.29681004075957" cx="525.7913227725497"></circle><circle r="4" class="point" cy="109.85535116767484" cx="455.42975609428"></circle><circle r="4" class="point" cy="95.87383186279042" cx="531.6998710780329"></circle><circle r="4" class="point" cy="119.96440428277027" cx="537.83744935356"></circle><circle r="4" class="point" cy="46.933807968211866" cx="526.9667733781782"></circle><circle r="4" class="point" cy="131.3218001415146" cx="554.5881009341923"></circle><circle r="4" class="point" cy="323.4597368788137" cx="595.9859672653649"></circle><circle r="4" class="point" cy="164.93302374818117" cx="325.75013069792317"></circle><circle r="4" class="point" cy="124.37963061800484" cx="583.3188809583543"></circle><circle r="4" class="point" cy="178.78767789821364" cx="505.1162792923764"></circle><circle r="4" class="point" cy="155.2930025958352" cx="509.20896741318415"></circle><circle r="4" class="point" cy="51.324966522418656" cx="517.4286691228708"></circle><circle r="4" class="point" cy="176.8993902514715" cx="455.85944227924045"></circle><circle r="4" class="point" cy="162.7965212562963" cx="315.1393161785141"></circle><circle r="4" class="point" cy="175.15441789620618" cx="308.8041464751966"></circle><circle r="4" class="point" cy="121.77047382111607" cx="559.5379899273067"></circle><circle r="4" class="point" cy="166.80543558427405" cx="472.68243430802227"></circle><circle r="4" class="point" cy="56.2038658273804" cx="548.6751254048717"></circle><circle r="4" class="point" cy="138.30960124322786" cx="481.91738672728604"></circle><circle r="4" class="point" cy="96.28162337373458" cx="468.6556062767438"></circle><circle r="4" class="point" cy="156.6520674135509" cx="495.3934710184356"></circle><circle r="4" class="point" cy="133.12187710349133" cx="446.98460306949113"></circle><circle r="4" class="point" cy="152.612207124551" cx="570.6421759655871"></circle><circle r="4" class="point" cy="60.823571596492684" cx="531.1189372999927"></circle><circle r="4" class="point" cy="120.79338123198079" cx="453.10784609883285"></circle><circle r="4" class="point" cy="142.93916163379373" cx="575.3095674738098"></circle><circle r="4" class="point" cy="310.8263340484134" cx="570.3255744011715"></circle><circle r="4" class="point" cy="156.19763626785917" cx="447.10366644030955"></circle><circle r="4" class="point" cy="162.90167218471362" cx="517.2673832020339"></circle><circle r="4" class="point" cy="99.69168556153595" cx="502.2635601740039"></circle><circle r="4" class="point" cy="365.9278937947012" cx="411.2818811612133"></circle><circle r="4" class="point" cy="111.03429969251393" cx="580.1438556115862"></circle><circle r="4" class="point" cy="146.65531782284415" cx="500.90721111486323"></circle><circle r="4" class="point" cy="101.38253467968806" cx="572.044018231178"></circle><circle r="4" class="point" cy="138.86430874403638" cx="521.8274192869388"></circle><circle r="4" class="point" cy="63.025342867118326" cx="515.682417532079"></circle><circle r="4" class="point" cy="51.428424945895465" cx="538.1436268244519"></circle><circle r="4" class="point" cy="158.813022872971" cx="481.3852756582787"></circle><circle r="4" class="point" cy="157.82343792091626" cx="465.33131010496226"></circle><circle r="4" class="point" cy="195.65138054955491" cx="499.86558980155263"></circle><circle r="4" class="point" cy="130.5641967961588" cx="458.76463477259983"></circle><circle r="4" class="point" cy="46.90767148826681" cx="506.1971680424077"></circle><circle r="4" class="point" cy="130.55889281916174" cx="541.958473933859"></circle><circle r="4" class="point" cy="190.17797693728335" cx="511.45728716321105"></circle><circle r="4" class="point" cy="106.62784417915074" cx="465.9869837330523"></circle><circle r="4" class="point" cy="125.7014819328803" cx="505.1145885220604"></circle><circle r="4" class="point" cy="122.17849488397083" cx="479.8428421761244"></circle><circle r="4" class="point" cy="213.4055203728482" cx="602.5670898346857"></circle><circle r="4" class="point" cy="184.52218823892707" cx="496.79417060507984"></circle><circle r="4" class="point" cy="140.24105011879647" cx="468.40495542144953"></circle><circle r="4" class="point" cy="128.6812106140424" cx="515.7217118209643"></circle><circle r="4" class="point" cy="67.86344175712229" cx="485.35153133266107"></circle><circle r="4" class="point" cy="106.17396518549599" cx="478.75225956606374"></circle><circle r="4" class="point" cy="149.19595383855847" cx="474.0628775908785"></circle><circle r="4" class="point" cy="116.03761497669002" cx="549.7797561619182"></circle><circle r="4" class="point" cy="95.6237461377535" cx="521.3890486759681"></circle><circle r="4" class="point" cy="194.48789122369308" cx="478.62614853178155"></circle><circle r="4" class="point" cy="108.68473211228026" cx="520.7344592635739"></circle><circle r="4" class="point" cy="187.9890113826639" cx="467.12458340116905"></circle><circle r="4" class="point" cy="101.49731156468798" cx="554.6876991211526"></circle><circle r="4" class="point" cy="52.069037017841666" cx="491.07562348137236"></circle><circle r="4" class="point" cy="167.17188920533" cx="504.9922332367677"></circle><circle r="4" class="point" cy="242.05796807599518" cx="622.7657691830807"></circle><circle r="4" class="point" cy="119.29818550778786" cx="524.2146633701019"></circle><circle r="4" class="point" cy="108.73737407994282" cx="497.15647849751963"></circle><circle r="4" class="point" cy="145.49472548268787" cx="530.1173516931086"></circle><circle r="4" class="point" cy="142.48537158607155" cx="563.8578877336415"></circle><circle r="4" class="point" cy="110.336814323743" cx="563.4045659417876"></circle><circle r="4" class="point" cy="339.7352819387198" cx="580.2024468381228"></circle><circle r="4" class="point" cy="169.7361754342065" cx="529.0238505070623"></circle><circle r="4" class="point" cy="318.8517981812134" cx="577.3980372318435"></circle><circle r="4" class="point" cy="120.66091892310763" cx="496.1226794929805"></circle><circle r="4" class="point" cy="166.84414607457893" cx="491.9768493082584"></circle><circle r="4" class="point" cy="141.5495874687779" cx="453.8214108950153"></circle><circle r="4" class="point" cy="253.55660706320486" cx="584.9444817486002"></circle><circle r="4" class="point" cy="271.8056389667948" cx="531.7557267980561"></circle><circle r="4" class="point" cy="136.33620038486944" cx="499.4144864617844"></circle><circle r="4" class="point" cy="190.6472334905005" cx="488.0698665686753"></circle><circle r="4" class="point" cy="64.34357389601183" cx="476.0934482871396"></circle><circle r="4" class="point" cy="219.2622248753514" cx="579.2386947586878"></circle><circle r="4" class="point" cy="180.94770512244727" cx="477.83035273559494"></circle><circle r="4" class="point" cy="324.164862163271" cx="552.062047053943"></circle><circle r="4" class="point" cy="256.06475490770464" cx="635.755122848744"></circle><circle r="4" class="point" cy="176.01688647331034" cx="466.6611027674682"></circle><circle r="4" class="point" cy="112.93620145486446" cx="486.75116601488475"></circle><circle r="4" class="point" cy="289.9245116716314" cx="611.28380089976"></circle><circle r="4" class="point" cy="308.4063506710361" cx="595.7969286286833"></circle><circle r="4" class="point" cy="181.07626200987184" cx="531.5506095118149"></circle><circle r="4" class="point" cy="210.29528857449506" cx="617.830865785965"></circle><circle r="4" class="point" cy="93.81640154492344" cx="493.93609542616036"></circle><circle r="4" class="point" cy="244.91986005772762" cx="579.3443522299143"></circle><circle r="4" class="point" cy="154.96178494697128" cx="551.7096004760361"></circle><circle r="4" class="point" cy="117.64846075888161" cx="467.7541711151142"></circle><circle r="4" class="point" cy="278.80472199933945" cx="585.2600654724512"></circle><circle r="4" class="point" cy="174.7719306057909" cx="542.6159404188701"></circle><circle r="4" class="point" cy="276.57524010993694" cx="630.0771709673737"></circle><circle r="4" class="point" cy="299.20204868939106" cx="564.5773476280254"></circle><circle r="4" class="point" cy="321.5440802293565" cx="607.494852410371"></circle><circle r="4" class="point" cy="308.4611609296508" cx="538.676459250988"></circle><circle r="4" class="point" cy="251.87518497102977" cx="625.5834565589535"></circle><circle r="4" class="point" cy="313.2976880408958" cx="627.1291583918497"></circle><circle r="4" class="point" cy="268.95416205184193" cx="605.6950675745182"></circle><circle r="4" class="point" cy="217.85413160868652" cx="627.5166138259424"></circle><circle r="4" class="point" cy="57.55189470663029" cx="505.0019810219092"></circle><circle r="4" class="point" cy="383.9864763735377" cx="420.3943359909979"></circle><circle r="4" class="point" cy="130.96791757371216" cx="489.9888982265349"></circle><circle r="4" class="point" cy="286.55737565679397" cx="550.8304811045737"></circle><circle r="4" class="point" cy="294.4668325791587" cx="526.7173043704655"></circle><circle r="4" class="point" cy="201.61337831450584" cx="628.2118180616199"></circle><circle r="4" class="point" cy="297.66093405475283" cx="553.2626580431462"></circle><circle r="4" class="point" cy="276.74471454008614" cx="542.779551430123"></circle><circle r="4" class="point" cy="130.13917316627865" cx="571.016594657601"></circle><circle r="4" class="point" cy="299.1702691785427" cx="576.078286731449"></circle><circle r="4" class="point" cy="329.255101726026" cx="577.3247884622914"></circle><circle r="4" class="point" cy="284.9886872761584" cx="643.6984605442751"></circle><circle r="4" class="point" cy="307.6457551250004" cx="528.7538958164732"></circle><circle r="4" class="point" cy="268.25368561792015" cx="622.0360643186772"></circle><circle r="4" class="point" cy="247.40025285401026" cx="641.5646717040797"></circle><circle r="4" class="point" cy="316.9324493777483" cx="587.2854138018968"></circle><circle r="4" class="point" cy="274.08328514968804" cx="572.3861503902724"></circle><circle r="4" class="point" cy="264.15799775234" cx="587.0216596420511"></circle><circle r="4" class="point" cy="256.28437761448856" cx="565.6126085648283"></circle><circle r="4" class="point" cy="273.20238200836053" cx="594.2664615352762"></circle><circle r="4" class="point" cy="297.86360885251145" cx="541.1955257105742"></circle><circle r="4" class="point" cy="313.7892446581056" cx="547.2857858322976"></circle><circle r="4" class="point" cy="249.94472649595795" cx="611.3731499271569"></circle><circle r="4" class="point" cy="297.1259514793536" cx="642.2471939939918"></circle><circle r="4" class="point" cy="209.07710299095967" cx="590.8950126355528"></circle><circle r="4" class="point" cy="310.04770253950943" cx="607.2779392539118"></circle><circle r="4" class="point" cy="335.1612009749664" cx="601.7363199020017"></circle><circle r="4" class="point" cy="286.74058015514476" cx="622.5123082457744"></circle><circle r="4" class="point" cy="363.57909678890235" cx="437.0540455451178"></circle><circle r="4" class="point" cy="282.36605927509214" cx="602.0676892553131"></circle><circle r="4" class="point" cy="302.88860585115367" cx="586.2955423924026"></circle><circle r="4" class="point" cy="329.6395447192562" cx="614.3999794398875"></circle><circle r="4" class="point" cy="285.65341377766293" cx="572.7332072472801"></circle><circle r="4" class="point" cy="248.681825300554" cx="594.5311296525666"></circle><circle r="4" class="point" cy="298.59978842042204" cx="625.9046922290757"></circle><circle r="4" class="point" cy="322.9779977511766" cx="564.2634845055503"></circle><circle r="4" class="point" cy="306.031044209447" cx="617.580363103802"></circle><circle r="4" class="point" cy="199.01400501325566" cx="617.1862615178278"></circle><circle r="4" class="point" cy="267.1023853073254" cx="634.8599842315651"></circle><circle r="4" class="point" cy="285.43967696843885" cx="562.6328182955604"></circle><circle r="4" class="point" cy="252.86978666771446" cx="552.5560251909948"></circle><circle r="4" class="point" cy="334.36581555482354" cx="555.2365306879386"></circle><circle r="4" class="point" cy="263.7934368858435" cx="549.1057102929957"></circle><circle r="4" class="point" cy="262.2785729764912" cx="646.7598106318657"></circle><circle r="4" class="point" cy="321.14334805011543" cx="621.3413971385394"></circle><circle r="4" class="point" cy="277.58167768340775" cx="614.2072063807096"></circle><circle r="4" class="point" cy="323.28108997460635" cx="539.3056849469659"></circle><circle r="4" class="point" cy="336.65882372974437" cx="567.3813324031871"></circle><circle r="4" class="point" cy="219.52222162442627" cx="612.05134319327"></circle><circle r="4" class="point" cy="262.4029385185514" cx="538.240344501013"></circle><circle r="4" class="point" cy="211.0696821497225" cx="635.973342385976"></circle><circle r="4" class="point" cy="334.6398491160758" cx="589.9338611607429"></circle><circle r="4" class="point" cy="275.19870100204076" cx="555.2204223027506"></circle><circle r="4" class="point" cy="289.5800551769683" cx="633.8530792133204"></circle><circle r="4" class="point" cy="299.4359095996414" cx="605.4639000142641"></circle><circle r="4" class="point" cy="220.26971773765504" cx="592.3694130317011"></circle><circle r="4" class="point" cy="307.738459981915" cx="636.0111466879616"></circle><circle r="4" class="point" cy="287.4799934539856" cx="536.8234424525824"></circle><circle r="4" class="point" cy="292.62448785996423" cx="595.6137444271501"></circle><circle r="4" class="point" cy="310.52946093950845" cx="558.088256539487"></circle><circle r="4" class="point" cy="289.3126179139655" cx="583.6880807706067"></circle><circle r="4" class="point" cy="281.71032332461965" cx="526.3736196275404"></circle><circle r="4" class="point" cy="344.27831060161844" cx="408.3199358892257"></circle><circle r="4" class="point" cy="354.36325390166166" cx="412.7414155300082"></circle><circle r="4" class="point" cy="266.07692856599783" cx="561.9422878748036"></circle><circle r="4" class="point" cy="274.6787612920727" cx="646.9148761427514"></circle><circle r="4" class="point" cy="259.1873706607617" cx="600.043450988025"></circle><circle r="4" class="point" cy="259.6655884291555" cx="615.65589953233"></circle><circle r="4" class="point" cy="243.1610020645304" cx="603.5291686273828"></circle><circle r="4" class="point" cy="370.7226305268137" cx="400.6296959229504"></circle><circle r="4" class="point" cy="357.8286484469997" cx="401.0339120579546"></circle><circle r="4" class="point" cy="366.5878665568213" cx="426.10777015780036"></circle><circle r="4" class="point" cy="245.91867886423304" cx="566.6477723510164"></circle><circle r="4" class="point" cy="351.25368357440135" cx="433.92224119156907"></circle><circle r="4" class="point" cy="300.25008873419245" cx="383.15097200557483"></circle><circle r="4" class="point" cy="377.15295694390755" cx="432.63123783348465"></circle><circle r="4" class="point" cy="303.52562541357304" cx="411.38783554171397"></circle><circle r="4" class="point" cy="376.0664959881881" cx="391.87035600324714"></circle><circle r="4" class="point" cy="301.9718844818077" cx="395.1878578779288"></circle><circle r="4" class="point" cy="336.8606053099801" cx="387.8244469062415"></circle><circle r="4" class="point" cy="342.04495576057997" cx="398.43776284616536"></circle><circle r="4" class="point" cy="291.2631237618944" cx="395.17470121896037"></circle><circle r="4" class="point" cy="347.9277252953704" cx="377.7625796551502"></circle><circle r="4" class="point" cy="311.3841527854737" cx="387.87517369883165"></circle><circle r="4" class="point" cy="293.85752184279363" cx="407.89944080133057"></circle><circle r="4" class="point" cy="353.69324025480506" cx="423.74661865224255"></circle><circle r="4" class="point" cy="358.42680534621843" cx="388.82143264518305"></circle><circle r="4" class="point" cy="382.08097480328433" cx="406.69590415169716"></circle><circle r="4" class="point" cy="340.96541861311465" cx="425.30523059592093"></circle><circle r="4" class="point" cy="348.6775189858691" cx="389.65428721694735"></circle><circle r="4" class="point" cy="374.0213642022818" cx="417.50854340176335"></circle><circle r="4" class="point" cy="335.25915960317576" cx="412.67697633232507"></circle><circle r="4" class="point" cy="309.4207990804973" cx="419.3466216196008"></circle><circle r="4" class="point" cy="311.1554803341371" cx="402.6358406930163"></circle><circle r="4" class="point" cy="365.9202672810972" cx="382.9312871244713"></circle><circle cx="432" cy="246" r="4" class="magnet" style="fill: rgb(255, 165, 0);"></circle><circle cx="432.04777958749463" cy="186.00003804817382" r="4" class="magnet" style="fill: rgb(255, 165, 0);"></circle><circle cx="432" cy="396" r="4" class="magnet" style="fill: rgb(255, 165, 0);"></circle><circle cx="698.2406489418115" cy="271.73210635026436" r="4" class="magnet" style="fill: rgb(255, 165, 0);"></circle><circle cx="596.8683573509827" cy="70.51186309152419" r="4" class="magnet" style="fill: rgb(255, 165, 0);"></circle><circle cx="267.85336023239245" cy="70.17500121768012" r="4" class="magnet" style="fill: rgb(255, 165, 0);"></circle><circle cx="165.484553931608" cy="271.1866442344378" r="4" class="magnet" style="fill: rgb(255, 165, 0);"></circle></svg>
