<svg width="960" height="500"><defs><marker id="end" viewBox="0 -5 10 10" refX="15" refY="-1.5" markerWidth="6" markerHeight="6" orient="auto"><path d="M0,-5L10,0L0,5"></path></marker></defs><g><path class="link" marker-end="url(#end)" d="M472.9568062054578,139.11225896631126A68.71844507540399,68.71844507540399 0 0,1 478.4314886745919,70.61224038643444"></path><path class="link" marker-end="url(#end)" d="M472.9568062054578,139.11225896631126A70.66317884857986,70.66317884857986 0 0,1 495.09850180067656,206.21687997824347"></path><path class="link" marker-end="url(#end)" d="M511.8495043981358,283.57458343928533A65.93771776981076,65.93771776981076 0 0,1 554.9962354753615,233.71335379098255"></path><path class="link" marker-end="url(#end)" d="M531.5801730233737,169.74945951260972A68.11528280797377,68.11528280797377 0 0,1 554.9962354753615,233.71335379098255"></path><path class="link" marker-end="url(#end)" d="M609.2356401598647,195.0836897046355A66.58951845413304,66.58951845413304 0 0,1 554.9962354753615,233.71335379098255"></path><path class="link" marker-end="url(#end)" d="M495.09850180067656,206.21687997824347A65.90746977011125,65.90746977011125 0 0,1 554.9962354753615,233.71335379098255"></path><path class="link" marker-end="url(#end)" d="M570.3066787591832,302.348547672521A70.32211254437325,70.32211254437325 0 0,1 554.9962354753615,233.71335379098255"></path><path class="link" marker-end="url(#end)" d="M472.9568062054578,139.11225896631126A71.80111593032693,71.80111593032693 0 0,1 416.6015997125579,94.62078843562567"></path><path class="link" marker-end="url(#end)" d="M472.9568062054578,139.11225896631126A73.86826421316428,73.86826421316428 0 0,1 399.1919894582486,143.02023390436986"></path><path class="link" marker-end="url(#end)" d="M423.7955801395192,415.1574922439177A64.37033664938673,64.37033664938673 0 0,1 483.691041531047,438.7387124212406"></path><path class="link" marker-end="url(#end)" d="M554.9962354753615,233.71335379098255A65.90746977011125,65.90746977011125 0 0,1 495.09850180067656,206.21687997824347"></path><path class="link" marker-end="url(#end)" d="M472.9568062054578,139.11225896631126A71.80966298234077,71.80966298234077 0 0,1 420.8657137246499,188.54044709609485"></path><path class="link" marker-end="url(#end)" d="M511.8495043981358,283.57458343928533A61.39790686423041,61.39790686423041 0 0,1 570.3066787591832,302.348547672521"></path><path class="link" marker-end="url(#end)" d="M633.3624493492738,294.4803163737246A63.544781599132826,63.544781599132826 0 0,1 570.3066787591832,302.348547672521"></path><path class="link" marker-end="url(#end)" d="M557.9053282555464,365.69410363428284A64.54806700760878,64.54806700760878 0 0,1 570.3066787591832,302.348547672521"></path><path class="link" marker-end="url(#end)" d="M667.1805923846155,347.3575922984929A62.76681533726966,62.76681533726966 0 0,1 633.3624493492738,294.4803163737246"></path><path class="link" marker-end="url(#end)" d="M570.3066787591832,302.348547672521A63.544781599132826,63.544781599132826 0 0,1 633.3624493492738,294.4803163737246"></path><path class="link" marker-end="url(#end)" d="M554.9962354753615,233.71335379098255A66.58951845413304,66.58951845413304 0 0,1 609.2356401598647,195.0836897046355"></path><path class="link" marker-end="url(#end)" d="M632.4046896809564,134.61671149479153A64.75384397501468,64.75384397501468 0 0,1 609.2356401598647,195.0836897046355"></path><path class="link" marker-end="url(#end)" d="M554.9962354753615,233.71335379098255A68.11528280797377,68.11528280797377 0 0,1 531.5801730233737,169.74945951260972"></path><path class="link" marker-end="url(#end)" d="M472.9568062054578,139.11225896631126A66.14633167744104,66.14633167744104 0 0,1 531.5801730233737,169.74945951260972"></path><path class="link" marker-end="url(#end)" d="M531.5801730233737,169.74945951260972A66.14633167744104,66.14633167744104 0 0,1 472.9568062054578,139.11225896631126"></path><path class="link" marker-end="url(#end)" d="M358.79990069087785,298.1948975867077A64.62751605736788,64.62751605736788 0 0,1 296.67823752463664,280.37314690936364"></path><path class="link" marker-end="url(#end)" d="M310.8709869540989,346.04989375339846A67.19277648961189,67.19277648961189 0 0,1 296.67823752463664,280.37314690936364"></path><path class="link" marker-end="url(#end)" d="M570.3066787591832,302.348547672521A61.39790686423041,61.39790686423041 0 0,1 511.8495043981358,283.57458343928533"></path><path class="link" marker-end="url(#end)" d="M554.9962354753615,233.71335379098255A65.93771776981076,65.93771776981076 0 0,1 511.8495043981358,283.57458343928533"></path><path class="link" marker-end="url(#end)" d="M570.3066787591832,302.348547672521A64.54806700760878,64.54806700760878 0 0,1 557.9053282555464,365.69410363428284"></path><path class="link" marker-end="url(#end)" d="M609.2356401598647,195.0836897046355A64.75384397501468,64.75384397501468 0 0,1 632.4046896809564,134.61671149479153"></path></g><g class="node" transform="translate(472.9568062054578,139.11225896631126)"><circle r="5"></circle><text x="12" dy=".35em">Harry</text></g><g class="node" transform="translate(478.4314886745919,70.61224038643444)"><circle r="5"></circle><text x="12" dy=".35em">Sally</text></g><g class="node" transform="translate(495.09850180067656,206.21687997824347)"><circle r="5"></circle><text x="12" dy=".35em">Mario</text></g><g class="node" transform="translate(511.8495043981358,283.57458343928533)"><circle r="5"></circle><text x="12" dy=".35em">Sarah</text></g><g class="node" transform="translate(554.9962354753615,233.71335379098255)"><circle r="5"></circle><text x="12" dy=".35em">Alice</text></g><g class="node" transform="translate(531.5801730233737,169.74945951260972)"><circle r="5"></circle><text x="12" dy=".35em">Eveie</text></g><g class="node" transform="translate(609.2356401598647,195.0836897046355)"><circle r="5"></circle><text x="12" dy=".35em">Peter</text></g><g class="node" transform="translate(570.3066787591832,302.348547672521)"><circle r="5"></circle><text x="12" dy=".35em">James</text></g><g class="node" transform="translate(416.6015997125579,94.62078843562567)"><circle r="5"></circle><text x="12" dy=".35em">Carol</text></g><g class="node" transform="translate(399.1919894582486,143.02023390436986)"><circle r="5"></circle><text x="12" dy=".35em">Nicky</text></g><g class="node" transform="translate(423.7955801395192,415.1574922439177)"><circle r="5"></circle><text x="12" dy=".35em">Bobby</text></g><g class="node" transform="translate(483.691041531047,438.7387124212406)"><circle r="5"></circle><text x="12" dy=".35em">Frank</text></g><g class="node" transform="translate(420.8657137246499,188.54044709609485)"><circle r="5"></circle><text x="12" dy=".35em">Lynne</text></g><g class="node" transform="translate(633.3624493492738,294.4803163737246)"><circle r="5"></circle><text x="12" dy=".35em">Roger</text></g><g class="node" transform="translate(557.9053282555464,365.69410363428284)"><circle r="5"></circle><text x="12" dy=".35em">Maddy</text></g><g class="node" transform="translate(667.1805923846155,347.3575922984929)"><circle r="5"></circle><text x="12" dy=".35em">Sonny</text></g><g class="node" transform="translate(632.4046896809564,134.61671149479153)"><circle r="5"></circle><text x="12" dy=".35em">Johan</text></g><g class="node" transform="translate(358.79990069087785,298.1948975867077)"><circle r="5"></circle><text x="12" dy=".35em">Henry</text></g><g class="node" transform="translate(296.67823752463664,280.37314690936364)"><circle r="5"></circle><text x="12" dy=".35em">Mikey</text></g><g class="node" transform="translate(310.8709869540989,346.04989375339846)"><circle r="5"></circle><text x="12" dy=".35em">Elric</text></g></svg>
