<svg width="500" height="500"><g class="radar-chart"><g class="level-group level-group-0"><line class="level" x1="118.75" y1="0" x2="92.32563909268767" y2="2.9773104284084453" transform="translate(131.25, 131.25)"></line><line class="level" x1="92.32563909268767" y1="2.9773104284084453" x2="67.22630597978998" y2="11.759946936587726" transform="translate(131.25, 131.25)"></line><line class="level" x1="67.22630597978998" y1="11.759946936587726" x2="44.7105860292754" y2="25.907511456921462" transform="translate(131.25, 131.25)"></line><line class="level" x1="44.7105860292754" y1="25.907511456921462" x2="25.907511456921462" y2="44.71058602927538" transform="translate(131.25, 131.25)"></line><line class="level" x1="25.907511456921462" y1="44.71058602927538" x2="11.759946936587726" y2="67.22630597978997" transform="translate(131.25, 131.25)"></line><line class="level" x1="11.759946936587726" y1="67.22630597978997" x2="2.9773104284084453" y2="92.32563909268767" transform="translate(131.25, 131.25)"></line><line class="level" x1="2.9773104284084453" y1="92.32563909268767" x2="0" y2="118.74999999999999" transform="translate(131.25, 131.25)"></line><line class="level" x1="0" y1="118.74999999999999" x2="2.9773104284084453" y2="145.17436090731232" transform="translate(131.25, 131.25)"></line><line class="level" x1="2.9773104284084453" y1="145.17436090731232" x2="11.759946936587726" y2="170.27369402021003" transform="translate(131.25, 131.25)"></line><line class="level" x1="11.759946936587726" y1="170.27369402021003" x2="25.907511456921448" y2="192.78941397072458" transform="translate(131.25, 131.25)"></line><line class="level" x1="25.907511456921448" y1="192.78941397072458" x2="44.71058602927535" y2="211.5924885430785" transform="translate(131.25, 131.25)"></line><line class="level" x1="44.71058602927535" y1="211.5924885430785" x2="67.22630597978996" y2="225.74005306341226" transform="translate(131.25, 131.25)"></line><line class="level" x1="67.22630597978996" y1="225.74005306341226" x2="92.3256390926877" y2="234.52268957159157" transform="translate(131.25, 131.25)"></line><line class="level" x1="92.3256390926877" y1="234.52268957159157" x2="118.74999999999999" y2="237.5" transform="translate(131.25, 131.25)"></line><line class="level" x1="118.74999999999999" y1="237.5" x2="145.17436090731226" y2="234.52268957159157" transform="translate(131.25, 131.25)"></line><line class="level" x1="145.17436090731226" y1="234.52268957159157" x2="170.27369402021003" y2="225.74005306341226" transform="translate(131.25, 131.25)"></line><line class="level" x1="170.27369402021003" y1="225.74005306341226" x2="192.78941397072464" y2="211.5924885430785" transform="translate(131.25, 131.25)"></line><line class="level" x1="192.78941397072464" y1="211.5924885430785" x2="211.59248854307853" y2="192.78941397072464" transform="translate(131.25, 131.25)"></line><line class="level" x1="211.59248854307853" y1="192.78941397072464" x2="225.74005306341226" y2="170.27369402021006" transform="translate(131.25, 131.25)"></line><line class="level" x1="225.74005306341226" y1="170.27369402021006" x2="234.52268957159154" y2="145.17436090731235" transform="translate(131.25, 131.25)"></line><line class="level" x1="234.52268957159154" y1="145.17436090731235" x2="237.5" y2="118.75000000000003" transform="translate(131.25, 131.25)"></line><line class="level" x1="237.5" y1="118.75000000000003" x2="234.5226895715916" y2="92.3256390926878" transform="translate(131.25, 131.25)"></line><line class="level" x1="234.5226895715916" y1="92.3256390926878" x2="225.7400530634123" y2="67.22630597979" transform="translate(131.25, 131.25)"></line><line class="level" x1="225.7400530634123" y1="67.22630597979" x2="211.59248854307856" y2="44.71058602927541" transform="translate(131.25, 131.25)"></line><line class="level" x1="211.59248854307856" y1="44.71058602927541" x2="192.78941397072464" y2="25.907511456921473" transform="translate(131.25, 131.25)"></line><line class="level" x1="192.78941397072464" y1="25.907511456921473" x2="170.27369402020997" y2="11.759946936587687" transform="translate(131.25, 131.25)"></line><line class="level" x1="170.27369402020997" y1="11.759946936587687" x2="145.17436090731235" y2="2.977310428408458" transform="translate(131.25, 131.25)"></line><line class="level" x1="145.17436090731235" y1="2.977310428408458" x2="118.75000000000003" y2="0" transform="translate(131.25, 131.25)"></line></g><g class="level-group level-group-1"><line class="level" x1="237.5" y1="0" x2="184.65127818537533" y2="5.954620856816891" transform="translate(12.5, 12.5)"></line><line class="level" x1="184.65127818537533" y1="5.954620856816891" x2="134.45261195957997" y2="23.51989387317545" transform="translate(12.5, 12.5)"></line><line class="level" x1="134.45261195957997" y1="23.51989387317545" x2="89.4211720585508" y2="51.815022913842924" transform="translate(12.5, 12.5)"></line><line class="level" x1="89.4211720585508" y1="51.815022913842924" x2="51.815022913842924" y2="89.42117205855077" transform="translate(12.5, 12.5)"></line><line class="level" x1="51.815022913842924" y1="89.42117205855077" x2="23.51989387317545" y2="134.45261195957994" transform="translate(12.5, 12.5)"></line><line class="level" x1="23.51989387317545" y1="134.45261195957994" x2="5.954620856816891" y2="184.65127818537533" transform="translate(12.5, 12.5)"></line><line class="level" x1="5.954620856816891" y1="184.65127818537533" x2="0" y2="237.49999999999997" transform="translate(12.5, 12.5)"></line><line class="level" x1="0" y1="237.49999999999997" x2="5.954620856816891" y2="290.34872181462464" transform="translate(12.5, 12.5)"></line><line class="level" x1="5.954620856816891" y1="290.34872181462464" x2="23.51989387317545" y2="340.54738804042006" transform="translate(12.5, 12.5)"></line><line class="level" x1="23.51989387317545" y1="340.54738804042006" x2="51.815022913842895" y2="385.57882794144916" transform="translate(12.5, 12.5)"></line><line class="level" x1="51.815022913842895" y1="385.57882794144916" x2="89.4211720585507" y2="423.184977086157" transform="translate(12.5, 12.5)"></line><line class="level" x1="89.4211720585507" y1="423.184977086157" x2="134.4526119595799" y2="451.4801061268245" transform="translate(12.5, 12.5)"></line><line class="level" x1="134.4526119595799" y1="451.4801061268245" x2="184.6512781853754" y2="469.04537914318314" transform="translate(12.5, 12.5)"></line><line class="level" x1="184.6512781853754" y1="469.04537914318314" x2="237.49999999999997" y2="475" transform="translate(12.5, 12.5)"></line><line class="level" x1="237.49999999999997" y1="475" x2="290.3487218146245" y2="469.04537914318314" transform="translate(12.5, 12.5)"></line><line class="level" x1="290.3487218146245" y1="469.04537914318314" x2="340.54738804042006" y2="451.4801061268245" transform="translate(12.5, 12.5)"></line><line class="level" x1="340.54738804042006" y1="451.4801061268245" x2="385.5788279414493" y2="423.184977086157" transform="translate(12.5, 12.5)"></line><line class="level" x1="385.5788279414493" y1="423.184977086157" x2="423.18497708615706" y2="385.5788279414493" transform="translate(12.5, 12.5)"></line><line class="level" x1="423.18497708615706" y1="385.5788279414493" x2="451.4801061268245" y2="340.5473880404201" transform="translate(12.5, 12.5)"></line><line class="level" x1="451.4801061268245" y1="340.5473880404201" x2="469.0453791431831" y2="290.3487218146247" transform="translate(12.5, 12.5)"></line><line class="level" x1="469.0453791431831" y1="290.3487218146247" x2="475" y2="237.50000000000006" transform="translate(12.5, 12.5)"></line><line class="level" x1="475" y1="237.50000000000006" x2="469.0453791431832" y2="184.6512781853756" transform="translate(12.5, 12.5)"></line><line class="level" x1="469.0453791431832" y1="184.6512781853756" x2="451.4801061268246" y2="134.45261195958" transform="translate(12.5, 12.5)"></line><line class="level" x1="451.4801061268246" y1="134.45261195958" x2="423.1849770861571" y2="89.42117205855082" transform="translate(12.5, 12.5)"></line><line class="level" x1="423.1849770861571" y1="89.42117205855082" x2="385.5788279414493" y2="51.815022913842945" transform="translate(12.5, 12.5)"></line><line class="level" x1="385.5788279414493" y1="51.815022913842945" x2="340.54738804041995" y2="23.519893873175373" transform="translate(12.5, 12.5)"></line><line class="level" x1="340.54738804041995" y1="23.519893873175373" x2="290.3487218146247" y2="5.954620856816916" transform="translate(12.5, 12.5)"></line><line class="level" x1="290.3487218146247" y1="5.954620856816916" x2="237.50000000000006" y2="0" transform="translate(12.5, 12.5)"></line></g><g class="axis"><line x1="250" y1="250" x2="250" y2="12.50000000000001"></line></g><g class="axis"><line x1="250" y1="250" x2="197.15127818537533" y2="18.4546208568169"></line></g><g class="axis"><line x1="250" y1="250" x2="146.95261195957994" y2="36.01989387317548"></line></g><g class="axis"><line x1="250" y1="250" x2="101.92117205855081" y2="64.31502291384292"></line></g><g class="axis"><line x1="250" y1="250" x2="64.31502291384292" y2="101.92117205855078"></line></g><g class="axis"><line x1="250" y1="250" x2="36.01989387317548" y2="146.95261195957994"></line></g><g class="axis"><line x1="250" y1="250" x2="18.4546208568169" y2="197.1512781853753"></line></g><g class="axis"><line x1="250" y1="250" x2="12.50000000000001" y2="249.99999999999997"></line></g><g class="axis"><line x1="250" y1="250" x2="18.4546208568169" y2="302.84872181462464"></line></g><g class="axis"><line x1="250" y1="250" x2="36.01989387317548" y2="353.04738804042"></line></g><g class="axis"><line x1="250" y1="250" x2="64.31502291384292" y2="398.0788279414492"></line></g><g class="axis"><line x1="250" y1="250" x2="101.9211720585507" y2="435.684977086157"></line></g><g class="axis"><line x1="250" y1="250" x2="146.95261195957994" y2="463.9801061268245"></line></g><g class="axis"><line x1="250" y1="250" x2="197.15127818537542" y2="481.54537914318314"></line></g><g class="axis"><line x1="250" y1="250" x2="249.99999999999997" y2="487.5"></line></g><g class="axis"><line x1="250" y1="250" x2="302.8487218146245" y2="481.54537914318314"></line></g><g class="axis"><line x1="250" y1="250" x2="353.04738804042" y2="463.9801061268245"></line></g><g class="axis"><line x1="250" y1="250" x2="398.0788279414493" y2="435.68497708615706"></line></g><g class="axis"><line x1="250" y1="250" x2="435.68497708615706" y2="398.0788279414492"></line></g><g class="axis"><line x1="250" y1="250" x2="463.9801061268245" y2="353.04738804042006"></line></g><g class="axis"><line x1="250" y1="250" x2="481.5453791431831" y2="302.8487218146247"></line></g><g class="axis"><line x1="250" y1="250" x2="487.5" y2="250.00000000000006"></line></g><g class="axis"><line x1="250" y1="250" x2="481.5453791431832" y2="197.1512781853756"></line></g><g class="axis"><line x1="250" y1="250" x2="463.9801061268246" y2="146.95261195957997"></line></g><g class="axis"><line x1="250" y1="250" x2="435.68497708615706" y2="101.92117205855084"></line></g><g class="axis"><line x1="250" y1="250" x2="398.0788279414492" y2="64.31502291384294"></line></g><g class="axis"><line x1="250" y1="250" x2="353.0473880404199" y2="36.01989387317539"></line></g><g class="axis"><line x1="250" y1="250" x2="302.84872181462475" y2="18.454620856816927"></line></g><polygon class="area radar-chart-serie0 reagan" points="250,213.87625 197.15127818537533,18.4546208568169 174.89906359614187,94.05129865477028 140.67340133082806,112.90878141729024 119.07352265655064,145.58961841848415 114.99995104458641,184.98740288529896 137.0984731297839,224.230963243189 145.69,250 250,250 122.36086669534915,311.46776696611056 121.59883834492236,352.39650952151214 122.20797148652926,410.24613522535344 230.26642519025955,290.9771903232869 197.15127818537542,481.54537914318314 249.99999999999997,487.5 302.8487218146245,481.54537914318314 353.04738804042,463.9801061268245 398.0788279414493,435.68497708615706 435.68497708615706,398.0788279414492 463.9801061268245,353.04738804042006 481.5453791431831,302.8487218146247 487.5,250.00000000000006 481.5453791431832,197.1512781853756 453.28110082048335,152.104981361601 435.68497708615706,101.92117205855084 390.06776334981686,74.36058017420405 353.0473880404199,36.01989387317539 302.84872181462475,18.454620856816927" style="stroke: rgb(31, 119, 180); fill: rgb(31, 119, 180);"></polygon><polygon class="area radar-chart-serie1 santamonica" points="250,12.50000000000001 197.15127818537533,18.4546208568169 146.95261195957994,36.01989387317548 110.33204948562513,74.86192961233668 145.7378853661228,166.8537381108763 55.68466562623062,156.42266692049455 153.07510429066357,227.87752504839813 120.18250000000002,250 63.93013332053807,292.46923285023234 97.88154255444043,323.2563881579346 135.43236913784108,341.36463683987415 123.85164647667935,408.18503197969716 198.62057232304656,356.69048091483467 197.15127818537542,481.54537914318314 249.99999999999997,487.5 299.0753230770604,465.0130390723598 353.04738804042,463.9801061268245 398.0788279414493,435.68497708615706 435.68497708615706,398.0788279414492 463.9801061268245,353.04738804042006 481.5453791431831,302.8487218146247 487.5,250.00000000000006 462.21133998472743,201.5641464568967 463.9801061268246,146.95261195957997 420.21741849488023,114.25613842607355 394.0806995870301,69.3285172951692 353.0473880404199,36.01989387317539 302.84872181462475,18.454620856816927" style="stroke: rgb(255, 127, 14); fill: rgb(255, 127, 14);"></polygon><polygon class="area radar-chart-serie2 davis" points="250,52.28125 197.15127818537533,18.4546208568169 146.95261195957994,36.01989387317548 132.5734894424308,102.75181317067747 103.40171059047901,133.09176534022586 87.82447756647969,171.90038460416562 61.336825074134374,206.9388614654438 135.78625,250 204.52448753627883,260.3794889643923 122.23247863167308,311.52959539893476 211.02472330961564,281.0817459849102 127.70169600315701,403.35722257545706 222.42451896038358,307.26107639953824 197.15127818537542,481.54537914318314 249.99999999999997,487.5 302.8487218146245,481.54537914318314 353.04738804042,463.9801061268245 398.0788279414493,435.68497708615706 435.68497708615706,398.0788279414492 463.9801061268245,353.04738804042006 481.5453791431831,302.8487218146247 487.5,250.00000000000006 481.5453791431832,197.1512781853756 442.58209551414205,157.257350763622 427.94191354166435,108.09605918370926 390.06776334981686,74.36058017420405 349.7189574067143,42.93145130107182 295.95724848999765,48.648138297088025" style="stroke: rgb(44, 160, 44); fill: rgb(44, 160, 44);"></polygon><g class="circle-group reagan"><circle class="0" cy="213.87625" cx="250" r="10" style="fill: rgb(31, 119, 180);" stroke-width="3" stroke="black"></circle><circle class="1" cy="18.4546208568169" cx="197.15127818537533" r="5" style="fill: rgb(31, 119, 180);" stroke-width="0"></circle><circle class="2" cy="94.05129865477028" cx="174.89906359614187" r="5" style="fill: rgb(31, 119, 180);" stroke-width="0"></circle><circle class="3" cy="112.90878141729024" cx="140.67340133082806" r="5" style="fill: rgb(31, 119, 180);" stroke-width="0"></circle><circle class="4" cy="145.58961841848415" cx="119.07352265655064" r="5" style="fill: rgb(31, 119, 180);" stroke-width="0"></circle><circle class="5" cy="184.98740288529896" cx="114.99995104458641" r="5" style="fill: rgb(31, 119, 180);" stroke-width="0"></circle><circle class="6" cy="224.230963243189" cx="137.0984731297839" r="5" style="fill: rgb(31, 119, 180);" stroke-width="0"></circle><circle class="7" cy="250" cx="145.69" r="5" style="fill: rgb(31, 119, 180);" stroke-width="0"></circle><circle class="8" cy="250" cx="250" r="5" style="fill: rgb(31, 119, 180);" stroke-width="0"></circle><circle class="9" cy="311.46776696611056" cx="122.36086669534915" r="5" style="fill: rgb(31, 119, 180);" stroke-width="0"></circle><circle class="10" cy="352.39650952151214" cx="121.59883834492236" r="5" style="fill: rgb(31, 119, 180);" stroke-width="0"></circle><circle class="11" cy="410.24613522535344" cx="122.20797148652926" r="5" style="fill: rgb(31, 119, 180);" stroke-width="0"></circle><circle class="12" cy="290.9771903232869" cx="230.26642519025955" r="5" style="fill: rgb(31, 119, 180);" stroke-width="0"></circle><circle class="13" cy="481.54537914318314" cx="197.15127818537542" r="5" style="fill: rgb(31, 119, 180);" stroke-width="0"></circle><circle class="14" cy="487.5" cx="249.99999999999997" r="5" style="fill: rgb(31, 119, 180);" stroke-width="0"></circle><circle class="15" cy="481.54537914318314" cx="302.8487218146245" r="5" style="fill: rgb(31, 119, 180);" stroke-width="0"></circle><circle class="16" cy="463.9801061268245" cx="353.04738804042" r="5" style="fill: rgb(31, 119, 180);" stroke-width="0"></circle><circle class="17" cy="435.68497708615706" cx="398.0788279414493" r="5" style="fill: rgb(31, 119, 180);" stroke-width="0"></circle><circle class="18" cy="398.0788279414492" cx="435.68497708615706" r="5" style="fill: rgb(31, 119, 180);" stroke-width="0"></circle><circle class="19" cy="353.04738804042006" cx="463.9801061268245" r="5" style="fill: rgb(31, 119, 180);" stroke-width="0"></circle><circle class="20" cy="302.8487218146247" cx="481.5453791431831" r="5" style="fill: rgb(31, 119, 180);" stroke-width="0"></circle><circle class="21" cy="250.00000000000006" cx="487.5" r="5" style="fill: rgb(31, 119, 180);" stroke-width="0"></circle><circle class="22" cy="197.1512781853756" cx="481.5453791431832" r="5" style="fill: rgb(31, 119, 180);" stroke-width="0"></circle><circle class="23" cy="152.104981361601" cx="453.28110082048335" r="5" style="fill: rgb(31, 119, 180);" stroke-width="0"></circle><circle class="24" cy="101.92117205855084" cx="435.68497708615706" r="5" style="fill: rgb(31, 119, 180);" stroke-width="0"></circle><circle class="25" cy="74.36058017420405" cx="390.06776334981686" r="5" style="fill: rgb(31, 119, 180);" stroke-width="0"></circle><circle class="26" cy="36.01989387317539" cx="353.0473880404199" r="5" style="fill: rgb(31, 119, 180);" stroke-width="0"></circle><circle class="27" cy="18.454620856816927" cx="302.84872181462475" r="5" style="fill: rgb(31, 119, 180);" stroke-width="0"></circle></g><g class="circle-group santamonica"><circle class="28" cy="12.50000000000001" cx="250" r="5" style="fill: rgb(255, 127, 14);" stroke-width="0"></circle><circle class="29" cy="18.4546208568169" cx="197.15127818537533" r="5" style="fill: rgb(255, 127, 14);" stroke-width="0"></circle><circle class="30" cy="36.01989387317548" cx="146.95261195957994" r="5" style="fill: rgb(255, 127, 14);" stroke-width="0"></circle><circle class="31" cy="74.86192961233668" cx="110.33204948562513" r="5" style="fill: rgb(255, 127, 14);" stroke-width="0"></circle><circle class="32" cy="166.8537381108763" cx="145.7378853661228" r="5" style="fill: rgb(255, 127, 14);" stroke-width="0"></circle><circle class="33" cy="156.42266692049455" cx="55.68466562623062" r="5" style="fill: rgb(255, 127, 14);" stroke-width="0"></circle><circle class="34" cy="227.87752504839813" cx="153.07510429066357" r="5" style="fill: rgb(255, 127, 14);" stroke-width="0"></circle><circle class="35" cy="250" cx="120.18250000000002" r="5" style="fill: rgb(255, 127, 14);" stroke-width="0"></circle><circle class="36" cy="292.46923285023234" cx="63.93013332053807" r="5" style="fill: rgb(255, 127, 14);" stroke-width="0"></circle><circle class="37" cy="323.2563881579346" cx="97.88154255444043" r="5" style="fill: rgb(255, 127, 14);" stroke-width="0"></circle><circle class="38" cy="341.36463683987415" cx="135.43236913784108" r="5" style="fill: rgb(255, 127, 14);" stroke-width="0"></circle><circle class="39" cy="408.18503197969716" cx="123.85164647667935" r="5" style="fill: rgb(255, 127, 14);" stroke-width="0"></circle><circle class="40" cy="356.69048091483467" cx="198.62057232304656" r="5" style="fill: rgb(255, 127, 14);" stroke-width="0"></circle><circle class="41" cy="481.54537914318314" cx="197.15127818537542" r="5" style="fill: rgb(255, 127, 14);" stroke-width="0"></circle><circle class="42" cy="487.5" cx="249.99999999999997" r="5" style="fill: rgb(255, 127, 14);" stroke-width="0"></circle><circle class="43" cy="465.0130390723598" cx="299.0753230770604" r="5" style="fill: rgb(255, 127, 14);" stroke-width="0"></circle><circle class="44" cy="463.9801061268245" cx="353.04738804042" r="5" style="fill: rgb(255, 127, 14);" stroke-width="0"></circle><circle class="45" cy="435.68497708615706" cx="398.0788279414493" r="5" style="fill: rgb(255, 127, 14);" stroke-width="0"></circle><circle class="46" cy="398.0788279414492" cx="435.68497708615706" r="5" style="fill: rgb(255, 127, 14);" stroke-width="0"></circle><circle class="47" cy="353.04738804042006" cx="463.9801061268245" r="5" style="fill: rgb(255, 127, 14);" stroke-width="0"></circle><circle class="48" cy="302.8487218146247" cx="481.5453791431831" r="5" style="fill: rgb(255, 127, 14);" stroke-width="0"></circle><circle class="49" cy="250.00000000000006" cx="487.5" r="5" style="fill: rgb(255, 127, 14);" stroke-width="0"></circle><circle class="50" cy="201.5641464568967" cx="462.21133998472743" r="5" style="fill: rgb(255, 127, 14);" stroke-width="0"></circle><circle class="51" cy="146.95261195957997" cx="463.9801061268246" r="5" style="fill: rgb(255, 127, 14);" stroke-width="0"></circle><circle class="52" cy="114.25613842607355" cx="420.21741849488023" r="5" style="fill: rgb(255, 127, 14);" stroke-width="0"></circle><circle class="53" cy="69.3285172951692" cx="394.0806995870301" r="5" style="fill: rgb(255, 127, 14);" stroke-width="0" stroke="black"></circle><circle class="54" cy="36.01989387317539" cx="353.0473880404199" r="5" style="fill: rgb(255, 127, 14);" stroke-width="0"></circle><circle class="55" cy="18.454620856816927" cx="302.84872181462475" r="5" style="fill: rgb(255, 127, 14);" stroke-width="0"></circle></g><g class="circle-group davis"><circle class="56" cy="52.28125" cx="250" r="5" style="fill: rgb(44, 160, 44);" stroke-width="0"></circle><circle class="57" cy="18.4546208568169" cx="197.15127818537533" r="5" style="fill: rgb(44, 160, 44);" stroke-width="0"></circle><circle class="58" cy="36.01989387317548" cx="146.95261195957994" r="5" style="fill: rgb(44, 160, 44);" stroke-width="0"></circle><circle class="59" cy="102.75181317067747" cx="132.5734894424308" r="5" style="fill: rgb(44, 160, 44);" stroke-width="0"></circle><circle class="60" cy="133.09176534022586" cx="103.40171059047901" r="5" style="fill: rgb(44, 160, 44);" stroke-width="0"></circle><circle class="61" cy="171.90038460416562" cx="87.82447756647969" r="5" style="fill: rgb(44, 160, 44);" stroke-width="0"></circle><circle class="62" cy="206.9388614654438" cx="61.336825074134374" r="5" style="fill: rgb(44, 160, 44);" stroke-width="0"></circle><circle class="63" cy="250" cx="135.78625" r="5" style="fill: rgb(44, 160, 44);" stroke-width="0"></circle><circle class="64" cy="260.3794889643923" cx="204.52448753627883" r="5" style="fill: rgb(44, 160, 44);" stroke-width="0"></circle><circle class="65" cy="311.52959539893476" cx="122.23247863167308" r="5" style="fill: rgb(44, 160, 44);" stroke-width="0"></circle><circle class="66" cy="281.0817459849102" cx="211.02472330961564" r="5" style="fill: rgb(44, 160, 44);" stroke-width="0"></circle><circle class="67" cy="403.35722257545706" cx="127.70169600315701" r="5" style="fill: rgb(44, 160, 44);" stroke-width="0"></circle><circle class="68" cy="307.26107639953824" cx="222.42451896038358" r="5" style="fill: rgb(44, 160, 44);" stroke-width="0"></circle><circle class="69" cy="481.54537914318314" cx="197.15127818537542" r="5" style="fill: rgb(44, 160, 44);" stroke-width="0"></circle><circle class="70" cy="487.5" cx="249.99999999999997" r="5" style="fill: rgb(44, 160, 44);" stroke-width="0"></circle><circle class="71" cy="481.54537914318314" cx="302.8487218146245" r="5" style="fill: rgb(44, 160, 44);" stroke-width="0"></circle><circle class="72" cy="463.9801061268245" cx="353.04738804042" r="5" style="fill: rgb(44, 160, 44);" stroke-width="0"></circle><circle class="73" cy="435.68497708615706" cx="398.0788279414493" r="5" style="fill: rgb(44, 160, 44);" stroke-width="0"></circle><circle class="74" cy="398.0788279414492" cx="435.68497708615706" r="5" style="fill: rgb(44, 160, 44);" stroke-width="0"></circle><circle class="75" cy="353.04738804042006" cx="463.9801061268245" r="5" style="fill: rgb(44, 160, 44);" stroke-width="0"></circle><circle class="76" cy="302.8487218146247" cx="481.5453791431831" r="5" style="fill: rgb(44, 160, 44);" stroke-width="0"></circle><circle class="77" cy="250.00000000000006" cx="487.5" r="5" style="fill: rgb(44, 160, 44);" stroke-width="0"></circle><circle class="78" cy="197.1512781853756" cx="481.5453791431832" r="5" style="fill: rgb(44, 160, 44);" stroke-width="0"></circle><circle class="79" cy="157.257350763622" cx="442.58209551414205" r="5" style="fill: rgb(44, 160, 44);" stroke-width="0"></circle><circle class="80" cy="108.09605918370926" cx="427.94191354166435" r="5" style="fill: rgb(44, 160, 44);" stroke-width="0"></circle><circle class="81" cy="74.36058017420405" cx="390.06776334981686" r="5" style="fill: rgb(44, 160, 44);" stroke-width="0"></circle><circle class="82" cy="42.93145130107182" cx="349.7189574067143" r="5" style="fill: rgb(44, 160, 44);" stroke-width="0"></circle><circle class="83" cy="48.648138297088025" cx="295.95724848999765" r="5" style="fill: rgb(44, 160, 44);" stroke-width="0"></circle></g><text class="tooltip"></text></g></svg>
