<svg width="800" height="650"><line class="link" x1="400" y1="325" x2="380.5947964380284" y2="265.9851090616717"></line><line class="link" x1="400" y1="325" x2="565.7297235144252" y2="12.09056615743836"></line><line class="link" x1="400" y1="325" x2="551.4631158316918" y2="12.012971644727509"></line><line class="link" x1="400" y1="325" x2="262.03848996091784" y2="363.8705757284958"></line><line class="link" x1="400" y1="325" x2="347.74914632947065" y2="147.86577172935606"></line><line class="link" x1="400" y1="325" x2="570.8748598743293" y2="66.69545490586215"></line><line class="link" x1="400" y1="325" x2="486.8365303870158" y2="116.69947953613064"></line><line class="link" x1="400" y1="325" x2="240.65845233719347" y2="112.56477122856043"></line><line class="link" x1="400" y1="325" x2="453.1540596620396" y2="336.7274245989525"></line><line class="link" x1="400" y1="325" x2="337.5623520014392" y2="19.915205958229176"></line><line class="link" x1="400" y1="325" x2="530.5443041666817" y2="446.52559416116617"></line><line class="link" x1="400" y1="325" x2="428.97832649104515" y2="245.23474867714802"></line><line class="link" x1="400" y1="325" x2="331.3400885473078" y2="405.5833493327928"></line><line class="link" x1="400" y1="325" x2="365.3458291206303" y2="362.5586428072507"></line><line class="link" x1="400" y1="325" x2="500.094788226713" y2="30.22013742332782"></line><line class="link" x1="400" y1="325" x2="534.9332956700758" y2="274.359925461045"></line><line class="link" x1="400" y1="325" x2="464.5088598419869" y2="108.84309078716208"></line><line class="link" x1="400" y1="325" x2="461.77396835967545" y2="194.28820081301217"></line><line class="link" x1="400" y1="325" x2="423.1224249696389" y2="13.908496465985063"></line><line class="link" x1="400" y1="325" x2="462.6650481365071" y2="318.58936545818506"></line><line class="link" x1="400" y1="325" x2="454.34035228476284" y2="307.96818961875186"></line><line class="link" x1="400" y1="325" x2="317.2754953635741" y2="305.50888063532256"></line><line class="link" x1="400" y1="325" x2="253.15034667402153" y2="10.185029485130181"></line><line class="link" x1="400" y1="325" x2="400.659593075516" y2="13.068027626147124"></line><line class="link" x1="400" y1="325" x2="335.2333579834372" y2="109.1155228508874"></line><line class="link" x1="400" y1="325" x2="176.78180161506637" y2="111.82383566281204"></line><line class="link" x1="400" y1="325" x2="441.15124114171635" y2="348.1925401000506"></line><line class="link" x1="400" y1="325" x2="384.69167013961044" y2="181.37491341593625"></line><line class="link" x1="400" y1="325" x2="539.2875482320293" y2="287.9535879814017"></line><line class="link" x1="400" y1="325" x2="336.452088645369" y2="341.32746769315787"></line><line class="link" x1="400" y1="325" x2="205.42820204478107" y2="84.80449405502391"></line><line class="link" x1="400" y1="325" x2="384.33883656417504" y2="295.37485862291896"></line><line class="link" x1="400" y1="325" x2="453.6385409742684" y2="273.1166648188019"></line><line class="link" x1="400" y1="325" x2="267.57196204106594" y2="266.51301433231015"></line><line class="link" x1="400" y1="325" x2="731.3615481613234" y2="113.7078200657613"></line><line class="link" x1="400" y1="325" x2="430.7861674459932" y2="291.3119991527294"></line><line class="link" x1="400" y1="325" x2="521.3479479837245" y2="85.8752146861447"></line><line class="link" x1="400" y1="325" x2="467.4567900488842" y2="65.59667455152463"></line><line class="link" x1="400" y1="325" x2="361.15579249643645" y2="225.9329232424738"></line><line class="link" x1="400" y1="325" x2="386.18275423334836" y2="388.1760416517619"></line><line class="link" x1="400" y1="325" x2="326.34437295026595" y2="302.64186923494674"></line><line class="link" x1="400" y1="325" x2="548.9969371356789" y2="216.30309106285924"></line><line class="link" x1="400" y1="325" x2="73.7913921881888" y2="105.38876390121301"></line><line class="link" x1="400" y1="325" x2="299.6463133774992" y2="123.11761015802989"></line><line class="link" x1="400" y1="325" x2="347.7894990162967" y2="318.8460200997487"></line><line class="link" x1="400" y1="325" x2="421.7319397428514" y2="142.1390438195562"></line><line class="link" x1="400" y1="325" x2="358.32507909119283" y2="317.07375975594414"></line><line class="link" x1="400" y1="325" x2="441.1388273862823" y2="103.1631535404495"></line><line class="link" x1="400" y1="325" x2="341.054862916482" y2="384.10370459055076"></line><line class="link" x1="400" y1="325" x2="455.72014968548785" y2="388.73477797158404"></line><line class="link" x1="400" y1="325" x2="140.75192306398236" y2="160.1191205916524"></line><line class="link" x1="400" y1="325" x2="327.83557901625886" y2="349.9223972832561"></line><line class="link" x1="400" y1="325" x2="377.5765476297012" y2="243.32430715878525"></line><line class="link" x1="400" y1="325" x2="417.57679265077945" y2="367.5013850626432"></line><line class="link" x1="400" y1="325" x2="428.979591861239" y2="273.34647612970446"></line><line class="link" x1="400" y1="325" x2="470.97482781620783" y2="354.2737343454947"></line><line class="link" x1="400" y1="325" x2="318.330799946955" y2="159.2201886419556"></line><line class="link" x1="400" y1="325" x2="421.71135398227125" y2="407.0608657533488"></line><line class="link" x1="400" y1="325" x2="231.4838804752016" y2="65.50664573112617"></line><line class="link" x1="400" y1="325" x2="633.57032288958" y2="122.84489927523275"></line><line class="link" x1="400" y1="325" x2="416.7120211036962" y2="181.7059260297708"></line><line class="link" x1="400" y1="325" x2="256.19220427942236" y2="311.72481446296575"></line><line class="link" x1="400" y1="325" x2="321.9803494127256" y2="203.16944250962783"></line><line class="link" x1="400" y1="325" x2="361.8098528232192" y2="249.19252223792955"></line><line class="link" x1="400" y1="325" x2="451.93018930434863" y2="316.830443974002"></line><line class="link" x1="400" y1="325" x2="330.7007857703553" y2="322.17576561614305"></line><line class="link" x1="400" y1="325" x2="478.2948573069136" y2="360.15793615474155"></line><line class="link" x1="400" y1="325" x2="295.30397032658425" y2="225.21767565798288"></line><line class="link" x1="400" y1="325" x2="430.7734457669626" y2="403.5034374800439"></line><line class="link" x1="400" y1="325" x2="447.91914996933076" y2="394.3347284344394"></line><line class="link" x1="400" y1="325" x2="503.6466607507591" y2="301.45193890177893"></line><line class="link" x1="400" y1="325" x2="399.1796741644757" y2="258.77729088511376"></line><line class="link" x1="400" y1="325" x2="397.43166237296947" y2="268.6475021129959"></line><line class="link" x1="400" y1="325" x2="162.14564993141852" y2="12.940113854322382"></line><line class="link" x1="400" y1="325" x2="489.65007352412886" y2="211.73803424671055"></line><line class="link" x1="400" y1="325" x2="459.2341460073285" y2="150.3827287095436"></line><line class="link" x1="400" y1="325" x2="383.66458953280534" y2="141.3133766228224"></line><line class="link" x1="400" y1="325" x2="387.58997606641736" y2="241.93933628803146"></line><line class="link" x1="400" y1="325" x2="416.50716005833704" y2="100.01631360253873"></line><line class="link" x1="400" y1="325" x2="529.5603500768906" y2="140.04540622023853"></line><line class="link" x1="400" y1="325" x2="388.62505375349275" y2="286.0090950461302"></line><line class="link" x1="400" y1="325" x2="294.32911930455856" y2="336.9455224825703"></line><line class="link" x1="400" y1="325" x2="491.25593553894447" y2="270.7146179887366"></line><line class="link" x1="400" y1="325" x2="208.03889752384168" y2="142.1884500117643"></line><line class="link" x1="400" y1="325" x2="464.50783439864665" y2="286.60986290490405"></line><line class="link" x1="400" y1="325" x2="582.394046912556" y2="322.70683997971895"></line><line class="link" x1="400" y1="325" x2="498.5963488610471" y2="285.34183572370017"></line><line class="link" x1="400" y1="325" x2="390.2481750587794" y2="313.19009171822364"></line><line class="link" x1="400" y1="325" x2="374.28391462849805" y2="273.2968802264272"></line><line class="link" x1="400" y1="325" x2="461.5511437624549" y2="299.8595016024121"></line><line class="link" x1="400" y1="325" x2="353.67683782850133" y2="277.0707560003824"></line><line class="link" x1="400" y1="325" x2="365.484875636326" y2="351.50400528931596"></line><line class="link" x1="400" y1="325" x2="344.63974092839265" y2="345.3478190821471"></line><line class="link" x1="400" y1="325" x2="502.2512992268136" y2="353.2663234980561"></line><line class="link" x1="400" y1="325" x2="354.0887523948343" y2="327.12009572703715"></line><line class="link" x1="400" y1="325" x2="485.0302578035121" y2="318.7856302120072"></line><line class="link" x1="400" y1="325" x2="462.48252613013443" y2="382.2427186333701"></line><line class="link" x1="400" y1="325" x2="447.2814014396255" y2="382.83360666505837"></line><line class="link" x1="400" y1="325" x2="375.80720487034205" y2="385.90213105692794"></line><line class="link" x1="400" y1="325" x2="375.08504826168587" y2="394.7927042444502"></line><line class="link" x1="400" y1="325" x2="605.3263030909842" y2="37.69260505757063"></line><line class="link" x1="400" y1="325" x2="314.754918512798" y2="25.808484722527236"></line><line class="link" x1="400" y1="325" x2="542.1130510900944" y2="302.26496287137326"></line><line class="link" x1="400" y1="325" x2="472.2245940388393" y2="367.2131336424259"></line><line class="link" x1="400" y1="325" x2="385.88264433649175" y2="219.42948510129943"></line><line class="link" x1="400" y1="325" x2="468.897178373837" y2="375.56566955597157"></line><line class="link" x1="400" y1="325" x2="439.8882287813175" y2="388.6098620322816"></line><line class="link" x1="400" y1="325" x2="446.07390667118943" y2="16.52095124701231"></line><line class="link" x1="400" y1="325" x2="302.682743350204" y2="281.79322253780265"></line><line class="link" x1="400" y1="325" x2="368.71925489071646" y2="183.7791203187189"></line><line class="link" x1="400" y1="325" x2="407.97355340186755" y2="271.46780257467844"></line><line class="link" x1="400" y1="325" x2="325.0814497483985" y2="284.86414267952733"></line><line class="link" x1="400" y1="325" x2="358.1800732998077" y2="16.180651442556368"></line><line class="link" x1="400" y1="325" x2="309.01973047195764" y2="269.1508805126344"></line><line class="link" x1="400" y1="325" x2="391.7552722178859" y2="399.21173372090425"></line><line class="link" x1="400" y1="325" x2="361.528224520717" y2="272.57712969846455"></line><line class="link" x1="400" y1="325" x2="348.86665936209573" y2="231.5206103516261"></line><line class="link" x1="400" y1="325" x2="474.77262722983915" y2="400.0634423138597"></line><line class="link" x1="400" y1="325" x2="363.4811810541104" y2="258.08473048679207"></line><line class="link" x1="400" y1="325" x2="287.14657833917147" y2="35.90965683605771"></line><line class="link" x1="400" y1="325" x2="101.48185126154374" y2="266.7339552355066"></line><line class="link" x1="400" y1="325" x2="365.60201867356636" y2="384.1111414183755"></line><line class="link" x1="400" y1="325" x2="186.84373258352676" y2="261.8457531138308"></line><line class="link" x1="400" y1="325" x2="449.29027077095884" y2="286.22730171503093"></line><line class="link" x1="400" y1="325" x2="373.51790057348256" y2="222.11602073481114"></line><line class="link" x1="400" y1="325" x2="182.26320551443513" y2="174.90954912703074"></line><line class="link" x1="400" y1="325" x2="454.42354386279465" y2="376.5331595764013"></line><line class="link" x1="400" y1="325" x2="592.8097489120689" y2="140.33492429283785"></line><line class="link" x1="400" y1="325" x2="505.7227824867253" y2="318.69671356265735"></line><line class="link" x1="400" y1="325" x2="374.98069898934216" y2="405.0244265749541"></line><line class="link" x1="400" y1="325" x2="377.9855546538419" y2="376.65989208128934"></line><line class="link" x1="400" y1="325" x2="302.54131902430646" y2="366.66847094898264"></line><line class="link" x1="400" y1="325" x2="477.75277051488615" y2="324.2662181444848"></line><line class="link" x1="400" y1="325" x2="423.34149559748795" y2="376.34436927913964"></line><line class="link" x1="400" y1="325" x2="338.74603945087796" y2="370.75595136916854"></line><line class="link" x1="400" y1="325" x2="339.1996533572116" y2="320.2665117957655"></line><line class="link" x1="400" y1="325" x2="381.98562451620853" y2="252.7346531731983"></line><line class="link" x1="400" y1="325" x2="318.94496725892134" y2="350.8585615473423"></line><line class="link" x1="400" y1="325" x2="116.76210507299146" y2="209.91726730137592"></line><line class="link" x1="400" y1="325" x2="384.37796898286734" y2="407.8724643176487"></line><line class="link" x1="400" y1="325" x2="472.1877794352663" y2="247.00711512964057"></line><line class="link" x1="400" y1="325" x2="431.5173676407935" y2="425.71839722550976"></line><line class="link" x1="400" y1="325" x2="478.22488063528056" y2="291.5081578354477"></line><line class="link" x1="400" y1="325" x2="410.90400790913395" y2="408.79000288359777"></line><line class="link" x1="400" y1="325" x2="468.74654865886345" y2="325.60882405525643"></line><line class="link" x1="400" y1="325" x2="570.1132216358876" y2="177.52394096203247"></line><line class="link" x1="400" y1="325" x2="593.3493943320319" y2="210.21078289993247"></line><line class="link" x1="400" y1="325" x2="356.7675616131987" y2="398.57491636316155"></line><line class="link" x1="400" y1="325" x2="256.31438634842567" y2="208.80362939842456"></line><line class="link" x1="400" y1="325" x2="257.4334811715445" y2="50.48502100908903"></line><line class="link" x1="400" y1="325" x2="379.1345976272427" y2="13.868235046474393"></line><line class="link" x1="400" y1="325" x2="337.3083347056514" y2="194.42922505933512"></line><line class="link" x1="400" y1="325" x2="405.1372750204549" y2="57.40825559542141"></line><line class="link" x1="400" y1="325" x2="351.31369667904994" y2="337.5833057826851"></line><line class="link" x1="400" y1="325" x2="524.6609905569951" y2="189.19158021547108"></line><line class="link" x1="400" y1="325" x2="398.6452208948913" y2="218.73224018305672"></line><line class="link" x1="400" y1="325" x2="309.9123679311367" y2="380.83321161673456"></line><line class="link" x1="400" y1="325" x2="486.1595535715515" y2="386.66318652946325"></line><line class="link" x1="400" y1="325" x2="334.85026198940426" y2="331.83148520467284"></line><line class="link" x1="400" y1="325" x2="312.4431590374186" y2="607.1696528925695"></line><line class="link" x1="400" y1="325" x2="91.0366016742382" y2="18.83211639609204"></line><line class="link" x1="400" y1="325" x2="327.3427429370438" y2="247.2357709410096"></line><line class="link" x1="400" y1="325" x2="298.1867879021641" y2="294.9687378311954"></line><line class="link" x1="400" y1="325" x2="534.2107139480064" y2="372.7548574806247"></line><line class="link" x1="400" y1="325" x2="620.2031302942883" y2="342.99251918773075"></line><line class="link" x1="400" y1="325" x2="430.31610227858295" y2="344.0445899049977"></line><line class="link" x1="400" y1="325" x2="333.9728719643345" y2="310.6154786136216"></line><line class="link" x1="400" y1="325" x2="361.1706313957069" y2="423.08742232959946"></line><line class="link" x1="400" y1="325" x2="387.84761704752754" y2="377.4089784095002"></line><line class="link" x1="400" y1="325" x2="284.6173313155953" y2="407.51056924410346"></line><line class="link" x1="400" y1="325" x2="467.3183083697113" y2="274.60397190882196"></line><line class="link" x1="400" y1="325" x2="460.97641801606164" y2="237.83031712522703"></line><line class="link" x1="400" y1="325" x2="355.5347826091035" y2="380.54183059836004"></line><line class="link" x1="400" y1="325" x2="528.965220243196" y2="260.60037836541215"></line><line class="link" x1="400" y1="325" x2="374.2217131548596" y2="301.7560240158896"></line><line class="link" x1="400" y1="325" x2="428.1312237749477" y2="263.64599094836075"></line><line class="link" x1="400" y1="325" x2="461.99773380310955" y2="332.00126697508404"></line><line class="link" x1="400" y1="325" x2="436.637209801151" y2="225.33550108848436"></line><line class="link" x1="400" y1="325" x2="238.07683159028065" y2="10.480309680290954"></line><line class="link" x1="400" y1="325" x2="481.8245799121432" y2="349.9347358827515"></line><line class="link" x1="400" y1="325" x2="377.5299284904057" y2="428.0289494915175"></line><line class="link" x1="400" y1="325" x2="295.25159574841433" y2="308.1366260626711"></line><line class="link" x1="400" y1="325" x2="336.34911496237777" y2="352.11011584300286"></line><line class="link" x1="400" y1="325" x2="447.7936611023797" y2="255.30560081657427"></line><line class="link" x1="400" y1="325" x2="542.7966869513682" y2="334.7788289184499"></line><line class="link" x1="400" y1="325" x2="374.5441471732248" y2="367.3618625391663"></line><line class="link" x1="400" y1="325" x2="639.6961472643551" y2="422.5492242261936"></line><line class="link" x1="400" y1="325" x2="509.2269438002729" y2="127.38739210589989"></line><line class="link" x1="400" y1="325" x2="342.70444553692636" y2="307.59143063398636"></line><line class="link" x1="400" y1="325" x2="316.69541977550193" y2="340.8238450968628"></line><line class="link" x1="400" y1="325" x2="406.3151980496316" y2="281.409911546924"></line><line class="link" x1="400" y1="325" x2="418.0847557292384" y2="259.47694565244615"></line><line class="link" x1="400" y1="325" x2="374.77794603965543" y2="257.729101220379"></line><line class="link" x1="400" y1="325" x2="293.75680778891916" y2="322.18396345086023"></line><line class="link" x1="400" y1="325" x2="438.2225515151142" y2="268.8236637827655"></line><line class="link" x1="400" y1="325" x2="512.2499940855562" y2="234.21032271575532"></line><line class="link" x1="400" y1="325" x2="367.69949690007434" y2="281.3716319419658"></line><line class="link" x1="400" y1="325" x2="447.0093966258424" y2="265.9203979005953"></line><line class="link" x1="400" y1="325" x2="447.6771128951828" y2="419.11899942280473"></line><line class="link" x1="400" y1="325" x2="455.77304081863707" y2="260.66951903977844"></line><line class="link" x1="400" y1="325" x2="404.82728240913514" y2="358.8659720492335"></line><line class="link" x1="400" y1="325" x2="257.85729516488016" y2="345.49039712095293"></line><line class="link" x1="400" y1="325" x2="473.2922576766538" y2="282.411119289957"></line><line class="link" x1="400" y1="325" x2="358.7161691382647" y2="285.62432183962125"></line><line class="link" x1="400" y1="325" x2="446.9409559493864" y2="188.50902880111937"></line><line class="link" x1="400" y1="325" x2="505.45286878252904" y2="335.66938258548316"></line><line class="link" x1="400" y1="325" x2="385.82889072694536" y2="367.39492685929173"></line><line class="link" x1="400" y1="325" x2="495.5204422802962" y2="370.948485282842"></line><line class="link" x1="400" y1="325" x2="387.08873931929315" y2="356.6642288881617"></line><line class="link" x1="400" y1="325" x2="680.3511032801732" y2="201.23531488334712"></line><line class="link" x1="400" y1="325" x2="447.49480283104333" y2="457.1209676034751"></line><line class="link" x1="400" y1="325" x2="548.7715210877906" y2="155.58822647976012"></line><line class="link" x1="400" y1="325" x2="346.54660531541987" y2="391.0679003085316"></line><line class="link" x1="400" y1="325" x2="408.3926313887371" y2="252.0749048163436"></line><line class="link" x1="400" y1="325" x2="345.72800059971445" y2="280.6344262530721"></line><line class="link" x1="400" y1="325" x2="274.67456994680276" y2="188.95057086732777"></line><line class="link" x1="400" y1="325" x2="422.28896972866977" y2="395.2938316500821"></line><line class="link" x1="400" y1="325" x2="400.81902021453976" y2="180.70478250229246"></line><line class="link" x1="400" y1="325" x2="321.11379757588577" y2="322.9750960084767"></line><line class="link" x1="400" y1="325" x2="100.06402890004654" y2="357.5440528204289"></line><line class="link" x1="400" y1="325" x2="461.6726525547991" y2="267.6877434229906"></line><line class="link" x1="400" y1="325" x2="315.18932041519514" y2="316.153842167491"></line><line class="link" x1="400" y1="325" x2="379.4093131872566" y2="281.86575624946016"></line><line class="link" x1="400" y1="325" x2="406.4755651992827" y2="369.67727876840155"></line><line class="link" x1="400" y1="325" x2="404.8494726856745" y2="381.23026010489696"></line><line class="link" x1="400" y1="325" x2="337.0773226704975" y2="277.68820126861965"></line><line class="link" x1="400" y1="325" x2="353.0573338439268" y2="188.1368677678084"></line><line class="link" x1="400" y1="325" x2="408.416013067389" y2="262.1057799595547"></line><line class="link" x1="400" y1="325" x2="363.0520644077458" y2="102.25564530974873"></line><line class="link" x1="400" y1="325" x2="411.32854265411606" y2="219.34313624738726"></line><line class="link" x1="400" y1="325" x2="482.43614689243987" y2="309.93958018922353"></line><line class="link" x1="400" y1="325" x2="286.75521872314334" y2="462.0234515306107"></line><line class="link" x1="400" y1="325" x2="330.855708979531" y2="291.5739717726242"></line><line class="link" x1="400" y1="325" x2="432.98979890685223" y2="321.38306064481765"></line><line class="link" x1="400" y1="325" x2="397.7845823004274" y2="240.34306951366094"></line><line class="link" x1="400" y1="325" x2="344.12406750708044" y2="331.07341233899854"></line><line class="link" x1="400" y1="325" x2="422.8455249164611" y2="351.1731369929153"></line><line class="link" x1="400" y1="325" x2="355.36016112140805" y2="297.95818921525273"></line><line class="link" x1="400" y1="325" x2="414.98651516375867" y2="357.53636241566943"></line><line class="link" x1="400" y1="325" x2="383.2559959303049" y2="397.1639924356791"></line><line class="link" x1="400" y1="325" x2="395.6485289765954" y2="384.4554610899258"></line><line class="link" x1="400" y1="325" x2="294.85144051837966" y2="172.74813394478682"></line><line class="link" x1="400" y1="325" x2="353.62783181201763" y2="254.29791302397726"></line><line class="link" x1="400" y1="325" x2="324.45667583762474" y2="331.57852128705474"></line><line class="link" x1="400" y1="325" x2="255.91613592931495" y2="328.42862648771825"></line><line class="link" x1="400" y1="325" x2="438.0164161423924" y2="281.6997148827274"></line><line class="link" x1="400" y1="325" x2="238.10145354547228" y2="236.67628799523132"></line><line class="link" x1="400" y1="325" x2="341.9079203044379" y2="362.5340408647394"></line><line class="link" x1="400" y1="325" x2="284.3928996495439" y2="237.99389161360025"></line><line class="link" x1="400" y1="325" x2="611.000570197908" y2="250.4932848237949"></line><line class="link" x1="400" y1="325" x2="431.86371821360984" y2="184.22908297812458"></line><line class="link" x1="400" y1="325" x2="523.9002491865322" y2="394.35382876086237"></line><line class="link" x1="400" y1="325" x2="319.02831244517057" y2="70.58852948801308"></line><line class="link" x1="400" y1="325" x2="395.99869703711147" y2="278.29553516691624"></line><line class="link" x1="400" y1="325" x2="404.5449729762924" y2="400.2981719685282"></line><line class="link" x1="400" y1="325" x2="258.30975511034814" y2="296.13732990861337"></line><line class="link" x1="400" y1="325" x2="399.247952093618" y2="248.97938773901518"></line><line class="link" x1="400" y1="325" x2="455.60171110433134" y2="292.9967573363442"></line><line class="link" x1="400" y1="325" x2="363.01665946821186" y2="305.17699351788593"></line><line class="link" x1="400" y1="325" x2="367.04341225963225" y2="375.11553215144465"></line><line class="link" x1="400" y1="325" x2="332.0615337248215" y2="360.9049871909408"></line><line class="link" x1="400" y1="325" x2="365.3254934409023" y2="393.33613190300383"></line><line class="link" x1="400" y1="325" x2="355.51624745760495" y2="389.3961951542475"></line><line class="link" x1="400" y1="325" x2="471.0754444862405" y2="21.396726602137647"></line><line class="link" x1="400" y1="325" x2="473.29921083409545" y2="315.084787817356"></line><line class="link" x1="400" y1="325" x2="385.43222573330115" y2="464.42455464411717"></line><line class="link" x1="400" y1="325" x2="395.9183289396815" y2="430.558141781724"></line><line class="link" x1="400" y1="325" x2="452.4961474186704" y2="364.8556930334677"></line><line class="link" x1="400" y1="325" x2="472.6621319750592" y2="303.9770282746079"></line><line class="link" x1="400" y1="325" x2="568.906056236378" y2="251.54755946164798"></line><line class="link" x1="400" y1="325" x2="275.09662576801566" y2="252.0134914199567"></line><line class="link" x1="400" y1="325" x2="386.7254855885848" y2="273.72125313298517"></line><line class="link" x1="400" y1="325" x2="445.12496352079296" y2="371.5454513407426"></line><line class="link" x1="400" y1="325" x2="434.1545280793044" y2="355.0524310535938"></line><line class="link" x1="400" y1="325" x2="270.0149530764629" y2="384.04408669971895"></line><line class="link" x1="400" y1="325" x2="418.73118661743155" y2="269.14827636969363"></line><line class="link" x1="400" y1="325" x2="501.6391805996101" y2="222.4023389275247"></line><line class="link" x1="400" y1="325" x2="319.60768377939127" y2="440.28054298209247"></line><line class="link" x1="400" y1="325" x2="539.9092790467485" y2="353.4988723133757"></line><line class="link" x1="400" y1="325" x2="446.21837195484414" y2="356.43887028146685"></line><line class="link" x1="400" y1="325" x2="419.45640316366115" y2="289.1643433754001"></line><line class="link" x1="400" y1="325" x2="465.64962506071754" y2="340.29781667300693"></line><line class="link" x1="400" y1="325" x2="464.5267054058755" y2="309.0408288562886"></line><line class="link" x1="400" y1="325" x2="401.6218870690231" y2="408.6551977867765"></line><line class="link" x1="400" y1="325" x2="484.6272776907134" y2="330.10114571536616"></line><line class="link" x1="400" y1="325" x2="462.1051958254204" y2="410.8163292608861"></line><line class="link" x1="400" y1="325" x2="358.8365032906142" y2="371.0029102240306"></line><line class="link" x1="400" y1="325" x2="324.53716675724536" y2="313.11561598767486"></line><line class="link" x1="400" y1="325" x2="447.53842364206963" y2="300.15273829155717"></line><line class="link" x1="400" y1="325" x2="414.7070997378492" y2="400.1037847875439"></line><line class="link" x1="400" y1="325" x2="456.2234717091038" y2="355.45703169505197"></line><line class="link" x1="400" y1="325" x2="438.4633848458098" y2="364.7513595063056"></line><line class="link" x1="400" y1="325" x2="352.3472134678143" y2="308.51039736697004"></line><line class="link" x1="400" y1="325" x2="326.43636323053875" y2="340.3315492418249"></line><line class="link" x1="400" y1="325" x2="441.28155484383205" y2="292.02445680020884"></line><line class="link" x1="400" y1="325" x2="413.46744204965887" y2="377.6329047405663"></line><line class="link" x1="400" y1="325" x2="474.6416998486368" y2="344.6141257465189"></line><line class="link" x1="400" y1="325" x2="543.3065615182628" y2="317.89651884084583"></line><line class="link" x1="400" y1="325" x2="432.93907003048776" y2="333.894251199052"></line><line class="link" x1="400" y1="325" x2="483.9297219632479" y2="339.3605890482922"></line><line class="link" x1="400" y1="325" x2="398.3251559519563" y2="290.1680633734198"></line><line class="link" x1="400" y1="325" x2="389.71442800499506" y2="99.62254037639201"></line><line class="link" x1="400" y1="325" x2="366.4218753126095" y2="324.83974860672214"></line><line class="link" x1="400" y1="325" x2="476.54836943701423" y2="202.35382036782352"></line><line class="link" x1="400" y1="325" x2="521.3569713335411" y2="247.05640732589364"></line><line class="link" x1="400" y1="325" x2="329.39725336968775" y2="275.8907993850836"></line><line class="link" x1="400" y1="325" x2="418.3159514282628" y2="241.83747298102244"></line><line class="link" x1="400" y1="325" x2="428.00604722122176" y2="254.15556100092056"></line><line class="link" x1="400" y1="325" x2="349.9853508884684" y2="289.3342855944739"></line><line class="link" x1="400" y1="325" x2="345.66104523517237" y2="415.6636115304413"></line><line class="link" x1="400" y1="325" x2="429.7252870271965" y2="384.14564487306035"></line><line class="link" x1="400" y1="325" x2="317.52903635287447" y2="257.3051090605355"></line><line class="link" x1="400" y1="325" x2="345.69914676706765" y2="259.81653941806485"></line><line class="link" x1="400" y1="325" x2="437.9070146485835" y2="378.183987540465"></line><line class="link" x1="400" y1="325" x2="409.67740967785227" y2="390.68363649654054"></line><line class="link" x1="400" y1="325" x2="409.5703704576274" y2="291.7398015084104"></line><line class="link" x1="400" y1="325" x2="408.1204313371799" y2="241.7951747079608"></line><line class="link" x1="400" y1="325" x2="350.9111584887823" y2="366.85264170553216"></line><line class="link" x1="400" y1="325" x2="337.7263184629621" y2="267.30121207426487"></line><line class="link" x1="400" y1="325" x2="337.89241640701323" y2="238.59739620694225"></line><line class="link" x1="400" y1="325" x2="345.44493065147736" y2="298.1291167363457"></line><line class="link" x1="400" y1="325" x2="338.8934943478309" y2="288.0419758198584"></line><line class="link" x1="400" y1="325" x2="323.0334638871732" y2="360.3869968958643"></line><line class="link" x1="400" y1="325" x2="431.0216124451375" y2="371.6068724997131"></line><line class="link" x1="400" y1="325" x2="457.98728517762345" y2="280.6898549570002"></line><line class="link" x1="400" y1="325" x2="438.9255729138658" y2="249.88237515527788"></line><line class="link" x1="400" y1="325" x2="422.6384700277801" y2="299.46691999390623"></line><line class="link" x1="400" y1="325" x2="430.9527545103373" y2="393.4516985442432"></line><line class="link" x1="400" y1="325" x2="461.023046895843" y2="369.5694627453093"></line><line class="link" x1="400" y1="325" x2="375.7747183953366" y2="347.9706500926913"></line><line class="link" x1="400" y1="325" x2="346.76090241989937" y2="354.7484221640162"></line><line class="link" x1="400" y1="325" x2="355.08722630183917" y2="264.75442720006885"></line><line class="link" x1="400" y1="325" x2="373.9263397918952" y2="290.3006057428509"></line><line class="link" x1="400" y1="325" x2="376.199943715518" y2="357.85765548475115"></line><line class="link" x1="400" y1="325" x2="445.0607460795376" y2="276.9326836412158"></line><line class="link" x1="400" y1="325" x2="393.03217005264884" y2="408.9284954305772"></line><line class="link" x1="400" y1="325" x2="469.39737989997406" y2="293.98677928099755"></line><line class="link" x1="400" y1="325" x2="427.7618307646902" y2="282.12450175869344"></line><line class="link" x1="400" y1="325" x2="437.50292033144336" y2="259.01706426176463"></line><line class="link" x1="400" y1="325" x2="453.64854509288995" y2="326.14756923064624"></line><line class="link" x1="400" y1="325" x2="320.8555488166884" y2="294.59846683630593"></line><line class="link" x1="400" y1="325" x2="334.1213706756442" y2="378.7504857071299"></line><line class="link" x1="400" y1="325" x2="442.7528107107058" y2="338.78377347334674"></line><line class="link" x1="400" y1="325" x2="399.0190324199301" y2="393.0516819111696"></line><line class="link" x1="400" y1="325" x2="397.00738829291174" y2="373.3667066960455"></line><line class="link" x1="400" y1="325" x2="335.674903413173" y2="300.03401480290364"></line><line class="link" x1="400" y1="325" x2="368.6980323720886" y2="312.8274623245377"></line><line class="link" x1="400" y1="325" x2="297.07939188913133" y2="351.9851183310887"></line><line class="link" x1="400" y1="325" x2="418.80504500389094" y2="386.5574291108095"></line><line class="link" x1="400" y1="325" x2="442.1765995437045" y2="308.280536845099"></line><line class="link" x1="400" y1="325" x2="417.06730645027716" y2="278.87255961888127"></line><line class="link" x1="400" y1="325" x2="347.04103657208157" y2="376.58464515055624"></line><line class="link" x1="400" y1="325" x2="494.4725999049879" y2="166.6059628692509"></line><line class="link" x1="400" y1="325" x2="449.16085477055225" y2="230.81853672751237"></line><line class="link" x1="400" y1="325" x2="356.24871965551444" y2="357.7894468574863"></line><line class="link" x1="400" y1="325" x2="394.9718810958785" y2="339.04215004500884"></line><line class="link" x1="400" y1="325" x2="439.4833616498159" y2="399.62234632421894"></line><line class="link" x1="400" y1="325" x2="405.24641012146446" y2="310.4589215689925"></line><line class="link" x1="400" y1="325" x2="426.84553882819534" y2="361.93198331521194"></line><line class="link" x1="400" y1="325" x2="443.35716798098787" y2="328.5106075186977"></line><line class="link" x1="400" y1="325" x2="368.2192352360757" y2="265.97204775629183"></line><line class="link" x1="400" y1="325" x2="366.5939617145109" y2="402.8558757637925"></line><line class="link" x1="400" y1="325" x2="482.46822881645386" y2="258.0301709995634"></line><line class="link" x1="400" y1="325" x2="435.1131859522941" y2="299.9137062361785"></line><line class="link" x1="400" y1="325" x2="368.6024822701592" y2="339.84776632094866"></line><line class="link" x1="400" y1="325" x2="364.75757499686773" y2="294.1113301282691"></line><line class="link" x1="400" y1="325" x2="346.34520202736525" y2="269.7664344802521"></line><line class="link" x1="400" y1="325" x2="395.6519989842808" y2="362.5636534730042"></line><line class="link" x1="400" y1="325" x2="389.58919748205847" y2="261.9055344070494"></line><line class="link" x1="400" y1="325" x2="474.4561398459949" y2="334.3103726918204"></line><line class="link" x1="400" y1="325" x2="370.6392243825708" y2="248.80527943351805"></line><line class="link" x1="400" y1="325" x2="452.37599861618264" y2="346.2773734303134"></line><line class="link" x1="400" y1="325" x2="385.14896392564526" y2="328.02010208668037"></line><line class="link" x1="400" y1="325" x2="390.68887045888016" y2="251.4003411382608"></line><line class="link" x1="400" y1="325" x2="464.22699120322875" y2="360.7031274550085"></line><line class="link" x1="400" y1="325" x2="414.1939971606106" y2="429.74662522871046"></line><line class="link" x1="400" y1="325" x2="314.64921998857864" y2="330.1185288477897"></line><line class="link" x1="400" y1="325" x2="356.22117284270115" y2="346.8140979743131"></line><line class="link" x1="400" y1="325" x2="328.4761141931593" y2="369.9729589354414"></line><line class="link" x1="400" y1="325" x2="414.6403864473016" y2="322.24724404736054"></line><line class="link" x1="400" y1="325" x2="481.5352174639739" y2="300.8079789368403"></line><line class="link" x1="400" y1="325" x2="501.7437090158421" y2="422.72184978353687"></line><line class="link" x1="400" y1="325" x2="361.2690871475227" y2="334.6353637369654"></line><line class="link" x1="400" y1="325" x2="442.3074344029325" y2="317.69478734345165"></line><line class="link" x1="400" y1="325" x2="424.14899128903073" y2="221.43382860607863"></line><line class="link" x1="400" y1="325" x2="261.9735458976728" y2="281.1677713778818"></line><line class="link" x1="400" y1="325" x2="418.0162817997183" y2="250.22768265156287"></line><line class="link" x1="400" y1="325" x2="430.34055042322086" y2="308.8047490896421"></line><line class="link" x1="400" y1="325" x2="319.6529850069267" y2="393.943267246982"></line><line class="link" x1="400" y1="325" x2="308.01136103553296" y2="213.52748295987186"></line><line class="link" x1="400" y1="325" x2="408.85805274886815" y2="336.5460100305412"></line><line class="link" x1="400" y1="325" x2="462.5914863032425" y2="348.1778228066071"></line><circle class="node" cx="380.5947964380284" cy="265.9851090616717" r="3.265761779432174" style="fill: rgb(133, 187, 101);"></circle><circle class="node" cx="565.7297235144252" cy="12.093762855290326" r="24.18752571058065" style="fill: rgb(133, 187, 101);"></circle><circle class="node" cx="551.4631158316918" cy="12.04939002605526" r="24.09878005211052" style="fill: rgb(133, 187, 101);"></circle><circle class="node" cx="262.03848996091784" cy="363.8705757284958" r="8.009069858604056" style="fill: rgb(133, 187, 101);"></circle><circle class="node" cx="347.74914632947065" cy="147.86577172935606" r="10.307220769926294" style="fill: rgb(133, 187, 101);"></circle><circle class="node" cx="570.8748598743293" cy="66.69545490586215" r="18.35334301973349" style="fill: rgb(133, 187, 101);"></circle><circle class="node" cx="486.8365303870158" cy="116.69947953613064" r="11.123560581036992" style="fill: rgb(133, 187, 101);"></circle><circle class="node" cx="240.65845233719347" cy="112.56477122856043" r="13.057702707597537" style="fill: rgb(133, 187, 101);"></circle><circle class="node" cx="453.1540596620396" cy="336.7274245989525" r="3.1126837295170224" style="fill: rgb(133, 187, 101);"></circle><circle class="node" cx="337.5623520014392" cy="19.915205958229176" r="17.311764785832786" style="fill: rgb(133, 187, 101);"></circle><circle class="node" cx="530.5443041666817" cy="446.52559416116617" r="9.18250510481753" style="fill: rgb(133, 187, 101);"></circle><circle class="node" cx="428.97832649104515" cy="245.23474867714802" r="3.0884300218719543" style="fill: rgb(133, 187, 101);"></circle><circle class="node" cx="331.3400885473078" cy="405.5833493327928" r="5.011107661984523" style="fill: rgb(133, 187, 101);"></circle><circle class="node" cx="365.3458291206303" cy="362.5586428072507" r="3.559101010086676" style="fill: rgb(133, 187, 101);"></circle><circle class="node" cx="500.094788226713" cy="30.22013742332782" r="14.291689893081223" style="fill: rgb(133, 187, 101);"></circle><circle class="node" cx="534.9332956700758" cy="274.359925461045" r="6.463033343562448" style="fill: rgb(133, 187, 101);"></circle><circle class="node" cx="464.5088598419869" cy="108.84309078716208" r="11.956320504235407" style="fill: rgb(133, 187, 101);"></circle><circle class="node" cx="461.77396835967545" cy="194.28820081301217" r="7.088667011505055" style="fill: rgb(133, 187, 101);"></circle><circle class="node" cx="423.1224249696389" cy="13.908496465985063" r="15.054182143178684" style="fill: rgb(133, 187, 101);"></circle><circle class="node" cx="462.6650481365071" cy="318.58936545818506" r="2.7191175038971744" style="fill: rgb(133, 187, 101);"></circle><circle class="node" cx="454.34035228476284" cy="307.96818961875186" r="3.285239717280917" style="fill: rgb(133, 187, 101);"></circle><circle class="node" cx="317.2754953635741" cy="305.50888063532256" r="3.277193921634788" style="fill: rgb(133, 187, 101);"></circle><circle class="node" cx="253.15034667402153" cy="10.225815370912972" r="20.451630741825944" style="fill: rgb(133, 187, 101);"></circle><circle class="node" cx="400.659593075516" cy="13.068027626147124" r="15.989896810173605" style="fill: rgb(133, 187, 101);"></circle><circle class="node" cx="335.2333579834372" cy="109.1155228508874" r="11.230102403807368" style="fill: rgb(133, 187, 101);"></circle><circle class="node" cx="176.78180161506637" cy="111.82383566281204" r="15.975556328341119" style="fill: rgb(133, 187, 101);"></circle><circle class="node" cx="441.15124114171635" cy="348.1925401000506" r="2.8445737817817274" style="fill: rgb(133, 187, 101);"></circle><circle class="node" cx="384.69167013961044" cy="181.37491341593625" r="7.999824998085896" style="fill: rgb(133, 187, 101);"></circle><circle class="node" cx="539.2875482320293" cy="287.9535879814017" r="8.106047125448999" style="fill: rgb(133, 187, 101);"></circle><circle class="node" cx="336.452088645369" cy="341.32746769315787" r="3.1723808094237365" style="fill: rgb(133, 187, 101);"></circle><circle class="node" cx="205.42820204478107" cy="84.80449405502391" r="14.654569253307994" style="fill: rgb(133, 187, 101);"></circle><circle class="node" cx="384.33883656417504" cy="295.37485862291896" r="2.690427475328038" style="fill: rgb(133, 187, 101);"></circle><circle class="node" cx="453.6385409742684" cy="273.1166648188019" r="3.1169857234193423" style="fill: rgb(133, 187, 101);"></circle><circle class="node" cx="267.57196204106594" cy="266.51301433231015" r="7.572634944324202" style="fill: rgb(133, 187, 101);"></circle><circle class="node" cx="731.3615481613234" cy="113.7078200657613" r="25.675840784675387" style="fill: rgb(133, 187, 101);"></circle><circle class="node" cx="430.7861674459932" cy="291.3119991527294" r="3.1126837295170224" style="fill: rgb(133, 187, 101);"></circle><circle class="node" cx="521.3479479837245" cy="85.8752146861447" r="13.801217337611925" style="fill: rgb(133, 187, 101);"></circle><circle class="node" cx="467.4567900488842" cy="65.59667455152463" r="13.242144841376717" style="fill: rgb(133, 187, 101);"></circle><circle class="node" cx="361.15579249643645" cy="225.9329232424738" r="5.133380952160087" style="fill: rgb(133, 187, 101);"></circle><circle class="node" cx="386.18275423334836" cy="388.1760416517619" r="2.7895519353473235" style="fill: rgb(133, 187, 101);"></circle><circle class="node" cx="326.34437295026595" cy="302.64186923494674" r="2.794852411130148" style="fill: rgb(133, 187, 101);"></circle><circle class="node" cx="548.9969371356789" cy="216.30309106285924" r="9.421358713051955" style="fill: rgb(133, 187, 101);"></circle><circle class="node" cx="73.7913921881888" cy="105.38876390121301" r="26.919034158007975" style="fill: rgb(133, 187, 101);"></circle><circle class="node" cx="299.6463133774992" cy="123.11761015802989" r="11.894973728428322" style="fill: rgb(133, 187, 101);"></circle><circle class="node" cx="347.7894990162967" cy="318.8460200997487" r="2.885203632328228" style="fill: rgb(133, 187, 101);"></circle><circle class="node" cx="421.7319397428514" cy="142.1390438195562" r="9.235799911215054" style="fill: rgb(133, 187, 101);"></circle><circle class="node" cx="358.32507909119283" cy="317.07375975594414" r="2.9748277261044884" style="fill: rgb(133, 187, 101);"></circle><circle class="node" cx="441.1388273862823" cy="103.1631535404495" r="11.813923988243703" style="fill: rgb(133, 187, 101);"></circle><circle class="node" cx="341.054862916482" cy="384.10370459055076" r="3.322709737548557" style="fill: rgb(133, 187, 101);"></circle><circle class="node" cx="455.72014968548785" cy="388.73477797158404" r="3.1723808094237365" style="fill: rgb(133, 187, 101);"></circle><circle class="node" cx="140.75192306398236" cy="160.1191205916524" r="17.108383909650847" style="fill: rgb(133, 187, 101);"></circle><circle class="node" cx="327.83557901625886" cy="349.9223972832561" r="2.9389113630730686" style="fill: rgb(133, 187, 101);"></circle><circle class="node" cx="377.5765476297012" cy="243.32430715878525" r="2.8489296235603994" style="fill: rgb(133, 187, 101);"></circle><circle class="node" cx="417.57679265077945" cy="367.5013850626432" r="3.195997496870109" style="fill: rgb(133, 187, 101);"></circle><circle class="node" cx="428.979591861239" cy="273.34647612970446" r="3.1723808094237365" style="fill: rgb(133, 187, 101);"></circle><circle class="node" cx="470.97482781620783" cy="354.2737343454947" r="2.448999795835026" style="fill: rgb(133, 187, 101);"></circle><circle class="node" cx="318.330799946955" cy="159.2201886419556" r="10.188385544334293" style="fill: rgb(133, 187, 101);"></circle><circle class="node" cx="421.71135398227125" cy="407.0608657533488" r="3.0762314607324335" style="fill: rgb(133, 187, 101);"></circle><circle class="node" cx="231.4838804752016" cy="65.50664573112617" r="15.296025627593593" style="fill: rgb(133, 187, 101);"></circle><circle class="node" cx="633.57032288958" cy="122.84489927523275" r="16.561292220113742" style="fill: rgb(133, 187, 101);"></circle><circle class="node" cx="416.7120211036962" cy="181.7059260297708" r="8.611294908432761" style="fill: rgb(133, 187, 101);"></circle><circle class="node" cx="256.19220427942236" cy="311.72481446296575" r="8.422208736430129" style="fill: rgb(133, 187, 101);"></circle><circle class="node" cx="321.9803494127256" cy="203.16944250962783" r="8.919686093131306" style="fill: rgb(133, 187, 101);"></circle><circle class="node" cx="361.8098528232192" cy="249.19252223792955" r="3.1366861494258553" style="fill: rgb(133, 187, 101);"></circle><circle class="node" cx="451.93018930434863" cy="316.830443974002" r="3.997549249227581" style="fill: rgb(133, 187, 101);"></circle><circle class="node" cx="330.7007857703553" cy="322.17576561614305" r="2.495996794869737" style="fill: rgb(133, 187, 101);"></circle><circle class="node" cx="478.2948573069136" cy="360.15793615474155" r="2.449489742783178" style="fill: rgb(133, 187, 101);"></circle><circle class="node" cx="295.30397032658425" cy="225.21767565798288" r="7.564548896001665" style="fill: rgb(133, 187, 101);"></circle><circle class="node" cx="430.7734457669626" cy="403.5034374800439" r="2.3664319132398464" style="fill: rgb(133, 187, 101);"></circle><circle class="node" cx="447.91914996933076" cy="394.3347284344394" r="3.666060555964672" style="fill: rgb(133, 187, 101);"></circle><circle class="node" cx="503.6466607507591" cy="301.45193890177893" r="5.500763583358223" style="fill: rgb(133, 187, 101);"></circle><circle class="node" cx="399.1796741644757" cy="258.77729088511376" r="2.9830186053727523" style="fill: rgb(133, 187, 101);"></circle><circle class="node" cx="397.43166237296947" cy="268.6475021129959" r="3.930038167753591" style="fill: rgb(133, 187, 101);"></circle><circle class="node" cx="162.14564993141852" cy="12.96358360948083" r="25.92716721896166" style="fill: rgb(133, 187, 101);"></circle><circle class="node" cx="489.65007352412886" cy="211.73803424671055" r="7.31726724945864" style="fill: rgb(133, 187, 101);"></circle><circle class="node" cx="459.2341460073285" cy="150.3827287095436" r="9.899717167677064" style="fill: rgb(133, 187, 101);"></circle><circle class="node" cx="383.66458953280534" cy="141.3133766228224" r="10.12574935498603" style="fill: rgb(133, 187, 101);"></circle><circle class="node" cx="387.58997606641736" cy="241.93933628803146" r="2.8284271247461903" style="fill: rgb(133, 187, 101);"></circle><circle class="node" cx="416.50716005833704" cy="100.01631360253873" r="11.162293671105415" style="fill: rgb(133, 187, 101);"></circle><circle class="node" cx="529.5603500768906" cy="140.04540622023853" r="11.265842178905224" style="fill: rgb(133, 187, 101);"></circle><circle class="node" cx="388.62505375349275" cy="286.0090950461302" r="3.0640496079535007" style="fill: rgb(133, 187, 101);"></circle><circle class="node" cx="294.32911930455856" cy="336.9455224825703" r="4.8871668684422875" style="fill: rgb(133, 187, 101);"></circle><circle class="node" cx="491.25593553894447" cy="270.7146179887366" r="4.964876634922564" style="fill: rgb(133, 187, 101);"></circle><circle class="node" cx="208.03889752384168" cy="142.1884500117643" r="13.18996588320076" style="fill: rgb(133, 187, 101);"></circle><circle class="node" cx="464.50783439864665" cy="286.60986290490405" r="3.254228019054596" style="fill: rgb(133, 187, 101);"></circle><circle class="node" cx="582.394046912556" cy="322.70683997971895" r="8.94516629247327" style="fill: rgb(133, 187, 101);"></circle><circle class="node" cx="498.5963488610471" cy="285.34183572370017" r="5.0175691325581155" style="fill: rgb(133, 187, 101);"></circle><circle class="node" cx="390.2481750587794" cy="313.19009171822364" r="2" style="fill: rgb(133, 187, 101);"></circle><circle class="node" cx="374.28391462849805" cy="273.2968802264272" r="2.1228283020536542" style="fill: rgb(133, 187, 101);"></circle><circle class="node" cx="461.5511437624549" cy="299.8595016024121" r="2.6832070363652525" style="fill: rgb(133, 187, 101);"></circle><circle class="node" cx="353.67683782850133" cy="277.0707560003824" r="3.242653234621303" style="fill: rgb(133, 187, 101);"></circle><circle class="node" cx="365.484875636326" cy="351.50400528931596" r="3.0884300218719543" style="fill: rgb(133, 187, 101);"></circle><circle class="node" cx="344.63974092839265" cy="345.3478190821471" r="3.870865536285134" style="fill: rgb(133, 187, 101);"></circle><circle class="node" cx="502.2512992268136" cy="353.2663234980561" r="6.073055244273676" style="fill: rgb(133, 187, 101);"></circle><circle class="node" cx="354.0887523948343" cy="327.12009572703715" r="3.1005805907926343" style="fill: rgb(133, 187, 101);"></circle><circle class="node" cx="485.0302578035121" cy="318.7856302120072" r="3.027011727760565" style="fill: rgb(133, 187, 101);"></circle><circle class="node" cx="462.48252613013443" cy="382.2427186333701" r="3.0762314607324335" style="fill: rgb(133, 187, 101);"></circle><circle class="node" cx="447.2814014396255" cy="382.83360666505837" r="3.8987177379235853" style="fill: rgb(133, 187, 101);"></circle><circle class="node" cx="375.80720487034205" cy="385.90213105692794" r="4.360642154545589" style="fill: rgb(133, 187, 101);"></circle><circle class="node" cx="375.08504826168587" cy="394.7927042444502" r="4.250176466924638" style="fill: rgb(133, 187, 101);"></circle><circle class="node" cx="605.3263030909842" cy="37.69260505757063" r="24.247226645536188" style="fill: rgb(133, 187, 101);"></circle><circle class="node" cx="314.754918512798" cy="25.808484722527236" r="17.79333583114757" style="fill: rgb(133, 187, 101);"></circle><circle class="node" cx="542.1130510900944" cy="302.26496287137326" r="6.746406450844775" style="fill: rgb(133, 187, 101);"></circle><circle class="node" cx="472.2245940388393" cy="367.2131336424259" r="3.300060605504087" style="fill: rgb(133, 187, 101);"></circle><circle class="node" cx="385.88264433649175" cy="219.42948510129943" r="4.694550031685678" style="fill: rgb(133, 187, 101);"></circle><circle class="node" cx="468.897178373837" cy="375.56566955597157" r="2.6719281427463573" style="fill: rgb(133, 187, 101);"></circle><circle class="node" cx="439.8882287813175" cy="388.6098620322816" r="3.195997496870109" style="fill: rgb(133, 187, 101);"></circle><circle class="node" cx="446.07390667118943" cy="16.52095124701231" r="14.755731089986696" style="fill: rgb(133, 187, 101);"></circle><circle class="node" cx="302.682743350204" cy="281.79322253780265" r="5.444226299484621" style="fill: rgb(133, 187, 101);"></circle><circle class="node" cx="368.71925489071646" cy="183.7791203187189" r="7.149405569695986" style="fill: rgb(133, 187, 101);"></circle><circle class="node" cx="407.97355340186755" cy="271.46780257467844" r="3.4946816736292305" style="fill: rgb(133, 187, 101);"></circle><circle class="node" cx="325.0814497483985" cy="284.86414267952733" r="2.7333495934475707" style="fill: rgb(133, 187, 101);"></circle><circle class="node" cx="358.1800732998077" cy="16.180651442556368" r="16.66898917151247" style="fill: rgb(133, 187, 101);"></circle><circle class="node" cx="309.01973047195764" cy="269.1508805126344" r="4.69041575982343" style="fill: rgb(133, 187, 101);"></circle><circle class="node" cx="391.7552722178859" cy="399.21173372090425" r="2.569357896440276" style="fill: rgb(133, 187, 101);"></circle><circle class="node" cx="361.528224520717" cy="272.57712969846455" r="2.8943393028461606" style="fill: rgb(133, 187, 101);"></circle><circle class="node" cx="348.86665936209573" cy="231.5206103516261" r="5.439632340517142" style="fill: rgb(133, 187, 101);"></circle><circle class="node" cx="474.77262722983915" cy="400.0634423138597" r="6.164414002968977" style="fill: rgb(133, 187, 101);"></circle><circle class="node" cx="363.4811810541104" cy="258.08473048679207" r="2.9853642993778835" style="fill: rgb(133, 187, 101);"></circle><circle class="node" cx="287.14657833917147" cy="35.90965683605771" r="14.588845053670287" style="fill: rgb(133, 187, 101);"></circle><circle class="node" cx="101.48185126154374" cy="266.7339552355066" r="17.215806690364527" style="fill: rgb(133, 187, 101);"></circle><circle class="node" cx="365.60201867356636" cy="384.1111414183755" r="2.9234910637797404" style="fill: rgb(133, 187, 101);"></circle><circle class="node" cx="186.84373258352676" cy="261.8457531138308" r="11.205445104947863" style="fill: rgb(133, 187, 101);"></circle><circle class="node" cx="449.29027077095884" cy="286.22730171503093" r="3.1126837295170224" style="fill: rgb(133, 187, 101);"></circle><circle class="node" cx="373.51790057348256" cy="222.11602073481114" r="4.7712472163995026" style="fill: rgb(133, 187, 101);"></circle><circle class="node" cx="182.26320551443513" cy="174.90954912703074" r="13.267192619390134" style="fill: rgb(133, 187, 101);"></circle><circle class="node" cx="454.42354386279465" cy="376.5331595764013" r="2.6614281880223634" style="fill: rgb(133, 187, 101);"></circle><circle class="node" cx="592.8097489120689" cy="140.33492429283785" r="13.834550950428422" style="fill: rgb(133, 187, 101);"></circle><circle class="node" cx="505.7227824867253" cy="318.69671356265735" r="4.8166378315169185" style="fill: rgb(133, 187, 101);"></circle><circle class="node" cx="374.98069898934216" cy="405.0244265749541" r="2.9003448070875986" style="fill: rgb(133, 187, 101);"></circle><circle class="node" cx="377.9855546538419" cy="376.65989208128934" r="4.061822251157723" style="fill: rgb(133, 187, 101);"></circle><circle class="node" cx="302.54131902430646" cy="366.66847094898264" r="5.3927729416321615" style="fill: rgb(133, 187, 101);"></circle><circle class="node" cx="477.75277051488615" cy="324.2662181444848" r="2.713005713226568" style="fill: rgb(133, 187, 101);"></circle><circle class="node" cx="423.34149559748795" cy="376.34436927913964" r="2.821559852280295" style="fill: rgb(133, 187, 101);"></circle><circle class="node" cx="338.74603945087796" cy="370.75595136916854" r="3.889884317045945" style="fill: rgb(133, 187, 101);"></circle><circle class="node" cx="339.1996533572116" cy="320.2665117957655" r="2.767815022720991" style="fill: rgb(133, 187, 101);"></circle><circle class="node" cx="381.98562451620853" cy="252.7346531731983" r="2.6321854038042227" style="fill: rgb(133, 187, 101);"></circle><circle class="node" cx="318.94496725892134" cy="350.8585615473423" r="2.8616079396031875" style="fill: rgb(133, 187, 101);"></circle><circle class="node" cx="116.76210507299146" cy="209.91726730137592" r="14.364609288108047" style="fill: rgb(133, 187, 101);"></circle><circle class="node" cx="384.37796898286734" cy="407.8724643176487" r="3.162277660168379" style="fill: rgb(133, 187, 101);"></circle><circle class="node" cx="472.1877794352663" cy="247.00711512964057" r="4.806953297047934" style="fill: rgb(133, 187, 101);"></circle><circle class="node" cx="431.5173676407935" cy="425.71839722550976" r="4.506262309275837" style="fill: rgb(133, 187, 101);"></circle><circle class="node" cx="478.22488063528056" cy="291.5081578354477" r="4.385795252858939" style="fill: rgb(133, 187, 101);"></circle><circle class="node" cx="410.90400790913395" cy="408.79000288359777" r="4.3352047241162674" style="fill: rgb(133, 187, 101);"></circle><circle class="node" cx="468.74654865886345" cy="325.60882405525643" r="4.084115571332427" style="fill: rgb(133, 187, 101);"></circle><circle class="node" cx="570.1132216358876" cy="177.52394096203247" r="12.07552897392077" style="fill: rgb(133, 187, 101);"></circle><circle class="node" cx="593.3493943320319" cy="210.21078289993247" r="11.52572774275013" style="fill: rgb(133, 187, 101);"></circle><circle class="node" cx="356.7675616131987" cy="398.57491636316155" r="4.39949997158768" style="fill: rgb(133, 187, 101);"></circle><circle class="node" cx="256.31438634842567" cy="208.80362939842456" r="9.11738997740033" style="fill: rgb(133, 187, 101);"></circle><circle class="node" cx="257.4334811715445" cy="50.48502100908903" r="15.785220936052813" style="fill: rgb(133, 187, 101);"></circle><circle class="node" cx="379.1345976272427" cy="13.868235046474393" r="14.251806902986022" style="fill: rgb(133, 187, 101);"></circle><circle class="node" cx="337.3083347056514" cy="194.42922505933512" r="8.275602697084969" style="fill: rgb(133, 187, 101);"></circle><circle class="node" cx="405.1372750204549" cy="57.40825559542141" r="12.74392404246039" style="fill: rgb(133, 187, 101);"></circle><circle class="node" cx="351.31369667904994" cy="337.5833057826851" r="3.1126837295170224" style="fill: rgb(133, 187, 101);"></circle><circle class="node" cx="524.6609905569951" cy="189.19158021547108" r="10.313369963304913" style="fill: rgb(133, 187, 101);"></circle><circle class="node" cx="398.6452208948913" cy="218.73224018305672" r="4.932869347550166" style="fill: rgb(133, 187, 101);"></circle><circle class="node" cx="309.9123679311367" cy="380.83321161673456" r="4.935139309077303" style="fill: rgb(133, 187, 101);"></circle><circle class="node" cx="486.1595535715515" cy="386.66318652946325" r="6.099475387277172" style="fill: rgb(133, 187, 101);"></circle><circle class="node" cx="334.85026198940426" cy="331.83148520467284" r="3.1005805907926343" style="fill: rgb(133, 187, 101);"></circle><circle class="node" cx="312.4431590374186" cy="607.1696528925695" r="16.920094562383508" style="fill: rgb(133, 187, 101);"></circle><circle class="node" cx="91.0366016742382" cy="18.857409684259395" r="37.71481936851879" style="fill: rgb(133, 187, 101);"></circle><circle class="node" cx="327.3427429370438" cy="247.2357709410096" r="5.995731815216555" style="fill: rgb(133, 187, 101);"></circle><circle class="node" cx="298.1867879021641" cy="294.9687378311954" r="5.612771151579227" style="fill: rgb(133, 187, 101);"></circle><circle class="node" cx="534.2107139480064" cy="372.7548574806247" r="8.492514350885726" style="fill: rgb(133, 187, 101);"></circle><circle class="node" cx="620.2031302942883" cy="342.99251918773075" r="11.846501593297491" style="fill: rgb(133, 187, 101);"></circle><circle class="node" cx="430.31610227858295" cy="344.0445899049977" r="3.6613658653568066" style="fill: rgb(133, 187, 101);"></circle><circle class="node" cx="333.9728719643345" cy="310.6154786136216" r="3.002132575353727" style="fill: rgb(133, 187, 101);"></circle><circle class="node" cx="361.1706313957069" cy="423.08742232959946" r="5.891723007745696" style="fill: rgb(133, 187, 101);"></circle><circle class="node" cx="387.84761704752754" cy="377.4089784095002" r="3.1005805907926343" style="fill: rgb(133, 187, 101);"></circle><circle class="node" cx="284.6173313155953" cy="407.51056924410346" r="7.568672274580264" style="fill: rgb(133, 187, 101);"></circle><circle class="node" cx="467.3183083697113" cy="274.60397190882196" r="3.848428250597898" style="fill: rgb(133, 187, 101);"></circle><circle class="node" cx="460.97641801606164" cy="237.83031712522703" r="5.0943498113105665" style="fill: rgb(133, 187, 101);"></circle><circle class="node" cx="355.5347826091035" cy="380.54183059836004" r="3.242653234621303" style="fill: rgb(133, 187, 101);"></circle><circle class="node" cx="528.965220243196" cy="260.60037836541215" r="7.792021560545121" style="fill: rgb(133, 187, 101);"></circle><circle class="node" cx="374.2217131548596" cy="301.7560240158896" r="3.0844124237851203" style="fill: rgb(133, 187, 101);"></circle><circle class="node" cx="428.1312237749477" cy="263.64599094836075" r="3.7416573867739418" style="fill: rgb(133, 187, 101);"></circle><circle class="node" cx="461.99773380310955" cy="332.00126697508404" r="3.3114347343711907" style="fill: rgb(133, 187, 101);"></circle><circle class="node" cx="436.637209801151" cy="225.33550108848436" r="4.877581367850259" style="fill: rgb(133, 187, 101);"></circle><circle class="node" cx="238.07683159028065" cy="10.486438861691799" r="20.972877723383597" style="fill: rgb(133, 187, 101);"></circle><circle class="node" cx="481.8245799121432" cy="349.9347358827515" r="2.713005713226568" style="fill: rgb(133, 187, 101);"></circle><circle class="node" cx="377.5299284904057" cy="428.0289494915175" r="5.3823043392212595" style="fill: rgb(133, 187, 101);"></circle><circle class="node" cx="295.25159574841433" cy="308.1366260626711" r="5.395924387906117" style="fill: rgb(133, 187, 101);"></circle><circle class="node" cx="336.34911496237777" cy="352.11011584300286" r="3.5895960775552447" style="fill: rgb(133, 187, 101);"></circle><circle class="node" cx="447.7936611023797" cy="255.30560081657427" r="4.324210910674918" style="fill: rgb(133, 187, 101);"></circle><circle class="node" cx="542.7966869513682" cy="334.7788289184499" r="6.942449135571683" style="fill: rgb(133, 187, 101);"></circle><circle class="node" cx="374.5441471732248" cy="367.3618625391663" r="2.9516774891576487" style="fill: rgb(133, 187, 101);"></circle><circle class="node" cx="639.6961472643551" cy="422.5492242261936" r="12.746497558152985" style="fill: rgb(133, 187, 101);"></circle><circle class="node" cx="509.2269438002729" cy="127.38739210589989" r="11.795304150381202" style="fill: rgb(133, 187, 101);"></circle><circle class="node" cx="342.70444553692636" cy="307.59143063398636" r="2.368459414893994" style="fill: rgb(133, 187, 101);"></circle><circle class="node" cx="316.69541977550193" cy="340.8238450968628" r="4.277288860949188" style="fill: rgb(133, 187, 101);"></circle><circle class="node" cx="406.3151980496316" cy="281.409911546924" r="4.3411519208615585" style="fill: rgb(133, 187, 101);"></circle><circle class="node" cx="418.0847557292384" cy="259.47694565244615" r="2.4022489463001127" style="fill: rgb(133, 187, 101);"></circle><circle class="node" cx="374.77794603965543" cy="257.729101220379" r="3.09088983951224" style="fill: rgb(133, 187, 101);"></circle><circle class="node" cx="293.75680778891916" cy="322.18396345086023" r="5.690412990284624" style="fill: rgb(133, 187, 101);"></circle><circle class="node" cx="438.2225515151142" cy="268.8236637827655" r="2.647413832403238" style="fill: rgb(133, 187, 101);"></circle><circle class="node" cx="512.2499940855562" cy="234.21032271575532" r="7.825471231817289" style="fill: rgb(133, 187, 101);"></circle><circle class="node" cx="367.69949690007434" cy="281.3716319419658" r="3.1860947882949118" style="fill: rgb(133, 187, 101);"></circle><circle class="node" cx="447.0093966258424" cy="265.9203979005953" r="4.455603213931869" style="fill: rgb(133, 187, 101);"></circle><circle class="node" cx="447.6771128951828" cy="419.11899942280473" r="5.70708331812319" style="fill: rgb(133, 187, 101);"></circle><circle class="node" cx="455.77304081863707" cy="260.66951903977844" r="4.124657561543746" style="fill: rgb(133, 187, 101);"></circle><circle class="node" cx="404.82728240913514" cy="358.8659720492335" r="3.848324310657822" style="fill: rgb(133, 187, 101);"></circle><circle class="node" cx="257.85729516488016" cy="345.49039712095293" r="8.524036602455435" style="fill: rgb(133, 187, 101);"></circle><circle class="node" cx="473.2922576766538" cy="282.411119289957" r="2.9036528718150865" style="fill: rgb(133, 187, 101);"></circle><circle class="node" cx="358.7161691382647" cy="285.62432183962125" r="2.6428772200009596" style="fill: rgb(133, 187, 101);"></circle><circle class="node" cx="446.9409559493864" cy="188.50902880111937" r="8.086754602434775" style="fill: rgb(133, 187, 101);"></circle><circle class="node" cx="505.45286878252904" cy="335.66938258548316" r="4.746367031741224" style="fill: rgb(133, 187, 101);"></circle><circle class="node" cx="385.82889072694536" cy="367.39492685929173" r="4.137100433878781" style="fill: rgb(133, 187, 101);"></circle><circle class="node" cx="495.5204422802962" cy="370.948485282842" r="4.69041575982343" style="fill: rgb(133, 187, 101);"></circle><circle class="node" cx="387.08873931929315" cy="356.6642288881617" r="3.2240967727411656" style="fill: rgb(133, 187, 101);"></circle><circle class="node" cx="680.3511032801732" cy="201.23531488334712" r="15.996349583576873" style="fill: rgb(133, 187, 101);"></circle><circle class="node" cx="447.49480283104333" cy="457.1209676034751" r="8.811333610753824" style="fill: rgb(133, 187, 101);"></circle><circle class="node" cx="548.7715210877906" cy="155.58822647976012" r="11.875942067895076" style="fill: rgb(133, 187, 101);"></circle><circle class="node" cx="346.54660531541987" cy="391.0679003085316" r="2.6286118009321955" style="fill: rgb(133, 187, 101);"></circle><circle class="node" cx="408.3926313887371" cy="252.0749048163436" r="3.1311978538572105" style="fill: rgb(133, 187, 101);"></circle><circle class="node" cx="345.72800059971445" cy="280.6344262530721" r="3.1005805907926343" style="fill: rgb(133, 187, 101);"></circle><circle class="node" cx="274.67456994680276" cy="188.95057086732777" r="10.359324302289219" style="fill: rgb(133, 187, 101);"></circle><circle class="node" cx="422.28896972866977" cy="395.2938316500821" r="3.322348566902636" style="fill: rgb(133, 187, 101);"></circle><circle class="node" cx="400.81902021453976" cy="180.70478250229246" r="7.078530921031567" style="fill: rgb(133, 187, 101);"></circle><circle class="node" cx="321.11379757588577" cy="322.9750960084767" r="2.5183327818221324" style="fill: rgb(133, 187, 101);"></circle><circle class="node" cx="100.06402890004654" cy="357.5440528204289" r="14.593299832457358" style="fill: rgb(133, 187, 101);"></circle><circle class="node" cx="461.6726525547991" cy="267.6877434229906" r="2.5384247083575278" style="fill: rgb(133, 187, 101);"></circle><circle class="node" cx="315.18932041519514" cy="316.153842167491" r="2.9107387378464593" style="fill: rgb(133, 187, 101);"></circle><circle class="node" cx="379.4093131872566" cy="281.86575624946016" r="2.0976176963403033" style="fill: rgb(133, 187, 101);"></circle><circle class="node" cx="406.4755651992827" cy="369.67727876840155" r="3.16411124962445" style="fill: rgb(133, 187, 101);"></circle><circle class="node" cx="404.8494726856745" cy="381.23026010489696" r="3.1246759832020983" style="fill: rgb(133, 187, 101);"></circle><circle class="node" cx="337.0773226704975" cy="277.68820126861965" r="3.2863353450309964" style="fill: rgb(133, 187, 101);"></circle><circle class="node" cx="353.0573338439268" cy="188.1368677678084" r="8.351215480395654" style="fill: rgb(133, 187, 101);"></circle><circle class="node" cx="408.416013067389" cy="262.1057799595547" r="2.7475079617719036" style="fill: rgb(133, 187, 101);"></circle><circle class="node" cx="363.0520644077458" cy="102.25564530974873" r="12.30076420390213" style="fill: rgb(133, 187, 101);"></circle><circle class="node" cx="411.32854265411606" cy="219.34313624738726" r="5.513619500836088" style="fill: rgb(133, 187, 101);"></circle><circle class="node" cx="482.43614689243987" cy="309.93958018922353" r="4.044502441586603" style="fill: rgb(133, 187, 101);"></circle><circle class="node" cx="286.75521872314334" cy="462.0234515306107" r="9.827634506838358" style="fill: rgb(133, 187, 101);"></circle><circle class="node" cx="330.855708979531" cy="291.5739717726242" r="4.295718798990455" style="fill: rgb(133, 187, 101);"></circle><circle class="node" cx="432.98979890685223" cy="321.38306064481765" r="3.027011727760565" style="fill: rgb(133, 187, 101);"></circle><circle class="node" cx="397.7845823004274" cy="240.34306951366094" r="2.4804031930313264" style="fill: rgb(133, 187, 101);"></circle><circle class="node" cx="344.12406750708044" cy="331.07341233899854" r="2.3354656923192" style="fill: rgb(133, 187, 101);"></circle><circle class="node" cx="422.8455249164611" cy="351.1731369929153" r="3.0517535942470846" style="fill: rgb(133, 187, 101);"></circle><circle class="node" cx="355.36016112140805" cy="297.95818921525273" r="3.1126837295170224" style="fill: rgb(133, 187, 101);"></circle><circle class="node" cx="414.98651516375867" cy="357.53636241566943" r="3.5018852065708836" style="fill: rgb(133, 187, 101);"></circle><circle class="node" cx="383.2559959303049" cy="397.1639924356791" r="2.7541967976163213" style="fill: rgb(133, 187, 101);"></circle><circle class="node" cx="395.6485289765954" cy="384.4554610899258" r="2.7268296609799445" style="fill: rgb(133, 187, 101);"></circle><circle class="node" cx="294.85144051837966" cy="172.74813394478682" r="10.760037174656972" style="fill: rgb(133, 187, 101);"></circle><circle class="node" cx="353.62783181201763" cy="254.29791302397726" r="3.2734080100103626" style="fill: rgb(133, 187, 101);"></circle><circle class="node" cx="324.45667583762474" cy="331.57852128705474" r="3.0517535942470846" style="fill: rgb(133, 187, 101);"></circle><circle class="node" cx="255.91613592931495" cy="328.42862648771825" r="6.685267384331011" style="fill: rgb(133, 187, 101);"></circle><circle class="node" cx="438.0164161423924" cy="281.6997148827274" r="2.7770487932335652" style="fill: rgb(133, 187, 101);"></circle><circle class="node" cx="238.10145354547228" cy="236.67628799523132" r="9.567089421553455" style="fill: rgb(133, 187, 101);"></circle><circle class="node" cx="341.9079203044379" cy="362.5340408647394" r="3.1723808094237365" style="fill: rgb(133, 187, 101);"></circle><circle class="node" cx="284.3928996495439" cy="237.99389161360025" r="6.586835355464717" style="fill: rgb(133, 187, 101);"></circle><circle class="node" cx="611.000570197908" cy="250.4932848237949" r="11.90310883761045" style="fill: rgb(133, 187, 101);"></circle><circle class="node" cx="431.86371821360984" cy="184.22908297812458" r="6.576868555779415" style="fill: rgb(133, 187, 101);"></circle><circle class="node" cx="523.9002491865322" cy="394.35382876086237" r="6.945156585707769" style="fill: rgb(133, 187, 101);"></circle><circle class="node" cx="319.02831244517057" cy="70.58852948801308" r="13.67739741325081" style="fill: rgb(133, 187, 101);"></circle><circle class="node" cx="395.99869703711147" cy="278.29553516691624" r="4.374379956062344" style="fill: rgb(133, 187, 101);"></circle><circle class="node" cx="404.5449729762924" cy="400.2981719685282" r="2.7268296609799445" style="fill: rgb(133, 187, 101);"></circle><circle class="node" cx="258.30975511034814" cy="296.13732990861337" r="7.212211865995064" style="fill: rgb(133, 187, 101);"></circle><circle class="node" cx="399.247952093618" cy="248.97938773901518" r="2.312920232087566" style="fill: rgb(133, 187, 101);"></circle><circle class="node" cx="455.60171110433134" cy="292.9967573363442" r="2.9389113630730686" style="fill: rgb(133, 187, 101);"></circle><circle class="node" cx="363.01665946821186" cy="305.17699351788593" r="2.941768175774563" style="fill: rgb(133, 187, 101);"></circle><circle class="node" cx="367.04341225963225" cy="375.11553215144465" r="3.3082321563034234" style="fill: rgb(133, 187, 101);"></circle><circle class="node" cx="332.0615337248215" cy="360.9049871909408" r="2.9853642993778835" style="fill: rgb(133, 187, 101);"></circle><circle class="node" cx="365.3254934409023" cy="393.33613190300383" r="3.148650504581288" style="fill: rgb(133, 187, 101);"></circle><circle class="node" cx="355.51624745760495" cy="389.3961951542475" r="2.887351727794866" style="fill: rgb(133, 187, 101);"></circle><circle class="node" cx="471.0754444862405" cy="21.396726602137647" r="15.864955089756794" style="fill: rgb(133, 187, 101);"></circle><circle class="node" cx="473.29921083409545" cy="315.084787817356" r="2.6143450422620194" style="fill: rgb(133, 187, 101);"></circle><circle class="node" cx="385.43222573330115" cy="464.42455464411717" r="7.834258101441387" style="fill: rgb(133, 187, 101);"></circle><circle class="node" cx="395.9183289396815" cy="430.558141781724" r="5.496762683616604" style="fill: rgb(133, 187, 101);"></circle><circle class="node" cx="452.4961474186704" cy="364.8556930334677" r="3.0884300218719543" style="fill: rgb(133, 187, 101);"></circle><circle class="node" cx="472.6621319750592" cy="303.9770282746079" r="2.7895519353473235" style="fill: rgb(133, 187, 101);"></circle><circle class="node" cx="568.906056236378" cy="251.54755946164798" r="9.547292810006406" style="fill: rgb(133, 187, 101);"></circle><circle class="node" cx="275.09662576801566" cy="252.0134914199567" r="7.059830026282502" style="fill: rgb(133, 187, 101);"></circle><circle class="node" cx="386.7254855885848" cy="273.72125313298517" r="3.3466401061363023" style="fill: rgb(133, 187, 101);"></circle><circle class="node" cx="445.12496352079296" cy="371.5454513407426" r="4.074457019039469" style="fill: rgb(133, 187, 101);"></circle><circle class="node" cx="434.1545280793044" cy="355.0524310535938" r="3.0394078370630027" style="fill: rgb(133, 187, 101);"></circle><circle class="node" cx="270.0149530764629" cy="384.04408669971895" r="6.734359657755145" style="fill: rgb(133, 187, 101);"></circle><circle class="node" cx="418.73118661743155" cy="269.14827636969363" r="2.949644046321522" style="fill: rgb(133, 187, 101);"></circle><circle class="node" cx="501.6391805996101" cy="222.4023389275247" r="6.865158410408313" style="fill: rgb(133, 187, 101);"></circle><circle class="node" cx="319.60768377939127" cy="440.28054298209247" r="7.185958530356267" style="fill: rgb(133, 187, 101);"></circle><circle class="node" cx="539.9092790467485" cy="353.4988723133757" r="8.852118390532292" style="fill: rgb(133, 187, 101);"></circle><circle class="node" cx="446.21837195484414" cy="356.43887028146685" r="2.7581152985326773" style="fill: rgb(133, 187, 101);"></circle><circle class="node" cx="419.45640316366115" cy="289.1643433754001" r="3.129536706926442" style="fill: rgb(133, 187, 101);"></circle><circle class="node" cx="465.64962506071754" cy="340.29781667300693" r="3.1246759832020983" style="fill: rgb(133, 187, 101);"></circle><circle class="node" cx="464.5267054058755" cy="309.0408288562886" r="2.7686097594280055" style="fill: rgb(133, 187, 101);"></circle><circle class="node" cx="401.6218870690231" cy="408.6551977867765" r="2.9260895406668608" style="fill: rgb(133, 187, 101);"></circle><circle class="node" cx="484.6272776907134" cy="330.10114571536616" r="2.0976176963403033" style="fill: rgb(133, 187, 101);"></circle><circle class="node" cx="462.1051958254204" cy="410.8163292608861" r="5.9172966800727504" style="fill: rgb(133, 187, 101);"></circle><circle class="node" cx="358.8365032906142" cy="371.0029102240306" r="2.602383522849774" style="fill: rgb(133, 187, 101);"></circle><circle class="node" cx="324.53716675724536" cy="313.11561598767486" r="2.090167457406224" style="fill: rgb(133, 187, 101);"></circle><circle class="node" cx="447.53842364206963" cy="300.15273829155717" r="2.542203768386791" style="fill: rgb(133, 187, 101);"></circle><circle class="node" cx="414.7070997378492" cy="400.1037847875439" r="2.8144626485352404" style="fill: rgb(133, 187, 101);"></circle><circle class="node" cx="456.2234717091038" cy="355.45703169505197" r="3.0884300218719543" style="fill: rgb(133, 187, 101);"></circle><circle class="node" cx="438.4633848458098" cy="364.7513595063056" r="3.1246759832020983" style="fill: rgb(133, 187, 101);"></circle><circle class="node" cx="352.3472134678143" cy="308.51039736697004" r="2.6832815729997477" style="fill: rgb(133, 187, 101);"></circle><circle class="node" cx="326.43636323053875" cy="340.3315492418249" r="3.277193921634788" style="fill: rgb(133, 187, 101);"></circle><circle class="node" cx="441.28155484383205" cy="292.02445680020884" r="2.7405109012737023" style="fill: rgb(133, 187, 101);"></circle><circle class="node" cx="413.46744204965887" cy="377.6329047405663" r="3.002132575353727" style="fill: rgb(133, 187, 101);"></circle><circle class="node" cx="474.6416998486368" cy="344.6141257465189" r="2.6076809620810595" style="fill: rgb(133, 187, 101);"></circle><circle class="node" cx="543.3065615182628" cy="317.89651884084583" r="7.251896303726357" style="fill: rgb(133, 187, 101);"></circle><circle class="node" cx="432.93907003048776" cy="333.894251199052" r="3.179056463795508" style="fill: rgb(133, 187, 101);"></circle><circle class="node" cx="483.9297219632479" cy="339.3605890482922" r="2.7656463982223034" style="fill: rgb(133, 187, 101);"></circle><circle class="node" cx="398.3251559519563" cy="290.1680633734198" r="4.331604783449201" style="fill: rgb(133, 187, 101);"></circle><circle class="node" cx="389.71442800499506" cy="99.62254037639201" r="12.386492643198073" style="fill: rgb(133, 187, 101);"></circle><circle class="node" cx="366.4218753126095" cy="324.83974860672214" r="4.242640687119286" style="fill: rgb(133, 187, 101);"></circle><circle class="node" cx="476.54836943701423" cy="202.35382036782352" r="6.720803523389149" style="fill: rgb(133, 187, 101);"></circle><circle class="node" cx="521.3569713335411" cy="247.05640732589364" r="7.502292982815321" style="fill: rgb(133, 187, 101);"></circle><circle class="node" cx="329.39725336968775" cy="275.8907993850836" r="2.9132112865358737" style="fill: rgb(133, 187, 101);"></circle><circle class="node" cx="418.3159514282628" cy="241.83747298102244" r="2.482337607981638" style="fill: rgb(133, 187, 101);"></circle><circle class="node" cx="428.00604722122176" cy="254.15556100092056" r="2.6570660511172846" style="fill: rgb(133, 187, 101);"></circle><circle class="node" cx="349.9853508884684" cy="289.3342855944739" r="3.162277660168379" style="fill: rgb(133, 187, 101);"></circle><circle class="node" cx="345.66104523517237" cy="415.6636115304413" r="4.638275541621045" style="fill: rgb(133, 187, 101);"></circle><circle class="node" cx="429.7252870271965" cy="384.14564487306035" r="2.9895819105687673" style="fill: rgb(133, 187, 101);"></circle><circle class="node" cx="317.52903635287447" cy="257.3051090605355" r="4.897877091148777" style="fill: rgb(133, 187, 101);"></circle><circle class="node" cx="345.69914676706765" cy="259.81653941806485" r="4.188221579620639" style="fill: rgb(133, 187, 101);"></circle><circle class="node" cx="437.9070146485835" cy="378.183987540465" r="2.8745782299321756" style="fill: rgb(133, 187, 101);"></circle><circle class="node" cx="409.67740967785227" cy="390.68363649654054" r="2.7405109012737023" style="fill: rgb(133, 187, 101);"></circle><circle class="node" cx="409.5703704576274" cy="291.7398015084104" r="2.830900916669462" style="fill: rgb(133, 187, 101);"></circle><circle class="node" cx="408.1204313371799" cy="241.7951747079608" r="2.6476404589747453" style="fill: rgb(133, 187, 101);"></circle><circle class="node" cx="350.9111584887823" cy="366.85264170553216" r="3.6117585744343437" style="fill: rgb(133, 187, 101);"></circle><circle class="node" cx="337.7263184629621" cy="267.30121207426487" r="3.2213661698105667" style="fill: rgb(133, 187, 101);"></circle><circle class="node" cx="337.89241640701323" cy="238.59739620694225" r="5.260228131934964" style="fill: rgb(133, 187, 101);"></circle><circle class="node" cx="345.44493065147736" cy="298.1291167363457" r="4.136762018777488" style="fill: rgb(133, 187, 101);"></circle><circle class="node" cx="338.8934943478309" cy="288.0419758198584" r="4.049691346263318" style="fill: rgb(133, 187, 101);"></circle><circle class="node" cx="323.0334638871732" cy="360.3869968958643" r="3.325898374875577" style="fill: rgb(133, 187, 101);"></circle><circle class="node" cx="431.0216124451375" cy="371.6068724997131" r="3.0220522828038563" style="fill: rgb(133, 187, 101);"></circle><circle class="node" cx="457.98728517762345" cy="280.6898549570002" r="2.765935646395266" style="fill: rgb(133, 187, 101);"></circle><circle class="node" cx="438.9255729138658" cy="249.88237515527788" r="3.6485065437792494" style="fill: rgb(133, 187, 101);"></circle><circle class="node" cx="422.6384700277801" cy="299.46691999390623" r="2.880555501982213" style="fill: rgb(133, 187, 101);"></circle><circle class="node" cx="430.9527545103373" cy="393.4516985442432" r="3.0121088957738564" style="fill: rgb(133, 187, 101);"></circle><circle class="node" cx="461.023046895843" cy="369.5694627453093" r="3.2294271937914933" style="fill: rgb(133, 187, 101);"></circle><circle class="node" cx="375.7747183953366" cy="347.9706500926913" r="2.9516774891576487" style="fill: rgb(133, 187, 101);"></circle><circle class="node" cx="346.76090241989937" cy="354.7484221640162" r="2.3043437243605824" style="fill: rgb(133, 187, 101);"></circle><circle class="node" cx="355.08722630183917" cy="264.75442720006885" r="2.4816929705344295" style="fill: rgb(133, 187, 101);"></circle><circle class="node" cx="373.9263397918952" cy="290.3006057428509" r="3.8280543360824963" style="fill: rgb(133, 187, 101);"></circle><circle class="node" cx="376.199943715518" cy="357.85765548475115" r="2.713005713226568" style="fill: rgb(133, 187, 101);"></circle><circle class="node" cx="445.0607460795376" cy="276.9326836412158" r="2.891228112757622" style="fill: rgb(133, 187, 101);"></circle><circle class="node" cx="393.03217005264884" cy="408.9284954305772" r="3.0038641780213697" style="fill: rgb(133, 187, 101);"></circle><circle class="node" cx="469.39737989997406" cy="293.98677928099755" r="3.160569568922665" style="fill: rgb(133, 187, 101);"></circle><circle class="node" cx="427.7618307646902" cy="282.12450175869344" r="2.836406176837161" style="fill: rgb(133, 187, 101);"></circle><circle class="node" cx="437.50292033144336" cy="259.01706426176463" r="2.9075763102625527" style="fill: rgb(133, 187, 101);"></circle><circle class="node" cx="453.64854509288995" cy="326.14756923064624" r="3.026284851100438" style="fill: rgb(133, 187, 101);"></circle><circle class="node" cx="320.8555488166884" cy="294.59846683630593" r="2.6851443164195103" style="fill: rgb(133, 187, 101);"></circle><circle class="node" cx="334.1213706756442" cy="378.7504857071299" r="3.3836666502479233" style="fill: rgb(133, 187, 101);"></circle><circle class="node" cx="442.7528107107058" cy="338.78377347334674" r="2.8082022719170356" style="fill: rgb(133, 187, 101);"></circle><circle class="node" cx="399.0190324199301" cy="393.0516819111696" r="3.176916744266365" style="fill: rgb(133, 187, 101);"></circle><circle class="node" cx="397.00738829291174" cy="373.3667066960455" r="2.8509647489928738" style="fill: rgb(133, 187, 101);"></circle><circle class="node" cx="335.674903413173" cy="300.03401480290364" r="2.982817460053498" style="fill: rgb(133, 187, 101);"></circle><circle class="node" cx="368.6980323720886" cy="312.8274623245377" r="3.2886471382621756" style="fill: rgb(133, 187, 101);"></circle><circle class="node" cx="297.07939188913133" cy="351.9851183310887" r="5.320864591398657" style="fill: rgb(133, 187, 101);"></circle><circle class="node" cx="418.80504500389094" cy="386.5574291108095" r="3.002132575353727" style="fill: rgb(133, 187, 101);"></circle><circle class="node" cx="442.1765995437045" cy="308.280536845099" r="3.076751533679637" style="fill: rgb(133, 187, 101);"></circle><circle class="node" cx="417.06730645027716" cy="278.87255961888127" r="3.3836666502479233" style="fill: rgb(133, 187, 101);"></circle><circle class="node" cx="347.04103657208157" cy="376.58464515055624" r="3.8639358172723313" style="fill: rgb(133, 187, 101);"></circle><circle class="node" cx="494.4725999049879" cy="166.6059628692509" r="9.125217805619766" style="fill: rgb(133, 187, 101);"></circle><circle class="node" cx="449.16085477055225" cy="230.81853672751237" r="5.368575229984208" style="fill: rgb(133, 187, 101);"></circle><circle class="node" cx="356.24871965551444" cy="357.7894468574863" r="3.162277660168379" style="fill: rgb(133, 187, 101);"></circle><circle class="node" cx="394.9718810958785" cy="339.04215004500884" r="1.8945184084616333" style="fill: rgb(133, 187, 101);"></circle><circle class="node" cx="439.4833616498159" cy="399.62234632421894" r="4.1952353926806065" style="fill: rgb(133, 187, 101);"></circle><circle class="node" cx="405.24641012146446" cy="310.4589215689925" r="1.0954451150103321" style="fill: rgb(133, 187, 101);"></circle><circle class="node" cx="426.84553882819534" cy="361.93198331521194" r="2.6174032933424685" style="fill: rgb(133, 187, 101);"></circle><circle class="node" cx="443.35716798098787" cy="328.5106075186977" r="2.941768175774563" style="fill: rgb(133, 187, 101);"></circle><circle class="node" cx="368.2192352360757" cy="265.97204775629183" r="2.8943393028461606" style="fill: rgb(133, 187, 101);"></circle><circle class="node" cx="366.5939617145109" cy="402.8558757637925" r="2.7615937427507324" style="fill: rgb(133, 187, 101);"></circle><circle class="node" cx="482.46822881645386" cy="258.0301709995634" r="5.45013761294153" style="fill: rgb(133, 187, 101);"></circle><circle class="node" cx="435.1131859522941" cy="299.9137062361785" r="2.9167790454540774" style="fill: rgb(133, 187, 101);"></circle><circle class="node" cx="368.6024822701592" cy="339.84776632094866" r="2.7333495934475707" style="fill: rgb(133, 187, 101);"></circle><circle class="node" cx="364.75757499686773" cy="294.1113301282691" r="2.7618834153526466" style="fill: rgb(133, 187, 101);"></circle><circle class="node" cx="346.34520202736525" cy="269.7664344802521" r="2.684101339368542" style="fill: rgb(133, 187, 101);"></circle><circle class="node" cx="395.6519989842808" cy="362.5636534730042" r="2.181742422927143" style="fill: rgb(133, 187, 101);"></circle><circle class="node" cx="389.58919748205847" cy="261.9055344070494" r="2.7262428358456994" style="fill: rgb(133, 187, 101);"></circle><circle class="node" cx="474.4561398459949" cy="334.3103726918204" r="2.9830186053727523" style="fill: rgb(133, 187, 101);"></circle><circle class="node" cx="370.6392243825708" cy="248.80527943351805" r="2.791200458584084" style="fill: rgb(133, 187, 101);"></circle><circle class="node" cx="452.37599861618264" cy="346.2773734303134" r="4.189128787707535" style="fill: rgb(133, 187, 101);"></circle><circle class="node" cx="385.14896392564526" cy="328.02010208668037" r="2" style="fill: rgb(133, 187, 101);"></circle><circle class="node" cx="390.68887045888016" cy="251.4003411382608" r="2.1450407921529138" style="fill: rgb(133, 187, 101);"></circle><circle class="node" cx="464.22699120322875" cy="360.7031274550085" r="2.5950722533293753" style="fill: rgb(133, 187, 101);"></circle><circle class="node" cx="414.1939971606106" cy="429.74662522871046" r="5.705085450718508" style="fill: rgb(133, 187, 101);"></circle><circle class="node" cx="314.64921998857864" cy="330.1185288477897" r="2.465846710564142" style="fill: rgb(133, 187, 101);"></circle><circle class="node" cx="356.22117284270115" cy="346.8140979743131" r="2.6174032933424685" style="fill: rgb(133, 187, 101);"></circle><circle class="node" cx="328.4761141931593" cy="369.9729589354414" r="2.8717242207426534" style="fill: rgb(133, 187, 101);"></circle><circle class="node" cx="414.6403864473016" cy="322.24724404736054" r="0.9486832980505138" style="fill: rgb(133, 187, 101);"></circle><circle class="node" cx="481.5352174639739" cy="300.8079789368403" r="2.464792080480623" style="fill: rgb(133, 187, 101);"></circle><circle class="node" cx="501.7437090158421" cy="422.72184978353687" r="8.925917319805286" style="fill: rgb(133, 187, 101);"></circle><circle class="node" cx="361.2690871475227" cy="334.6353637369654" r="2.186321110907545" style="fill: rgb(133, 187, 101);"></circle><circle class="node" cx="442.3074344029325" cy="317.69478734345165" r="4.196665342864499" style="fill: rgb(133, 187, 101);"></circle><circle class="node" cx="424.14899128903073" cy="221.43382860607863" r="5.800275855508943" style="fill: rgb(133, 187, 101);"></circle><circle class="node" cx="261.9735458976728" cy="281.1677713778818" r="6.43406558872382" style="fill: rgb(133, 187, 101);"></circle><circle class="node" cx="418.0162817997183" cy="250.22768265156287" r="2.756809750418044" style="fill: rgb(133, 187, 101);"></circle><circle class="node" cx="430.34055042322086" cy="308.8047490896421" r="4.47213595499958" style="fill: rgb(133, 187, 101);"></circle><circle class="node" cx="319.6529850069267" cy="393.943267246982" r="4.979959839195493" style="fill: rgb(133, 187, 101);"></circle><circle class="node" cx="308.01136103553296" cy="213.52748295987186" r="6.654772723391837" style="fill: rgb(133, 187, 101);"></circle><circle class="node" cx="408.85805274886815" cy="336.5460100305412" r="1.6733200530681511" style="fill: rgb(133, 187, 101);"></circle><circle class="node" cx="462.5914863032425" cy="348.1778228066071" r="2.3019991311901054" style="fill: rgb(133, 187, 101);"></circle><circle class="node" cx="400" cy="325" r="4.5" style="fill: rgb(185, 205, 111);"></circle></svg>
