<svg width="1440" height="320" style="overflow: hidden;"><defs><clipPath id="c3-1441157363913-clip"><rect width="1378" height="256"></rect></clipPath><clipPath id="c3-1441157363913-clip-xaxis"><rect x="-61" y="-20" width="1470" height="80"></rect></clipPath><clipPath id="c3-1441157363913-clip-yaxis"><rect x="-59" y="-4" width="80" height="280"></rect></clipPath><clipPath id="c3-1441157363913-clip-grid"><rect width="1378" height="256"></rect></clipPath><clipPath id="c3-1441157363913-clip-subchart"><rect width="1378"></rect></clipPath></defs><g transform="translate(60.5,4.5)"><text class="c3-text c3-empty" text-anchor="middle" dominant-baseline="middle" x="689" y="128" style="opacity: 0;"></text><rect class="c3-zoom-rect" width="1378" height="256" style="opacity: 0;"></rect><g clip-path="url(http://daily-bruin.github.io/usac-fee-trend/#c3-1441157363913-clip)" class="c3-regions" style="visibility: visible;"></g><g clip-path="url(http://daily-bruin.github.io/usac-fee-trend/#c3-1441157363913-clip-grid)" class="c3-grid" style="visibility: visible;"><g class="c3-xgrid-focus"><line class="c3-xgrid-focus" x1="478" x2="478" y1="0" y2="256" style="visibility: hidden;"></line></g></g><g clip-path="url(http://daily-bruin.github.io/usac-fee-trend/#c3-1441157363913-clip)" class="c3-chart"><g class="c3-event-rects c3-event-rects-single" style="fill-opacity: 0;"><rect class=" c3-event-rect c3-event-rect-0" x="-6.878787878787879" y="0" width="41.75757575757576" height="256"></rect><rect class=" c3-event-rect c3-event-rect-1" x="35.121212121212125" y="0" width="41.75757575757576" height="256"></rect><rect class=" c3-event-rect c3-event-rect-2" x="77.12121212121212" y="0" width="41.75757575757576" height="256"></rect><rect class=" c3-event-rect c3-event-rect-3" x="120.12121212121212" y="0" width="41.75757575757576" height="256"></rect><rect class=" c3-event-rect c3-event-rect-4" x="162.12121212121212" y="0" width="41.75757575757576" height="256"></rect><rect class=" c3-event-rect c3-event-rect-5" x="204.12121212121212" y="0" width="41.75757575757576" height="256"></rect><rect class=" c3-event-rect c3-event-rect-6" x="246.12121212121212" y="0" width="41.75757575757576" height="256"></rect><rect class=" c3-event-rect c3-event-rect-7" x="289.1212121212121" y="0" width="41.75757575757576" height="256"></rect><rect class=" c3-event-rect c3-event-rect-8" x="331.1212121212121" y="0" width="41.75757575757576" height="256"></rect><rect class=" c3-event-rect c3-event-rect-9" x="373.1212121212121" y="0" width="41.75757575757576" height="256"></rect><rect class=" c3-event-rect c3-event-rect-10" x="415.1212121212121" y="0" width="41.75757575757576" height="256"></rect><rect class=" c3-event-rect c3-event-rect-11" x="457.1212121212121" y="0" width="41.75757575757576" height="256"></rect><rect class=" c3-event-rect c3-event-rect-12" x="500.1212121212121" y="0" width="41.75757575757576" height="256"></rect><rect class=" c3-event-rect c3-event-rect-13" x="542.1212121212121" y="0" width="41.75757575757576" height="256"></rect><rect class=" c3-event-rect c3-event-rect-14" x="584.1212121212121" y="0" width="41.75757575757576" height="256"></rect><rect class=" c3-event-rect c3-event-rect-15" x="626.1212121212121" y="0" width="41.75757575757576" height="256"></rect><rect class=" c3-event-rect c3-event-rect-16" x="668.1212121212121" y="0" width="41.75757575757576" height="256"></rect><rect class=" c3-event-rect c3-event-rect-17" x="711.1212121212121" y="0" width="41.75757575757576" height="256"></rect><rect class=" c3-event-rect c3-event-rect-18" x="753.1212121212121" y="0" width="41.75757575757576" height="256"></rect><rect class=" c3-event-rect c3-event-rect-19" x="795.1212121212121" y="0" width="41.75757575757576" height="256"></rect><rect class=" c3-event-rect c3-event-rect-20" x="837.1212121212121" y="0" width="41.75757575757576" height="256"></rect><rect class=" c3-event-rect c3-event-rect-21" x="880.1212121212121" y="0" width="41.75757575757576" height="256"></rect><rect class=" c3-event-rect c3-event-rect-22" x="922.1212121212121" y="0" width="41.75757575757576" height="256"></rect><rect class=" c3-event-rect c3-event-rect-23" x="964.1212121212121" y="0" width="41.75757575757576" height="256"></rect><rect class=" c3-event-rect c3-event-rect-24" x="1006.1212121212121" y="0" width="41.75757575757576" height="256"></rect><rect class=" c3-event-rect c3-event-rect-25" x="1048.121212121212" y="0" width="41.75757575757576" height="256"></rect><rect class=" c3-event-rect c3-event-rect-26" x="1091.121212121212" y="0" width="41.75757575757576" height="256"></rect><rect class=" c3-event-rect c3-event-rect-27" x="1133.121212121212" y="0" width="41.75757575757576" height="256"></rect><rect class=" c3-event-rect c3-event-rect-28" x="1175.121212121212" y="0" width="41.75757575757576" height="256"></rect><rect class=" c3-event-rect c3-event-rect-29" x="1217.121212121212" y="0" width="41.75757575757576" height="256"></rect><rect class=" c3-event-rect c3-event-rect-30" x="1260.121212121212" y="0" width="41.75757575757576" height="256"></rect><rect class=" c3-event-rect c3-event-rect-31" x="1302.121212121212" y="0" width="41.75757575757576" height="256"></rect><rect class=" c3-event-rect c3-event-rect-32" x="1344.121212121212" y="0" width="41.75757575757576" height="256"></rect></g><g class="c3-chart-bars"><g class="c3-chart-bar c3-target c3-target-UC-tuition" style="opacity: 1; pointer-events: none;"><g class=" c3-shapes c3-shapes-UC-tuition c3-bars c3-bars-UC-tuition" style="cursor: pointer;"></g></g><g class="c3-chart-bar c3-target c3-target-USAC-fees" style="opacity: 1; pointer-events: none;"><g class=" c3-shapes c3-shapes-USAC-fees c3-bars c3-bars-USAC-fees" style="cursor: pointer;"></g></g></g><g class="c3-chart-lines"><g class="c3-chart-line c3-target c3-target-UC-tuition" style="opacity: 1; pointer-events: none;"><g class=" c3-shapes c3-shapes-UC-tuition c3-lines c3-lines-UC-tuition"><path class=" c3-shape c3-shape c3-line c3-line-UC-tuition" d="M14,233.37000552100426L56,231.85553665797687L98,232.9522210179905L141,232.91740563142434L183,232.58665954956595L225,230.0277294063741L267,228.94845276227355L310,227.55583770696768L352,224.31800772940596L394,212.7244874878989L436,203.01099753258381L478,191.12154659578448L521,184.43699438915422L563,183.94957911300818L605,183.47957153014517L647,182.67881788805377L689,185.72516330739168L732,188.05779350579354L774,186.99592453234607L816,188.8237317839488L858,181.37324127653326L901,159.7354850204827L943,146.12267296914914L985,137.592905817633L1027,136.72252140240934L1069,125.14640885418537L1112,116.2684879275278L1154,83.73351895762318L1196,59.658686366102295L1238,26.549263653636235L1281,26.218517684927818L1323,25.835548477960224L1365,24.18181818181819" style="stroke: rgb(31, 119, 180); opacity: 1;"></path></g><g class=" c3-shapes c3-shapes-UC-tuition c3-areas c3-areas-UC-tuition"><path class=" c3-shape c3-shape c3-area c3-area-UC-tuition" d="M14,233.37000552100426L56,231.85553665797687L98,232.9522210179905L141,232.91740563142434L183,232.58665954956595L225,230.0277294063741L267,228.94845276227355L310,227.55583770696768L352,224.31800772940596L394,212.7244874878989L436,203.01099753258381L478,191.12154659578448L521,184.43699438915422L563,183.94957911300818L605,183.47957153014517L647,182.67881788805377L689,185.72516330739168L732,188.05779350579354L774,186.99592453234607L816,188.8237317839488L858,181.37324127653326L901,159.7354850204827L943,146.12267296914914L985,137.592905817633L1027,136.72252140240934L1069,125.14640885418537L1112,116.2684879275278L1154,83.73351895762318L1196,59.658686366102295L1238,26.549263653636235L1281,26.218517684927818L1323,25.835548477960224L1365,24.18181818181819L1365,256L1323,256L1281,256L1238,256L1196,256L1154,256L1112,256L1069,256L1027,256L985,256L943,256L901,256L858,256L816,256L774,256L732,256L689,256L647,256L605,256L563,256L521,256L478,256L436,256L394,256L352,256L310,256L267,256L225,256L183,256L141,256L98,256L56,256L14,256Z" style="fill: rgb(31, 119, 180); opacity: 0.200000002980232;"></path></g><g class=" c3-selected-circles c3-selected-circles-UC-tuition"></g><g class=" c3-shapes c3-shapes-UC-tuition c3-circles c3-circles-UC-tuition" style="cursor: pointer;"><circle class=" c3-shape c3-shape-0 c3-circle c3-circle-0" r="2.5" cx="14" cy="233.37000552100426" style="fill: rgb(31, 119, 180); opacity: 1;"></circle><circle class=" c3-shape c3-shape-1 c3-circle c3-circle-1" r="2.5" cx="56" cy="231.85553665797687" style="fill: rgb(31, 119, 180); opacity: 1;"></circle><circle class=" c3-shape c3-shape-2 c3-circle c3-circle-2" r="2.5" cx="98" cy="232.9522210179905" style="fill: rgb(31, 119, 180); opacity: 1;"></circle><circle class=" c3-shape c3-shape-3 c3-circle c3-circle-3" r="2.5" cx="141" cy="232.91740563142434" style="fill: rgb(31, 119, 180); opacity: 1;"></circle><circle class=" c3-shape c3-shape-4 c3-circle c3-circle-4" r="2.5" cx="183" cy="232.58665954956595" style="fill: rgb(31, 119, 180); opacity: 1;"></circle><circle class=" c3-shape c3-shape-5 c3-circle c3-circle-5" r="2.5" cx="225" cy="230.0277294063741" style="fill: rgb(31, 119, 180); opacity: 1;"></circle><circle class=" c3-shape c3-shape-6 c3-circle c3-circle-6" r="2.5" cx="267" cy="228.94845276227355" style="fill: rgb(31, 119, 180); opacity: 1;"></circle><circle class=" c3-shape c3-shape-7 c3-circle c3-circle-7" r="2.5" cx="310" cy="227.55583770696768" style="fill: rgb(31, 119, 180); opacity: 1;"></circle><circle class=" c3-shape c3-shape-8 c3-circle c3-circle-8" r="2.5" cx="352" cy="224.31800772940596" style="fill: rgb(31, 119, 180); opacity: 1;"></circle><circle class=" c3-shape c3-shape-9 c3-circle c3-circle-9" r="2.5" cx="394" cy="212.7244874878989" style="fill: rgb(31, 119, 180); opacity: 1;"></circle><circle class=" c3-shape c3-shape-10 c3-circle c3-circle-10" r="2.5" cx="436" cy="203.01099753258381" style="fill: rgb(31, 119, 180); opacity: 1;"></circle><circle class=" c3-shape c3-shape-11 c3-circle c3-circle-11" r="2.5" cx="478" cy="191.12154659578448" style="fill: rgb(31, 119, 180); opacity: 1;"></circle><circle class=" c3-shape c3-shape-12 c3-circle c3-circle-12" r="2.5" cx="521" cy="184.43699438915422" style="fill: rgb(31, 119, 180); opacity: 1;"></circle><circle class=" c3-shape c3-shape-13 c3-circle c3-circle-13" r="2.5" cx="563" cy="183.94957911300818" style="fill: rgb(31, 119, 180); opacity: 1;"></circle><circle class=" c3-shape c3-shape-14 c3-circle c3-circle-14" r="2.5" cx="605" cy="183.47957153014517" style="fill: rgb(31, 119, 180); opacity: 1;"></circle><circle class=" c3-shape c3-shape-15 c3-circle c3-circle-15" r="2.5" cx="647" cy="182.67881788805377" style="fill: rgb(31, 119, 180); opacity: 1;"></circle><circle class=" c3-shape c3-shape-16 c3-circle c3-circle-16" r="2.5" cx="689" cy="185.72516330739168" style="fill: rgb(31, 119, 180); opacity: 1;"></circle><circle class=" c3-shape c3-shape-17 c3-circle c3-circle-17" r="2.5" cx="732" cy="188.05779350579354" style="fill: rgb(31, 119, 180); opacity: 1;"></circle><circle class=" c3-shape c3-shape-18 c3-circle c3-circle-18" r="2.5" cx="774" cy="186.99592453234607" style="fill: rgb(31, 119, 180); opacity: 1;"></circle><circle class=" c3-shape c3-shape-19 c3-circle c3-circle-19" r="2.5" cx="816" cy="188.8237317839488" style="fill: rgb(31, 119, 180); opacity: 1;"></circle><circle class=" c3-shape c3-shape-20 c3-circle c3-circle-20" r="2.5" cx="858" cy="181.37324127653326" style="fill: rgb(31, 119, 180); opacity: 1;"></circle><circle class=" c3-shape c3-shape-21 c3-circle c3-circle-21" r="2.5" cx="901" cy="159.7354850204827" style="fill: rgb(31, 119, 180); opacity: 1;"></circle><circle class=" c3-shape c3-shape-22 c3-circle c3-circle-22" r="2.5" cx="943" cy="146.12267296914914" style="fill: rgb(31, 119, 180); opacity: 1;"></circle><circle class=" c3-shape c3-shape-23 c3-circle c3-circle-23" r="2.5" cx="985" cy="137.592905817633" style="fill: rgb(31, 119, 180); opacity: 1;"></circle><circle class=" c3-shape c3-shape-24 c3-circle c3-circle-24" r="2.5" cx="1027" cy="136.72252140240934" style="fill: rgb(31, 119, 180); opacity: 1;"></circle><circle class=" c3-shape c3-shape-25 c3-circle c3-circle-25" r="2.5" cx="1069" cy="125.14640885418537" style="fill: rgb(31, 119, 180); opacity: 1;"></circle><circle class=" c3-shape c3-shape-26 c3-circle c3-circle-26" r="2.5" cx="1112" cy="116.2684879275278" style="fill: rgb(31, 119, 180); opacity: 1;"></circle><circle class=" c3-shape c3-shape-27 c3-circle c3-circle-27" r="2.5" cx="1154" cy="83.73351895762318" style="fill: rgb(31, 119, 180); opacity: 1;"></circle><circle class=" c3-shape c3-shape-28 c3-circle c3-circle-28" r="2.5" cx="1196" cy="59.658686366102295" style="fill: rgb(31, 119, 180); opacity: 1;"></circle><circle class=" c3-shape c3-shape-29 c3-circle c3-circle-29" r="2.5" cx="1238" cy="26.549263653636235" style="fill: rgb(31, 119, 180); opacity: 1;"></circle><circle class=" c3-shape c3-shape-30 c3-circle c3-circle-30" r="2.5" cx="1281" cy="26.218517684927818" style="fill: rgb(31, 119, 180); opacity: 1;"></circle><circle class=" c3-shape c3-shape-31 c3-circle c3-circle-31" r="2.5" cx="1323" cy="25.835548477960224" style="fill: rgb(31, 119, 180); opacity: 1;"></circle><circle class=" c3-shape c3-shape-32 c3-circle c3-circle-32" r="2.5" cx="1365" cy="24.18181818181819" style="fill: rgb(31, 119, 180); opacity: 1;"></circle></g></g><g class="c3-chart-line c3-target c3-target-USAC-fees" style="opacity: 1; pointer-events: none;"><g class=" c3-shapes c3-shapes-USAC-fees c3-lines c3-lines-USAC-fees"><path class=" c3-shape c3-shape c3-line c3-line-USAC-fees" d="M14,233.37000552100426L56,233.37000552100426L98,233.37000552100426L141,233.37000552100426L183,233.37000552100426L225,227.71250690125532L267,227.71250690125532L310,227.71250690125532L352,219.2262589716319L394,219.2262589716319L436,219.2262589716319L478,205.08251242225958L521,205.08251242225958L563,205.08251242225958L605,205.08251242225958L647,205.08251242225958L689,205.08251242225958L732,190.93876587288725L774,187.8554291251241L816,187.8554291251241L858,161.68949800878522L901,161.68949800878522L943,161.49148555709402L985,143.10461504290998L1027,143.10461504290998L1069,143.10461504290998L1112,133.0625549928556L1154,133.0625549928556L1196,115.52430927163392L1238,113.4310347823268L1281,112.92185990654941L1323,109.81023566568749L1365,104.71848690791346" style="stroke: rgb(255, 127, 14); opacity: 1;"></path></g><g class=" c3-shapes c3-shapes-USAC-fees c3-areas c3-areas-USAC-fees"><path class=" c3-shape c3-shape c3-area c3-area-USAC-fees" d="M14,233.37000552100426L56,233.37000552100426L98,233.37000552100426L141,233.37000552100426L183,233.37000552100426L225,227.71250690125532L267,227.71250690125532L310,227.71250690125532L352,219.2262589716319L394,219.2262589716319L436,219.2262589716319L478,205.08251242225958L521,205.08251242225958L563,205.08251242225958L605,205.08251242225958L647,205.08251242225958L689,205.08251242225958L732,190.93876587288725L774,187.8554291251241L816,187.8554291251241L858,161.68949800878522L901,161.68949800878522L943,161.49148555709402L985,143.10461504290998L1027,143.10461504290998L1069,143.10461504290998L1112,133.0625549928556L1154,133.0625549928556L1196,115.52430927163392L1238,113.4310347823268L1281,112.92185990654941L1323,109.81023566568749L1365,104.71848690791346L1365,256L1323,256L1281,256L1238,256L1196,256L1154,256L1112,256L1069,256L1027,256L985,256L943,256L901,256L858,256L816,256L774,256L732,256L689,256L647,256L605,256L563,256L521,256L478,256L436,256L394,256L352,256L310,256L267,256L225,256L183,256L141,256L98,256L56,256L14,256Z" style="fill: rgb(255, 127, 14); opacity: 0.200000002980232;"></path></g><g class=" c3-selected-circles c3-selected-circles-USAC-fees"></g><g class=" c3-shapes c3-shapes-USAC-fees c3-circles c3-circles-USAC-fees" style="cursor: pointer;"><circle class=" c3-shape c3-shape-0 c3-circle c3-circle-0" r="2.5" cx="14" cy="233.37000552100426" style="fill: rgb(255, 127, 14); opacity: 1;"></circle><circle class=" c3-shape c3-shape-1 c3-circle c3-circle-1" r="2.5" cx="56" cy="233.37000552100426" style="fill: rgb(255, 127, 14); opacity: 1;"></circle><circle class=" c3-shape c3-shape-2 c3-circle c3-circle-2" r="2.5" cx="98" cy="233.37000552100426" style="fill: rgb(255, 127, 14); opacity: 1;"></circle><circle class=" c3-shape c3-shape-3 c3-circle c3-circle-3" r="2.5" cx="141" cy="233.37000552100426" style="fill: rgb(255, 127, 14); opacity: 1;"></circle><circle class=" c3-shape c3-shape-4 c3-circle c3-circle-4" r="2.5" cx="183" cy="233.37000552100426" style="fill: rgb(255, 127, 14); opacity: 1;"></circle><circle class=" c3-shape c3-shape-5 c3-circle c3-circle-5" r="2.5" cx="225" cy="227.71250690125532" style="fill: rgb(255, 127, 14); opacity: 1;"></circle><circle class=" c3-shape c3-shape-6 c3-circle c3-circle-6" r="2.5" cx="267" cy="227.71250690125532" style="fill: rgb(255, 127, 14); opacity: 1;"></circle><circle class=" c3-shape c3-shape-7 c3-circle c3-circle-7" r="2.5" cx="310" cy="227.71250690125532" style="fill: rgb(255, 127, 14); opacity: 1;"></circle><circle class=" c3-shape c3-shape-8 c3-circle c3-circle-8" r="2.5" cx="352" cy="219.2262589716319" style="fill: rgb(255, 127, 14); opacity: 1;"></circle><circle class=" c3-shape c3-shape-9 c3-circle c3-circle-9" r="2.5" cx="394" cy="219.2262589716319" style="fill: rgb(255, 127, 14); opacity: 1;"></circle><circle class=" c3-shape c3-shape-10 c3-circle c3-circle-10" r="2.5" cx="436" cy="219.2262589716319" style="fill: rgb(255, 127, 14); opacity: 1;"></circle><circle class=" c3-shape c3-shape-11 c3-circle c3-circle-11" r="2.5" cx="478" cy="205.08251242225958" style="fill: rgb(255, 127, 14); opacity: 1;"></circle><circle class=" c3-shape c3-shape-12 c3-circle c3-circle-12" r="2.5" cx="521" cy="205.08251242225958" style="fill: rgb(255, 127, 14); opacity: 1;"></circle><circle class=" c3-shape c3-shape-13 c3-circle c3-circle-13" r="2.5" cx="563" cy="205.08251242225958" style="fill: rgb(255, 127, 14); opacity: 1;"></circle><circle class=" c3-shape c3-shape-14 c3-circle c3-circle-14" r="2.5" cx="605" cy="205.08251242225958" style="fill: rgb(255, 127, 14); opacity: 1;"></circle><circle class=" c3-shape c3-shape-15 c3-circle c3-circle-15" r="2.5" cx="647" cy="205.08251242225958" style="fill: rgb(255, 127, 14); opacity: 1;"></circle><circle class=" c3-shape c3-shape-16 c3-circle c3-circle-16" r="2.5" cx="689" cy="205.08251242225958" style="fill: rgb(255, 127, 14); opacity: 1;"></circle><circle class=" c3-shape c3-shape-17 c3-circle c3-circle-17" r="2.5" cx="732" cy="190.93876587288725" style="fill: rgb(255, 127, 14); opacity: 1;"></circle><circle class=" c3-shape c3-shape-18 c3-circle c3-circle-18" r="2.5" cx="774" cy="187.8554291251241" style="fill: rgb(255, 127, 14); opacity: 1;"></circle><circle class=" c3-shape c3-shape-19 c3-circle c3-circle-19" r="2.5" cx="816" cy="187.8554291251241" style="fill: rgb(255, 127, 14); opacity: 1;"></circle><circle class=" c3-shape c3-shape-20 c3-circle c3-circle-20" r="2.5" cx="858" cy="161.68949800878522" style="fill: rgb(255, 127, 14); opacity: 1;"></circle><circle class=" c3-shape c3-shape-21 c3-circle c3-circle-21" r="2.5" cx="901" cy="161.68949800878522" style="fill: rgb(255, 127, 14); opacity: 1;"></circle><circle class=" c3-shape c3-shape-22 c3-circle c3-circle-22" r="2.5" cx="943" cy="161.49148555709402" style="fill: rgb(255, 127, 14); opacity: 1;"></circle><circle class=" c3-shape c3-shape-23 c3-circle c3-circle-23" r="2.5" cx="985" cy="143.10461504290998" style="fill: rgb(255, 127, 14); opacity: 1;"></circle><circle class=" c3-shape c3-shape-24 c3-circle c3-circle-24" r="2.5" cx="1027" cy="143.10461504290998" style="fill: rgb(255, 127, 14); opacity: 1;"></circle><circle class=" c3-shape c3-shape-25 c3-circle c3-circle-25" r="2.5" cx="1069" cy="143.10461504290998" style="fill: rgb(255, 127, 14); opacity: 1;"></circle><circle class=" c3-shape c3-shape-26 c3-circle c3-circle-26" r="2.5" cx="1112" cy="133.0625549928556" style="fill: rgb(255, 127, 14); opacity: 1;"></circle><circle class=" c3-shape c3-shape-27 c3-circle c3-circle-27" r="2.5" cx="1154" cy="133.0625549928556" style="fill: rgb(255, 127, 14); opacity: 1;"></circle><circle class=" c3-shape c3-shape-28 c3-circle c3-circle-28" r="2.5" cx="1196" cy="115.52430927163392" style="fill: rgb(255, 127, 14); opacity: 1;"></circle><circle class=" c3-shape c3-shape-29 c3-circle c3-circle-29" r="2.5" cx="1238" cy="113.4310347823268" style="fill: rgb(255, 127, 14); opacity: 1;"></circle><circle class=" c3-shape c3-shape-30 c3-circle c3-circle-30" r="2.5" cx="1281" cy="112.92185990654941" style="fill: rgb(255, 127, 14); opacity: 1;"></circle><circle class=" c3-shape c3-shape-31 c3-circle c3-circle-31" r="2.5" cx="1323" cy="109.81023566568749" style="fill: rgb(255, 127, 14); opacity: 1;"></circle><circle class=" c3-shape c3-shape-32 c3-circle c3-circle-32" r="2.5" cx="1365" cy="104.71848690791346" style="fill: rgb(255, 127, 14); opacity: 1;"></circle></g></g></g><g class="c3-chart-arcs" transform="translate(689,123)"><text class="c3-chart-arcs-title" style="text-anchor: middle; opacity: 0;"></text></g><g class="c3-chart-texts"><g class="c3-chart-text c3-target c3-target-UC-tuition" style="opacity: 1; pointer-events: none;"><g class=" c3-texts c3-texts-UC-tuition"></g></g><g class="c3-chart-text c3-target c3-target-USAC-fees" style="opacity: 1; pointer-events: none;"><g class=" c3-texts c3-texts-USAC-fees"></g></g></g></g><g clip-path="url(http://daily-bruin.github.io/usac-fee-trend/#c3-1441157363913-clip-grid)" class="c3-grid c3-grid-lines"><g class="c3-xgrid-lines"></g><g class="c3-ygrid-lines"></g></g><g class="c3-axis c3-axis-x" clip-path="url(http://daily-bruin.github.io/usac-fee-trend/#c3-1441157363913-clip-xaxis)" transform="translate(0,256)" style="visibility: visible; opacity: 1;"><text class="c3-axis-x-label" transform="" x="689" dx="0" dy="3em" style="text-anchor: middle;">Year</text><g class="tick" transform="translate(14, 0)" style="opacity: 1;"><line y2="6" x1="0" x2="0"></line><text y="9" x="0" transform="" style="text-anchor: middle; display: block;"><tspan x="0" dy=".71em" dx="0">1982</tspan></text></g><g class="tick" transform="translate(56, 0)" style="opacity: 1;"><line y2="6" x1="0" x2="0"></line><text y="9" x="0" transform="" style="text-anchor: middle; display: block;"><tspan x="0" dy=".71em" dx="0">1983</tspan></text></g><g class="tick" transform="translate(98, 0)" style="opacity: 1;"><line y2="6" x1="0" x2="0"></line><text y="9" x="0" transform="" style="text-anchor: middle; display: block;"><tspan x="0" dy=".71em" dx="0">1984</tspan></text></g><g class="tick" transform="translate(141, 0)" style="opacity: 1;"><line y2="6" x1="0" x2="0"></line><text y="9" x="0" transform="" style="text-anchor: middle; display: block;"><tspan x="0" dy=".71em" dx="0">1985</tspan></text></g><g class="tick" transform="translate(183, 0)" style="opacity: 1;"><line y2="6" x1="0" x2="0"></line><text y="9" x="0" transform="" style="text-anchor: middle; display: block;"><tspan x="0" dy=".71em" dx="0">1986</tspan></text></g><g class="tick" transform="translate(225, 0)" style="opacity: 1;"><line y2="6" x1="0" x2="0"></line><text y="9" x="0" transform="" style="text-anchor: middle; display: block;"><tspan x="0" dy=".71em" dx="0">1987</tspan></text></g><g class="tick" transform="translate(267, 0)" style="opacity: 1;"><line y2="6" x1="0" x2="0"></line><text y="9" x="0" transform="" style="text-anchor: middle; display: block;"><tspan x="0" dy=".71em" dx="0">1988</tspan></text></g><g class="tick" transform="translate(310, 0)" style="opacity: 1;"><line y2="6" x1="0" x2="0"></line><text y="9" x="0" transform="" style="text-anchor: middle; display: block;"><tspan x="0" dy=".71em" dx="0">1989</tspan></text></g><g class="tick" transform="translate(352, 0)" style="opacity: 1;"><line y2="6" x1="0" x2="0"></line><text y="9" x="0" transform="" style="text-anchor: middle; display: block;"><tspan x="0" dy=".71em" dx="0">1990</tspan></text></g><g class="tick" transform="translate(394, 0)" style="opacity: 1;"><line y2="6" x1="0" x2="0"></line><text y="9" x="0" transform="" style="text-anchor: middle; display: block;"><tspan x="0" dy=".71em" dx="0">1991</tspan></text></g><g class="tick" transform="translate(436, 0)" style="opacity: 1;"><line y2="6" x1="0" x2="0"></line><text y="9" x="0" transform="" style="text-anchor: middle; display: block;"><tspan x="0" dy=".71em" dx="0">1992</tspan></text></g><g class="tick" transform="translate(478, 0)" style="opacity: 1;"><line y2="6" x1="0" x2="0"></line><text y="9" x="0" transform="" style="text-anchor: middle; display: block;"><tspan x="0" dy=".71em" dx="0">1993</tspan></text></g><g class="tick" transform="translate(521, 0)" style="opacity: 1;"><line y2="6" x1="0" x2="0"></line><text y="9" x="0" transform="" style="text-anchor: middle; display: block;"><tspan x="0" dy=".71em" dx="0">1994</tspan></text></g><g class="tick" transform="translate(563, 0)" style="opacity: 1;"><line y2="6" x1="0" x2="0"></line><text y="9" x="0" transform="" style="text-anchor: middle; display: block;"><tspan x="0" dy=".71em" dx="0">1995</tspan></text></g><g class="tick" transform="translate(605, 0)" style="opacity: 1;"><line y2="6" x1="0" x2="0"></line><text y="9" x="0" transform="" style="text-anchor: middle; display: block;"><tspan x="0" dy=".71em" dx="0">1996</tspan></text></g><g class="tick" transform="translate(647, 0)" style="opacity: 1;"><line y2="6" x1="0" x2="0"></line><text y="9" x="0" transform="" style="text-anchor: middle; display: block;"><tspan x="0" dy=".71em" dx="0">1997</tspan></text></g><g class="tick" transform="translate(689, 0)" style="opacity: 1;"><line y2="6" x1="0" x2="0"></line><text y="9" x="0" transform="" style="text-anchor: middle; display: block;"><tspan x="0" dy=".71em" dx="0">1998</tspan></text></g><g class="tick" transform="translate(732, 0)" style="opacity: 1;"><line y2="6" x1="0" x2="0"></line><text y="9" x="0" transform="" style="text-anchor: middle; display: block;"><tspan x="0" dy=".71em" dx="0">1999</tspan></text></g><g class="tick" transform="translate(774, 0)" style="opacity: 1;"><line y2="6" x1="0" x2="0"></line><text y="9" x="0" transform="" style="text-anchor: middle; display: block;"><tspan x="0" dy=".71em" dx="0">2000</tspan></text></g><g class="tick" transform="translate(816, 0)" style="opacity: 1;"><line y2="6" x1="0" x2="0"></line><text y="9" x="0" transform="" style="text-anchor: middle; display: block;"><tspan x="0" dy=".71em" dx="0">2001</tspan></text></g><g class="tick" transform="translate(858, 0)" style="opacity: 1;"><line y2="6" x1="0" x2="0"></line><text y="9" x="0" transform="" style="text-anchor: middle; display: block;"><tspan x="0" dy=".71em" dx="0">2002</tspan></text></g><g class="tick" transform="translate(901, 0)" style="opacity: 1;"><line y2="6" x1="0" x2="0"></line><text y="9" x="0" transform="" style="text-anchor: middle; display: block;"><tspan x="0" dy=".71em" dx="0">2003</tspan></text></g><g class="tick" transform="translate(943, 0)" style="opacity: 1;"><line y2="6" x1="0" x2="0"></line><text y="9" x="0" transform="" style="text-anchor: middle; display: block;"><tspan x="0" dy=".71em" dx="0">2004</tspan></text></g><g class="tick" transform="translate(985, 0)" style="opacity: 1;"><line y2="6" x1="0" x2="0"></line><text y="9" x="0" transform="" style="text-anchor: middle; display: block;"><tspan x="0" dy=".71em" dx="0">2005</tspan></text></g><g class="tick" transform="translate(1027, 0)" style="opacity: 1;"><line y2="6" x1="0" x2="0"></line><text y="9" x="0" transform="" style="text-anchor: middle; display: block;"><tspan x="0" dy=".71em" dx="0">2006</tspan></text></g><g class="tick" transform="translate(1069, 0)" style="opacity: 1;"><line y2="6" x1="0" x2="0"></line><text y="9" x="0" transform="" style="text-anchor: middle; display: block;"><tspan x="0" dy=".71em" dx="0">2007</tspan></text></g><g class="tick" transform="translate(1112, 0)" style="opacity: 1;"><line y2="6" x1="0" x2="0"></line><text y="9" x="0" transform="" style="text-anchor: middle; display: block;"><tspan x="0" dy=".71em" dx="0">2008</tspan></text></g><g class="tick" transform="translate(1154, 0)" style="opacity: 1;"><line y2="6" x1="0" x2="0"></line><text y="9" x="0" transform="" style="text-anchor: middle; display: block;"><tspan x="0" dy=".71em" dx="0">2009</tspan></text></g><g class="tick" transform="translate(1196, 0)" style="opacity: 1;"><line y2="6" x1="0" x2="0"></line><text y="9" x="0" transform="" style="text-anchor: middle; display: block;"><tspan x="0" dy=".71em" dx="0">2010</tspan></text></g><g class="tick" transform="translate(1238, 0)" style="opacity: 1;"><line y2="6" x1="0" x2="0"></line><text y="9" x="0" transform="" style="text-anchor: middle; display: block;"><tspan x="0" dy=".71em" dx="0">2011</tspan></text></g><g class="tick" transform="translate(1281, 0)" style="opacity: 1;"><line y2="6" x1="0" x2="0"></line><text y="9" x="0" transform="" style="text-anchor: middle; display: block;"><tspan x="0" dy=".71em" dx="0">2012</tspan></text></g><g class="tick" transform="translate(1323, 0)" style="opacity: 1;"><line y2="6" x1="0" x2="0"></line><text y="9" x="0" transform="" style="text-anchor: middle; display: block;"><tspan x="0" dy=".71em" dx="0">2013</tspan></text></g><g class="tick" transform="translate(1365, 0)" style="opacity: 1;"><line y2="6" x1="0" x2="0"></line><text y="9" x="0" transform="" style="text-anchor: middle; display: block;"><tspan x="0" dy=".71em" dx="0">2014</tspan></text></g><path class="domain" d="M0,6V0H1378V6"></path></g><g class="c3-axis c3-axis-y" clip-path="url(http://daily-bruin.github.io/usac-fee-trend/#c3-1441157363913-clip-yaxis)" transform="translate(0,0)" style="visibility: visible; opacity: 1;"><text class="c3-axis-y-label" transform="rotate(-90)" x="-128" dx="0" dy="-36.125" style="text-anchor: middle;">Fee increase relative to 1982</text><g class="tick" transform="translate(0,256)" style="opacity: 1;"><line x2="-6"></line><text x="-9" y="0" style="text-anchor: end;"><tspan x="-9" dy="3">0x</tspan></text></g><g class="tick" transform="translate(0,234)" style="opacity: 1;"><line x2="-6"></line><text x="-9" y="0" style="text-anchor: end;"><tspan x="-9" dy="3">1x</tspan></text></g><g class="tick" transform="translate(0,211)" style="opacity: 1;"><line x2="-6"></line><text x="-9" y="0" style="text-anchor: end;"><tspan x="-9" dy="3">2x</tspan></text></g><g class="tick" transform="translate(0,189)" style="opacity: 1;"><line x2="-6"></line><text x="-9" y="0" style="text-anchor: end;"><tspan x="-9" dy="3">3x</tspan></text></g><g class="tick" transform="translate(0,166)" style="opacity: 1;"><line x2="-6"></line><text x="-9" y="0" style="text-anchor: end;"><tspan x="-9" dy="3">4x</tspan></text></g><g class="tick" transform="translate(0,143)" style="opacity: 1;"><line x2="-6"></line><text x="-9" y="0" style="text-anchor: end;"><tspan x="-9" dy="3">5x</tspan></text></g><g class="tick" transform="translate(0,121)" style="opacity: 1;"><line x2="-6"></line><text x="-9" y="0" style="text-anchor: end;"><tspan x="-9" dy="3">6x</tspan></text></g><g class="tick" transform="translate(0,98)" style="opacity: 1;"><line x2="-6"></line><text x="-9" y="0" style="text-anchor: end;"><tspan x="-9" dy="3">7x</tspan></text></g><g class="tick" transform="translate(0,75)" style="opacity: 1;"><line x2="-6"></line><text x="-9" y="0" style="text-anchor: end;"><tspan x="-9" dy="3">8x</tspan></text></g><g class="tick" transform="translate(0,53)" style="opacity: 1;"><line x2="-6"></line><text x="-9" y="0" style="text-anchor: end;"><tspan x="-9" dy="3">9x</tspan></text></g><g class="tick" transform="translate(0,30)" style="opacity: 1;"><line x2="-6"></line><text x="-9" y="0" style="text-anchor: end;"><tspan x="-9" dy="3">10x</tspan></text></g><g class="tick" transform="translate(0,8)" style="opacity: 1;"><line x2="-6"></line><text x="-9" y="0" style="text-anchor: end;"><tspan x="-9" dy="3">11x</tspan></text></g><path class="domain" d="M-6,1H0V256H-6"></path></g><g class="c3-axis c3-axis-y2" transform="translate(1378,0)" style="visibility: hidden; opacity: 1;"><text class="c3-axis-y2-label" transform="rotate(-90)" x="0" dx="-0.5em" dy="-0.5em" style="text-anchor: end;"></text><g class="tick" transform="translate(0,256)" style="opacity: 1;"><line x2="6" y2="0"></line><text x="9" y="0" style="text-anchor: start;"><tspan x="9" dy="3">0</tspan></text></g><g class="tick" transform="translate(0,231)" style="opacity: 1;"><line x2="6" y2="0"></line><text x="9" y="0" style="text-anchor: start;"><tspan x="9" dy="3">0.1</tspan></text></g><g class="tick" transform="translate(0,205)" style="opacity: 1;"><line x2="6" y2="0"></line><text x="9" y="0" style="text-anchor: start;"><tspan x="9" dy="3">0.2</tspan></text></g><g class="tick" transform="translate(0,180)" style="opacity: 1;"><line x2="6" y2="0"></line><text x="9" y="0" style="text-anchor: start;"><tspan x="9" dy="3">0.3</tspan></text></g><g class="tick" transform="translate(0,154)" style="opacity: 1;"><line x2="6" y2="0"></line><text x="9" y="0" style="text-anchor: start;"><tspan x="9" dy="3">0.4</tspan></text></g><g class="tick" transform="translate(0,129)" style="opacity: 1;"><line x2="6" y2="0"></line><text x="9" y="0" style="text-anchor: start;"><tspan x="9" dy="3">0.5</tspan></text></g><g class="tick" transform="translate(0,103)" style="opacity: 1;"><line x2="6" y2="0"></line><text x="9" y="0" style="text-anchor: start;"><tspan x="9" dy="3">0.6</tspan></text></g><g class="tick" transform="translate(0,78)" style="opacity: 1;"><line x2="6" y2="0"></line><text x="9" y="0" style="text-anchor: start;"><tspan x="9" dy="3">0.7</tspan></text></g><g class="tick" transform="translate(0,52)" style="opacity: 1;"><line x2="6" y2="0"></line><text x="9" y="0" style="text-anchor: start;"><tspan x="9" dy="3">0.8</tspan></text></g><g class="tick" transform="translate(0,27)" style="opacity: 1;"><line x2="6" y2="0"></line><text x="9" y="0" style="text-anchor: start;"><tspan x="9" dy="3">0.9</tspan></text></g><g class="tick" transform="translate(0,1)" style="opacity: 1;"><line x2="6" y2="0"></line><text x="9" y="0" style="text-anchor: start;"><tspan x="9" dy="3">1</tspan></text></g><path class="domain" d="M6,1H0V256H6"></path></g></g><g transform="translate(40.5,320.5)" style="visibility: hidden;"><g clip-path="url(http://daily-bruin.github.io/usac-fee-trend/#c3-1441157363913-clip-subchart)" class="c3-chart"><g class="c3-chart-bars"></g><g class="c3-chart-lines"></g></g><g clip-path="url(http://daily-bruin.github.io/usac-fee-trend/#c3-1441157363913-clip)" class="c3-brush" style="pointer-events: all; -webkit-tap-highlight-color: rgba(0, 0, 0, 0);"><rect class="background" x="0" width="1398" style="visibility: hidden; cursor: crosshair;"></rect><rect class="extent" x="0" width="0" style="cursor: move;"></rect><g class="resize e" transform="translate(0,0)" style="cursor: ew-resize; display: none;"><rect x="-3" width="6" height="6" style="visibility: hidden;"></rect></g><g class="resize w" transform="translate(0,0)" style="cursor: ew-resize; display: none;"><rect x="-3" width="6" height="6" style="visibility: hidden;"></rect></g></g><g class="c3-axis-x" transform="translate(0,0)" clip-path="url(http://daily-bruin.github.io/usac-fee-trend/#c3-1441157363913-clip-xaxis)" style="opacity: 1;"><g class="tick" transform="translate(14, 0)" style="opacity: 1;"><line y2="6" x1="0" x2="0"></line><text y="9" x="0" transform="" style="text-anchor: middle; display: block;"><tspan x="0" dy=".71em" dx="0">1982</tspan></text></g><g class="tick" transform="translate(56, 0)" style="opacity: 1;"><line y2="6" x1="0" x2="0"></line><text y="9" x="0" transform="" style="text-anchor: middle; display: block;"><tspan x="0" dy=".71em" dx="0">1983</tspan></text></g><g class="tick" transform="translate(98, 0)" style="opacity: 1;"><line y2="6" x1="0" x2="0"></line><text y="9" x="0" transform="" style="text-anchor: middle; display: block;"><tspan x="0" dy=".71em" dx="0">1984</tspan></text></g><g class="tick" transform="translate(141, 0)" style="opacity: 1;"><line y2="6" x1="0" x2="0"></line><text y="9" x="0" transform="" style="text-anchor: middle; display: block;"><tspan x="0" dy=".71em" dx="0">1985</tspan></text></g><g class="tick" transform="translate(183, 0)" style="opacity: 1;"><line y2="6" x1="0" x2="0"></line><text y="9" x="0" transform="" style="text-anchor: middle; display: block;"><tspan x="0" dy=".71em" dx="0">1986</tspan></text></g><g class="tick" transform="translate(225, 0)" style="opacity: 1;"><line y2="6" x1="0" x2="0"></line><text y="9" x="0" transform="" style="text-anchor: middle; display: block;"><tspan x="0" dy=".71em" dx="0">1987</tspan></text></g><g class="tick" transform="translate(267, 0)" style="opacity: 1;"><line y2="6" x1="0" x2="0"></line><text y="9" x="0" transform="" style="text-anchor: middle; display: block;"><tspan x="0" dy=".71em" dx="0">1988</tspan></text></g><g class="tick" transform="translate(310, 0)" style="opacity: 1;"><line y2="6" x1="0" x2="0"></line><text y="9" x="0" transform="" style="text-anchor: middle; display: block;"><tspan x="0" dy=".71em" dx="0">1989</tspan></text></g><g class="tick" transform="translate(352, 0)" style="opacity: 1;"><line y2="6" x1="0" x2="0"></line><text y="9" x="0" transform="" style="text-anchor: middle; display: block;"><tspan x="0" dy=".71em" dx="0">1990</tspan></text></g><g class="tick" transform="translate(394, 0)" style="opacity: 1;"><line y2="6" x1="0" x2="0"></line><text y="9" x="0" transform="" style="text-anchor: middle; display: block;"><tspan x="0" dy=".71em" dx="0">1991</tspan></text></g><g class="tick" transform="translate(436, 0)" style="opacity: 1;"><line y2="6" x1="0" x2="0"></line><text y="9" x="0" transform="" style="text-anchor: middle; display: block;"><tspan x="0" dy=".71em" dx="0">1992</tspan></text></g><g class="tick" transform="translate(478, 0)" style="opacity: 1;"><line y2="6" x1="0" x2="0"></line><text y="9" x="0" transform="" style="text-anchor: middle; display: block;"><tspan x="0" dy=".71em" dx="0">1993</tspan></text></g><g class="tick" transform="translate(521, 0)" style="opacity: 1;"><line y2="6" x1="0" x2="0"></line><text y="9" x="0" transform="" style="text-anchor: middle; display: block;"><tspan x="0" dy=".71em" dx="0">1994</tspan></text></g><g class="tick" transform="translate(563, 0)" style="opacity: 1;"><line y2="6" x1="0" x2="0"></line><text y="9" x="0" transform="" style="text-anchor: middle; display: block;"><tspan x="0" dy=".71em" dx="0">1995</tspan></text></g><g class="tick" transform="translate(605, 0)" style="opacity: 1;"><line y2="6" x1="0" x2="0"></line><text y="9" x="0" transform="" style="text-anchor: middle; display: block;"><tspan x="0" dy=".71em" dx="0">1996</tspan></text></g><g class="tick" transform="translate(647, 0)" style="opacity: 1;"><line y2="6" x1="0" x2="0"></line><text y="9" x="0" transform="" style="text-anchor: middle; display: block;"><tspan x="0" dy=".71em" dx="0">1997</tspan></text></g><g class="tick" transform="translate(689, 0)" style="opacity: 1;"><line y2="6" x1="0" x2="0"></line><text y="9" x="0" transform="" style="text-anchor: middle; display: block;"><tspan x="0" dy=".71em" dx="0">1998</tspan></text></g><g class="tick" transform="translate(732, 0)" style="opacity: 1;"><line y2="6" x1="0" x2="0"></line><text y="9" x="0" transform="" style="text-anchor: middle; display: block;"><tspan x="0" dy=".71em" dx="0">1999</tspan></text></g><g class="tick" transform="translate(774, 0)" style="opacity: 1;"><line y2="6" x1="0" x2="0"></line><text y="9" x="0" transform="" style="text-anchor: middle; display: block;"><tspan x="0" dy=".71em" dx="0">2000</tspan></text></g><g class="tick" transform="translate(816, 0)" style="opacity: 1;"><line y2="6" x1="0" x2="0"></line><text y="9" x="0" transform="" style="text-anchor: middle; display: block;"><tspan x="0" dy=".71em" dx="0">2001</tspan></text></g><g class="tick" transform="translate(858, 0)" style="opacity: 1;"><line y2="6" x1="0" x2="0"></line><text y="9" x="0" transform="" style="text-anchor: middle; display: block;"><tspan x="0" dy=".71em" dx="0">2002</tspan></text></g><g class="tick" transform="translate(901, 0)" style="opacity: 1;"><line y2="6" x1="0" x2="0"></line><text y="9" x="0" transform="" style="text-anchor: middle; display: block;"><tspan x="0" dy=".71em" dx="0">2003</tspan></text></g><g class="tick" transform="translate(943, 0)" style="opacity: 1;"><line y2="6" x1="0" x2="0"></line><text y="9" x="0" transform="" style="text-anchor: middle; display: block;"><tspan x="0" dy=".71em" dx="0">2004</tspan></text></g><g class="tick" transform="translate(985, 0)" style="opacity: 1;"><line y2="6" x1="0" x2="0"></line><text y="9" x="0" transform="" style="text-anchor: middle; display: block;"><tspan x="0" dy=".71em" dx="0">2005</tspan></text></g><g class="tick" transform="translate(1027, 0)" style="opacity: 1;"><line y2="6" x1="0" x2="0"></line><text y="9" x="0" transform="" style="text-anchor: middle; display: block;"><tspan x="0" dy=".71em" dx="0">2006</tspan></text></g><g class="tick" transform="translate(1069, 0)" style="opacity: 1;"><line y2="6" x1="0" x2="0"></line><text y="9" x="0" transform="" style="text-anchor: middle; display: block;"><tspan x="0" dy=".71em" dx="0">2007</tspan></text></g><g class="tick" transform="translate(1112, 0)" style="opacity: 1;"><line y2="6" x1="0" x2="0"></line><text y="9" x="0" transform="" style="text-anchor: middle; display: block;"><tspan x="0" dy=".71em" dx="0">2008</tspan></text></g><g class="tick" transform="translate(1154, 0)" style="opacity: 1;"><line y2="6" x1="0" x2="0"></line><text y="9" x="0" transform="" style="text-anchor: middle; display: block;"><tspan x="0" dy=".71em" dx="0">2009</tspan></text></g><g class="tick" transform="translate(1196, 0)" style="opacity: 1;"><line y2="6" x1="0" x2="0"></line><text y="9" x="0" transform="" style="text-anchor: middle; display: block;"><tspan x="0" dy=".71em" dx="0">2010</tspan></text></g><g class="tick" transform="translate(1238, 0)" style="opacity: 1;"><line y2="6" x1="0" x2="0"></line><text y="9" x="0" transform="" style="text-anchor: middle; display: block;"><tspan x="0" dy=".71em" dx="0">2011</tspan></text></g><g class="tick" transform="translate(1281, 0)" style="opacity: 1;"><line y2="6" x1="0" x2="0"></line><text y="9" x="0" transform="" style="text-anchor: middle; display: block;"><tspan x="0" dy=".71em" dx="0">2012</tspan></text></g><g class="tick" transform="translate(1323, 0)" style="opacity: 1;"><line y2="6" x1="0" x2="0"></line><text y="9" x="0" transform="" style="text-anchor: middle; display: block;"><tspan x="0" dy=".71em" dx="0">2013</tspan></text></g><g class="tick" transform="translate(1365, 0)" style="opacity: 1;"><line y2="6" x1="0" x2="0"></line><text y="9" x="0" transform="" style="text-anchor: middle; display: block;"><tspan x="0" dy=".71em" dx="0">2014</tspan></text></g><path class="domain" d="M0,6V0H1378V6"></path></g></g><g transform="translate(0,300)"><g class=" c3-legend-item c3-legend-item-UC-tuition" style="visibility: visible; cursor: pointer;"><text x="657.9765625" y="9" style="pointer-events: none;">UC tuition</text><rect class="c3-legend-item-event" x="643.9765625" y="-5" width="77.6875" height="18" style="fill-opacity: 0;"></rect><rect class="c3-legend-item-tile" x="643.9765625" y="0" width="10" height="10" style="pointer-events: none; fill: rgb(31, 119, 180);"></rect></g><g class=" c3-legend-item c3-legend-item-USAC-fees" style="visibility: visible; cursor: pointer;"><text x="735.6640625" y="9" style="pointer-events: none;">USAC fees</text><rect class="c3-legend-item-event" x="721.6640625" y="-5" width="74.359375" height="18" style="fill-opacity: 0;"></rect><rect class="c3-legend-item-tile" x="721.6640625" y="0" width="10" height="10" style="pointer-events: none; fill: rgb(255, 127, 14);"></rect></g></g></svg>
